<svg xmlns="http://www.w3.org/2000/svg" width="26.592" height="26.593" viewBox="0 0 26.592 26.593">
  <path id="Icon_awesome-phone" data-name="Icon awesome-phone" d="M.965,1.277,6.367.031A1.255,1.255,0,0,1,7.8.753L10.288,6.57A1.243,1.243,0,0,1,9.93,8.024L6.782,10.6a19.249,19.249,0,0,0,9.2,9.2l2.576-3.147a1.245,1.245,0,0,1,1.454-.358l5.817,2.493a1.261,1.261,0,0,1,.727,1.433l-1.246,5.4a1.246,1.246,0,0,1-1.215.966A24.1,24.1,0,0,1,0,2.493,1.245,1.245,0,0,1,.965,1.277Z" transform="translate(0.001 0.001)"/>
</svg>
