<svg id="Grupo_119" data-name="Grupo 119" xmlns="http://www.w3.org/2000/svg" width="207.424" height="207" viewBox="0 0 207.424 207">
  <circle id="Elipse_12" data-name="Elipse 12" cx="103.5" cy="103.5" r="103.5" transform="translate(0)" fill="#1a3b6d"/>
  <g id="b" transform="translate(2.577 43.265)">
    <g id="c">
      <g id="Grupo_13" data-name="Grupo 13">
        <path id="Trazado_265" data-name="Trazado 265" d="M140.14,85.04a2.951,2.951,0,0,1-.97-.63c.23-.3,0-.56-.1-.82a96.8,96.8,0,0,1-3.6-12.6q-1-4.74-1.58-9.54a77.688,77.688,0,0,1-.46-10.23,13.166,13.166,0,0,1,3.06-8.18,13.955,13.955,0,0,1,8.57-5.07,14.241,14.241,0,0,1,7.12.56,32.809,32.809,0,0,0,5.91,1.13,45.816,45.816,0,0,0,7.94.27,42,42,0,0,0,10.01-1.55,14.19,14.19,0,0,1,18,10.83,20.254,20.254,0,0,1,.14,6.17c-.12,1.11-.1,2.22-.17,3.33-.17,2.51-.54,4.99-.9,7.48a86.568,86.568,0,0,1-2.27,10.31c-.63,2.3-1.37,4.56-2.07,6.84-.07.24-.31.5.15.61a3.247,3.247,0,0,1-1.02.25c-.36-.47-.07-.92.07-1.36,1-3.05,1.95-6.11,2.7-9.23.79-3.27,1.42-6.57,1.91-9.9a26.334,26.334,0,0,0,.45-4.16,58.905,58.905,0,0,0,.3-7.86,12.643,12.643,0,0,0-6.42-11.12,12.957,12.957,0,0,0-11.25-1.14,30.717,30.717,0,0,1-6.25,1.14,41.469,41.469,0,0,1-6.59.34,50.14,50.14,0,0,1-11.54-1.65,13.267,13.267,0,0,0-17.04,12.66,84.709,84.709,0,0,0,1.48,15.72c.64,3.42,1.47,6.79,2.39,10.13.49,2.11,1.36,4.09,1.99,6.16.11.36.36.73.02,1.11Z" transform="translate(-0.011 -3.926)" fill="#9dcbca"/>
        <path id="Trazado_266" data-name="Trazado 266" d="M95.04,39.32l.33.32a.815.815,0,0,1-.87.23,15.826,15.826,0,0,1-3.9-.92,1.067,1.067,0,0,0-.84-.04c-1.22.03-2.41-.29-3.64-.24A13.231,13.231,0,0,0,73.19,52.09,91.418,91.418,0,0,0,77.1,77.96c.17,1.19.79,2.24,1.06,3.39.1.4.31.81-.02,1.21a1.836,1.836,0,0,1-.83-.37,15.527,15.527,0,0,1-1.5-4.17,97.584,97.584,0,0,1-3.22-15.31,21.518,21.518,0,0,1-.26-4.59,37.6,37.6,0,0,1-.29,4.8,107.748,107.748,0,0,1-3.78,17.22c-.21.68-.47,1.35-.65,2.04l-1.1.44c-.35-.44-.08-.87.06-1.28a100.678,100.678,0,0,0,3.34-12.91c.51-2.7.98-5.41,1.27-8.14a2.511,2.511,0,0,0-.02-.55,65.041,65.041,0,0,0,.41-6.98A13.362,13.362,0,0,0,60.36,38.82a27.143,27.143,0,0,0-4.13-.11,2.707,2.707,0,0,0-1.26.12,42.307,42.307,0,0,1-9.61,1.64,51.42,51.42,0,0,1-9.12-.23c-.51-.05-1.15.05-1.48-.56.09-.18.22-.14.36-.06,2.56.18,5.12.39,7.7.33a46.876,46.876,0,0,0,11.59-1.66,13.631,13.631,0,0,1,11.36,1.64,14.4,14.4,0,0,1,6.55,9.79,21.155,21.155,0,0,1,1.49-4.3,14.154,14.154,0,0,1,10.31-7.49,13.245,13.245,0,0,1,6.74.55,13.939,13.939,0,0,0,4.19.84Z" transform="translate(-0.011 -3.926)" fill="#9dcbca"/>
        <path id="Trazado_267" data-name="Trazado 267" d="M35.12,39.63h-.34c-.28.36-.66.29-1.02.22a15.892,15.892,0,0,1-3.96-.95.454.454,0,0,0-.51.06,1.334,1.334,0,0,1-.86.01A13.29,13.29,0,0,0,12.48,50.33a39.453,39.453,0,0,0,.13,7.29,80.946,80.946,0,0,0,1.26,10.17c.6,3.37,1.47,6.68,2.37,9.98.41,1.61.99,3.17,1.49,4.76.12.39.35.8.03,1.2a1.184,1.184,0,0,1-.67-.12,25.472,25.472,0,0,0-1.14-3.63,100.3,100.3,0,0,1-3.6-15.77c-.34-2.32-.57-4.67-.72-7.02-.13-2.04-.11-4.08-.1-6.12a12.731,12.731,0,0,1,2.93-7.91,13.722,13.722,0,0,1,7.59-4.94,13.376,13.376,0,0,1,7.97.25,41.4,41.4,0,0,0,4.65,1,2.6,2.6,0,0,1,.44.16Z" transform="translate(-0.011 -3.926)" fill="#9ecbca"/>
        <path id="Trazado_268" data-name="Trazado 268" d="M114.46,38.83c.05-.1.1-.21.15-.31a13.585,13.585,0,0,1,12.28,1.64,13.858,13.858,0,0,1,6.19,9.66,2.581,2.581,0,0,1,.04.4,93.415,93.415,0,0,1-.58,12.28,106.663,106.663,0,0,1-3.77,17.51c-.19.63-.41,1.26-.62,1.88-.09.27-.18.53.22.61a3.478,3.478,0,0,1-1.14.33c-.33-.66.05-1.25.24-1.83.89-2.73,1.67-5.48,2.33-8.27.75-3.15,1.3-6.34,1.79-9.53a11.963,11.963,0,0,0,.29-2.98c.27-2.66.43-5.32.45-8a13.134,13.134,0,0,0-3.75-9.51,12.864,12.864,0,0,0-9.07-4.02c-.79-.03-1.59,0-2.38.04a3.213,3.213,0,0,0-1.54.1c-.37.08-.75.28-1.12,0Z" transform="translate(-0.011 -3.926)" fill="#9dcbca"/>
        <g id="Grupo_56" data-name="Grupo 56" transform="translate(0 77.089)">
          <path id="Trazado_261" data-name="Trazado 261" d="M188.93,83.94c4.36-.52,7.91,1.25,10.95,4.11a14.947,14.947,0,0,1,4.82,10.68,53.1,53.1,0,0,1-.02,8.27,20.246,20.246,0,0,1-7.67,13.75,20.655,20.655,0,0,1-13.36,4.59H21.14A20.859,20.859,0,0,1,.7,109.93a15.658,15.658,0,0,1-.65-4.08c-.03-2.44-.07-4.89,0-7.33A15.793,15.793,0,0,1,13.7,83.76c1.14-.13,2.28-.12,3.42-.14.23-.18.49-.09.74-.09a5.978,5.978,0,0,1,3.48,1.6,18.9,18.9,0,0,0,8.02,4.05,46.771,46.771,0,0,0,11,1.47A41.494,41.494,0,0,0,52.77,89.2a30.06,30.06,0,0,0,9.88-4.65,18.3,18.3,0,0,1,3.71-2.15,6.747,6.747,0,0,0,1.31-.52,14.347,14.347,0,0,1,8.55-.4,3.355,3.355,0,0,1,1.09.45,4.872,4.872,0,0,0,.95.39c1.68.85,3.17,2.03,4.82,2.95a42.689,42.689,0,0,0,16.34,5.22c8.74.94,16.65-1.34,23.96-6.04a17.207,17.207,0,0,1,3.78-1.85,8.348,8.348,0,0,1,1.22-.09,15.178,15.178,0,0,1,6.47-.02,15.815,15.815,0,0,1,4.35,1.92c.47,0,.81.34,1.24.46a38.658,38.658,0,0,0,11.86,4,76.291,76.291,0,0,0,9.78,1.15,42.717,42.717,0,0,0,14.54-1.59,32.034,32.034,0,0,0,5.87-2.44,22.117,22.117,0,0,1,5.34-2.03c.38-.19.76.12,1.14,0Z" transform="translate(-0.011 -81.015)" fill="#eb9f9e"/>
          <path id="Trazado_275" data-name="Trazado 275" d="M183.47,89.64a1.36,1.36,0,0,1,.96-1.4,13.964,13.964,0,0,1,3.37-.89,11.594,11.594,0,0,1,7.39,1.08,10.8,10.8,0,0,1,3.57,3.22,1.475,1.475,0,0,1-.21,2.13,1.4,1.4,0,0,1-2.09-.3,12.367,12.367,0,0,0-1.7-1.77,8.316,8.316,0,0,0-6.95-1.34,15.229,15.229,0,0,0-2.29.63,1.451,1.451,0,0,1-2.05-1.36Z" transform="translate(-0.011 -81.015)" fill="#f4cccc"/>
          <path id="Trazado_276" data-name="Trazado 276" d="M46.73,97.16c-.32,0-.64.02-.95,0a1.478,1.478,0,0,1-1.41-1.36,1.507,1.507,0,0,1,1.32-1.52c1.52-.24,3.06-.15,4.58-.43a11.963,11.963,0,0,0,4.21-1.36,1.482,1.482,0,0,1,2.06.55A1.442,1.442,0,0,1,56,95.03a12.926,12.926,0,0,1-5.39,1.78c-1.28.19-2.57.28-3.86.41v-.06Z" transform="translate(-0.011 -81.015)" fill="#f4cccc"/>
          <path id="Trazado_277" data-name="Trazado 277" d="M131.3,86.17c3.21.19,6.2.63,8.79,2.51a1.632,1.632,0,0,1,.8,1.54,1.471,1.471,0,0,1-1.06,1.27,1.39,1.39,0,0,1-1.35-.27,11.931,11.931,0,0,0-6.82-2.02h-.24c-1.22,0-1.9-.53-1.9-1.45a1.624,1.624,0,0,1,1.78-1.57Z" transform="translate(-0.011 -81.015)" fill="#f4cccc"/>
          <path id="Trazado_278" data-name="Trazado 278" d="M21.48,119.29h1.91a1.465,1.465,0,0,1,1.52,1.4,1.451,1.451,0,0,1-1.46,1.47q-1.95.045-3.9,0a1.436,1.436,0,1,1,.02-2.87c.64-.01,1.27,0,1.91,0Z" transform="translate(-0.011 -81.015)" fill="#f4cccb"/>
          <path id="Trazado_279" data-name="Trazado 279" d="M143.47,92.39a1.4,1.4,0,0,1,2.1-1.31,12.505,12.505,0,0,0,2.85.99,1.505,1.505,0,1,1-.65,2.93,12.9,12.9,0,0,1-3.51-1.25,1.388,1.388,0,0,1-.79-1.35Z" transform="translate(-0.011 -81.015)" fill="#f4cccc"/>
        </g>
        <g id="Grupo_53" data-name="Grupo 53" transform="translate(133.919 34.404)">
          <path id="Trazado_273" data-name="Trazado 273" d="M140.14,85.04c-.61-1.85-1.23-3.7-1.83-5.55-.17-.53-.3-1.06-.45-1.6.38-.14.51.18.69.39,2.93,3.4,6.75,4.81,11.12,5.01a11.26,11.26,0,0,0,7.22-2A9.505,9.505,0,0,0,159,79.25c2.68-3.52,6.54-4.08,10.39-2.31A20.766,20.766,0,0,0,175.3,79a11.4,11.4,0,0,0,8.23-1.93,18.725,18.725,0,0,0,5.85-7.12,41.475,41.475,0,0,0,3.42-9.48c.08-.34-.02-.85.55-.92a76.409,76.409,0,0,1-1.2,8.79,107.034,107.034,0,0,1-4.08,15.24c-.07.2-.11.41-.16.61a34,34,0,0,0-6.32,2.59,32.83,32.83,0,0,1-12.19,3.38,60.392,60.392,0,0,1-23.99-2.75,21.077,21.077,0,0,1-5.28-2.38Z" transform="translate(-133.93 -38.33)" fill="#c3ecec"/>
          <path id="Trazado_281" data-name="Trazado 281" d="M193.35,59.55c-.38,1.32-.66,2.66-1.06,3.98a34.568,34.568,0,0,1-4.45,9.63,14.49,14.49,0,0,1-6.17,5.33,12.526,12.526,0,0,1-10.47-.37,18.133,18.133,0,0,0-4.68-1.73,7.279,7.279,0,0,0-7.22,3,10.877,10.877,0,0,1-8.37,4.22,16.807,16.807,0,0,1-8.17-1.66,12.421,12.421,0,0,1-4.89-4.06,86.863,86.863,0,0,1-2.28-9.26,88.151,88.151,0,0,1-1.66-16.92A13.622,13.622,0,0,1,145.41,38.5a14.443,14.443,0,0,1,6.59.59,35.935,35.935,0,0,0,7.91,1.32,47.727,47.727,0,0,0,15.02-1.13,22.543,22.543,0,0,1,5.22-.95A13.535,13.535,0,0,1,193.5,49.54a33.408,33.408,0,0,1,.09,7.07c-.04.98-.16,1.95-.24,2.93Z" transform="translate(-133.93 -38.33)" fill="#fff"/>
          <path id="Trazado_285" data-name="Trazado 285" d="M181.12,71.82c-3.08-.06-3.81-2.22-3.07-4.55.41-1.29,1.63-1.52,2.78-1.62,2.77-.25,4.4,1.53,3.92,4.08-.21,1.12-1.49,1.96-2.99,2.08-.21.02-.42,0-.64,0Z" transform="translate(-133.93 -38.33)" fill="#f1c9c9"/>
          <path id="Trazado_286" data-name="Trazado 286" d="M144.98,71.83c-2.75.03-4.18-1.97-3.32-4.46a2.065,2.065,0,0,1,1.2-1.3,4.886,4.886,0,0,1,3.86-.1,3.231,3.231,0,0,1,1.84,3.16,2.753,2.753,0,0,1-2.06,2.45,3.9,3.9,0,0,1-1.52.25Z" transform="translate(-133.93 -38.33)" fill="#f1c9c9"/>
          <path id="Trazado_287" data-name="Trazado 287" d="M162.44,66.42a10.274,10.274,0,0,0,1.11,0c.76-.1.88.27.83.93-.14,1.75-1.02,2.66-2.44,2.44-1.19-.19-2.08-2.28-1.36-3.2.14-.18.33-.15.51-.15h1.35Z" transform="translate(-133.93 -38.33)" fill="#d09685"/>
          <path id="Trazado_288" data-name="Trazado 288" d="M179.66,63.09a1.27,1.27,0,0,1-1.35,1.33,1.33,1.33,0,0,1-.01-2.66,1.289,1.289,0,0,1,1.36,1.33Z" transform="translate(-133.93 -38.33)" fill="#728fa3"/>
          <path id="Trazado_289" data-name="Trazado 289" d="M146.46,63.09a1.167,1.167,0,0,1,1.31-1.33,1.264,1.264,0,0,1,1.32,1.29,1.243,1.243,0,0,1-1.31,1.36,1.171,1.171,0,0,1-1.32-1.32Z" transform="translate(-133.93 -38.33)" fill="#718ea2"/>
        </g>
        <g id="Grupo_55" data-name="Grupo 55" transform="translate(12.019 34.344)">
          <path id="Trazado_272" data-name="Trazado 272" d="M17.77,83.74q-.78-2.475-1.56-4.96c-.09-.3-.15-.61-.23-.91.37-.09.53.2.7.41,2.34,2.88,5.52,4.22,9.06,4.83a13.528,13.528,0,0,0,5.45-.12,10.251,10.251,0,0,0,6.04-3.85,7.575,7.575,0,0,1,5.01-3.1,9.114,9.114,0,0,1,4.08.44,25.5,25.5,0,0,1,3,1.28,12.213,12.213,0,0,0,10.54.34A14.237,14.237,0,0,0,65.64,73a34.12,34.12,0,0,0,4.69-10.31c.23-.79.44-1.58.63-2.38.06-.26.06-.61.48-.61a72.952,72.952,0,0,1-1.02,7.78,106.689,106.689,0,0,1-3.91,15.13c-2.26.98-4.09,2.66-6.22,3.84a36.335,36.335,0,0,1-16.57,4.5,43.944,43.944,0,0,1-16.38-2.07,16.3,16.3,0,0,1-6.24-3.54,7.155,7.155,0,0,0-3.33-1.61Z" transform="translate(-12.03 -38.27)" fill="#c3ecec"/>
          <path id="Trazado_283" data-name="Trazado 283" d="M71.45,59.71c-.42,1.69-.86,3.38-1.42,5.03-1.41,4.15-3.27,8.06-6.45,11.19a11.777,11.777,0,0,1-9.06,3.52,14.427,14.427,0,0,1-6.13-1.78,10.991,10.991,0,0,0-4.85-1.38,6.918,6.918,0,0,0-5.96,2.94,10.826,10.826,0,0,1-8.84,4.38,16.448,16.448,0,0,1-10.36-3.2,11.055,11.055,0,0,1-2.39-2.53,87.074,87.074,0,0,1-2.47-10.2,87.472,87.472,0,0,1-1.49-15.73A13.615,13.615,0,0,1,26.86,38.39c.84.07,1.67.29,2.5.44.63-.05.86.41,1.07.87a3.035,3.035,0,0,1,.01,2.18,4.228,4.228,0,0,0,.46,3.94,3.718,3.718,0,0,1,.54,2.45,3.223,3.223,0,0,0,1.98,3.46,8.335,8.335,0,0,1,1.45.97,1.676,1.676,0,0,0,1.72.25,4.317,4.317,0,0,1,1.46-.38,1.924,1.924,0,0,1,1.71.67,3.183,3.183,0,0,0,3.31,1,4.57,4.57,0,0,0,1.98-.79,3.025,3.025,0,0,1,3.17-.24c2.09.91,3.51.45,4.57-1.53a3.519,3.519,0,0,1,1.59-1.6A1.4,1.4,0,0,0,55,47.79c-.67-1.11-.64-1.39.28-2.26a2.2,2.2,0,0,0,.56-2.99,2.491,2.491,0,0,1-.04-2.64c.26-.43.04-1.03.5-1.38a12.879,12.879,0,0,1,9.48,2.11,13.229,13.229,0,0,1,5.9,9.25,38.7,38.7,0,0,1,0,7.22c-.03.87-.16,1.74-.24,2.61Z" transform="translate(-12.03 -38.27)" fill="#fff"/>
          <path id="Trazado_284" data-name="Trazado 284" d="M56.31,38.52a2.8,2.8,0,0,1-.35,1.84,1.565,1.565,0,0,0,.05,1.79,2.576,2.576,0,0,1-.68,3.77c-.69.56-.72.79-.19,1.51.98,1.31.7,2.4-.83,3.01a2.532,2.532,0,0,0-1.3,1.52A3.4,3.4,0,0,1,49.62,54a2.388,2.388,0,0,1-1.28-.37,2.614,2.614,0,0,0-3.18.1,5.13,5.13,0,0,1-3.71.88,2.409,2.409,0,0,1-1.66-.85,1.914,1.914,0,0,0-2.7-.68,2.27,2.27,0,0,1-2.77-.39,8.207,8.207,0,0,0-1.54-.98,2.872,2.872,0,0,1-1.64-2.94,5.536,5.536,0,0,0-1.01-3.67A3.431,3.431,0,0,1,30,42.24a6.481,6.481,0,0,0,.34-1.63,2.153,2.153,0,0,0-.98-1.81c-.35-.55.16-.27.26-.24a19.517,19.517,0,0,0,3.29.81,8.416,8.416,0,0,0,1.87.25,10.854,10.854,0,0,0,2.88.43,49.209,49.209,0,0,0,15.68-1.09c.77-.18,1.49-.54,2.29-.65.28-.04.52-.12.68.19Z" transform="translate(-12.03 -38.27)" fill="#9b9d9f"/>
          <path id="Trazado_295" data-name="Trazado 295" d="M23,71.83c-3.22-.04-3.95-2.43-3.06-4.8.43-1.15,1.65-1.31,2.69-1.37,2.48-.15,3.87.9,4.02,3.38a2.585,2.585,0,0,1-1.66,2.4,4.687,4.687,0,0,1-2,.39Z" transform="translate(-12.03 -38.27)" fill="#f1c9c9"/>
          <path id="Trazado_296" data-name="Trazado 296" d="M55.98,68.65c-.24-2.49,1.85-3.14,3.79-3.01a3.177,3.177,0,0,1,3.06,4.19,2.259,2.259,0,0,1-1.03,1.36,4.447,4.447,0,0,1-5.22-.42,2.63,2.63,0,0,1-.6-2.11Z" transform="translate(-12.03 -38.27)" fill="#f1c9c9"/>
          <path id="Trazado_297" data-name="Trazado 297" d="M57.78,62.69c0,.69-.03,1.37-.82,1.64a1.423,1.423,0,0,1-1.5-.26,1.369,1.369,0,0,1-.26-1.56,1.1,1.1,0,0,1,1.19-.75c.65.02.5-.26.26-.6a1.7,1.7,0,0,0-1.3-.68,4.641,4.641,0,0,0-1.73.23c-.26.08-.56.18-.66-.19-.09-.31.2-.4.42-.47a5.026,5.026,0,0,1,1.88-.28c1.6.09,2.48,1.13,2.51,2.9Z" transform="translate(-12.03 -38.27)" fill="#718ea2"/>
          <path id="Trazado_298" data-name="Trazado 298" d="M26.45,61.74a1.706,1.706,0,0,0-1.57-1.39,5.144,5.144,0,0,0-1.66.09c-.23.05-.44,0-.49-.27-.04-.23.13-.35.32-.39a3.592,3.592,0,0,1,3.26.44,2.956,2.956,0,0,1,.9,2.97,1.252,1.252,0,0,1-1.55,1.21c-.82-.1-1.16-.55-1.1-1.44.05-.85.45-1.17,1.44-1.2.13,0,.26-.01.45-.02Z" transform="translate(-12.03 -38.27)" fill="#728fa3"/>
          <path id="Trazado_299" data-name="Trazado 299" d="M40.35,66.53h1.27c.16,0,.33.06.34.26a.309.309,0,0,1-.34.35c-.85.01-1.69.01-2.54,0a.316.316,0,0,1-.35-.35c.03-.23.23-.27.42-.27h1.19Z" transform="translate(-12.03 -38.27)" fill="#d49e8e"/>
        </g>
        <g id="Grupo_54" data-name="Grupo 54" transform="translate(72.838)">
          <path id="Trazado_274" data-name="Trazado 274" d="M132.17,60.19a55.528,55.528,0,0,1-.8,6.44,105.534,105.534,0,0,1-4.13,16.21c-2.3.82-4.21,2.34-6.32,3.5a37.477,37.477,0,0,1-15.28,4.6,39.743,39.743,0,0,1-18.47-3.31,38.27,38.27,0,0,1-7.19-3.92c-.59-.41-1.21-.77-1.81-1.15-.3-1.54-1.04-2.96-1.3-4.52.29-.11.46.1.6.27,2.56,3.11,6.04,4.43,9.87,4.92a11.78,11.78,0,0,0,8.24-1.75,8.116,8.116,0,0,0,2.21-2.04c2.66-3.77,6.75-4.23,10.54-2.51a26.97,26.97,0,0,0,4.58,1.82,11.45,11.45,0,0,0,11.21-3.04,24.926,24.926,0,0,0,6.01-9.91,40.665,40.665,0,0,0,1.45-4.71c.08-.35.06-.83.61-.89Z" transform="translate(-72.849 -3.926)" fill="#c3ecec"/>
          <path id="Trazado_280" data-name="Trazado 280" d="M114.46,38.83c.64-.16,1.28-.32,1.91-.5.28-.08.52-.1.68.2a1.515,1.515,0,0,1,0,1.79,1.779,1.779,0,0,0,.09,1.86,2.807,2.807,0,0,1-.51,3.63c-.91.94-.77.88-.26,1.81a1.962,1.962,0,0,1-.89,2.95,2.964,2.964,0,0,0-1.49,1.57,3.783,3.783,0,0,1-5.13,1.72,2.473,2.473,0,0,0-2.84.15,5.654,5.654,0,0,1-3.8.89,2.594,2.594,0,0,1-1.93-.98,1.68,1.68,0,0,0-2.19-.58,2.945,2.945,0,0,1-3.45-.55,8.915,8.915,0,0,0-1.34-.85,3.353,3.353,0,0,1-1.74-3.19,5.259,5.259,0,0,0-.9-3.38,3.674,3.674,0,0,1-.31-2.78c.07-.42.22-.82.31-1.24a2.123,2.123,0,0,0-.58-2.12c-.15-.14-.34-.27-.32-.52.31-.37.64-.12.95-.02a22.469,22.469,0,0,0,4.67.93,20.386,20.386,0,0,0,11.29,2.66c3.04-.06,5.81-.94,7.8-3.46Z" transform="translate(-72.849 -3.926)" fill="#9b9d9f"/>
          <path id="Trazado_282" data-name="Trazado 282" d="M89.76,38.72a2.158,2.158,0,0,1,1.2,2.82,9.775,9.775,0,0,0-.4,1.7,3.175,3.175,0,0,0,.58,2.32,3.977,3.977,0,0,1,.75,2.85,3.089,3.089,0,0,0,1.74,3.36,9.7,9.7,0,0,1,1.73,1.13,1.93,1.93,0,0,0,2.22.28c1.42-.67,1.94-.54,3.04.65a2.437,2.437,0,0,0,1.62.77,5.253,5.253,0,0,0,3.77-.95,2.5,2.5,0,0,1,2.9-.16,3.363,3.363,0,0,0,4.82-1.51,3.253,3.253,0,0,1,1.71-1.75,1.637,1.637,0,0,0,.6-2.66,1.2,1.2,0,0,1,.18-1.78,2.568,2.568,0,0,0,.54-3.67,1.486,1.486,0,0,1-.06-1.78,2.815,2.815,0,0,0,.35-1.84,12.621,12.621,0,0,1,9.07,1.82,13.246,13.246,0,0,1,6.51,11.76,54.8,54.8,0,0,1-.46,8.09c-.37,1.27-.72,2.54-1.12,3.8a30.116,30.116,0,0,1-5.23,10.37c-2.67,3.23-6.02,5.25-10.38,5.1A14.751,14.751,0,0,1,109,77.58a10.65,10.65,0,0,0-4.38-1.31,7.17,7.17,0,0,0-6.53,3.22,9.735,9.735,0,0,1-6.53,3.89,16.236,16.236,0,0,1-11.89-2.61,10.287,10.287,0,0,1-2.82-2.76,53.55,53.55,0,0,1-1.78-6.6,86.866,86.866,0,0,1-2.22-19.48A13.567,13.567,0,0,1,87.71,38.35c.68.06,1.36.22,2.04.34Z" transform="translate(-72.849 -3.926)" fill="#fff"/>
          <path id="Trazado_290" data-name="Trazado 290" d="M83.7,71.81a3.053,3.053,0,0,1-3.16-1.8,3.331,3.331,0,0,1,.71-3.6,4.221,4.221,0,0,1,4.29-.45,2.922,2.922,0,0,1,1.84,3.12c-.01,1.52-1.14,2.54-2.97,2.72-.24.02-.48,0-.71,0Z" transform="translate(-72.849 -3.926)" fill="#f1c9c9"/>
          <path id="Trazado_291" data-name="Trazado 291" d="M120.04,71.81a3.051,3.051,0,0,1-3.16-1.79,3.325,3.325,0,0,1,.7-3.6,4.19,4.19,0,0,1,4.36-.42,2.984,2.984,0,0,1,1.78,3.24c-.08,1.41-1.21,2.39-2.96,2.56-.24.02-.48,0-.71,0Z" transform="translate(-72.849 -3.926)" fill="#f1c9c9"/>
          <path id="Trazado_292" data-name="Trazado 292" d="M103.05,67.16a4.877,4.877,0,0,1-.14.92,1.209,1.209,0,0,1-1.28.86,1.011,1.011,0,0,1-.99-.87,4.97,4.97,0,0,1-.21-1.49c.04-.82.44-1.32,1.13-1.39a1.426,1.426,0,0,1,1.41,1.16c.05.26.05.52.08.81Z" transform="translate(-72.849 -3.926)" fill="#d19685"/>
          <path id="Trazado_293" data-name="Trazado 293" d="M85.32,63.11a1.209,1.209,0,0,1,1.3-1.35,1.33,1.33,0,1,1,.04,2.66,1.216,1.216,0,0,1-1.35-1.31Z" transform="translate(-72.849 -3.926)" fill="#728fa3"/>
          <path id="Trazado_294" data-name="Trazado 294" d="M115.9,63.12a1.191,1.191,0,0,1,1.29-1.36,1.33,1.33,0,1,1,.07,2.66A1.2,1.2,0,0,1,115.9,63.12Z" transform="translate(-72.849 -3.926)" fill="#718ea2"/>
          <path id="Trazado_262" data-name="Trazado 262" d="M111.6,22.91A7.143,7.143,0,0,1,116.1,29a17.923,17.923,0,0,1-1.49,9.51.774.774,0,0,1-.01.52,6.791,6.791,0,0,1-3.69,2.76,14.439,14.439,0,0,1-6.65.78,31.785,31.785,0,0,1-5.39-1,11.216,11.216,0,0,1-3.58-1.69c-.15-.16-.35-.3-.26-.56a16.526,16.526,0,0,1-1.83-2.95c-2.43-6.2.53-12.06,7-13.77.71-.19,1.44-.33,2.16-.49.55-.51,1.28-.37,1.93-.48a7.439,7.439,0,0,1,1.25-.02c1.2.22,1.32.37,1.04,1.58-.43,1.89-.87,3.77-1.25,5.67a4.444,4.444,0,0,0-.1,1.03c.01.26-.02.56.27.7a.724.724,0,0,0,.79-.23,6.519,6.519,0,0,0,1.5-1.84c.93-1.67,1.92-3.3,2.95-4.91.2-.31.33-.76.85-.7Z" transform="translate(-72.9 0.018)" fill="#fff"/>
          <path id="Trazado_263" data-name="Trazado 263" d="M111.6,22.91a62.619,62.619,0,0,0-3.39,5.54,8.916,8.916,0,0,1-1.64,2.12,1.141,1.141,0,0,1-1.21.4c-.51-.19-.46-.66-.44-1.08a25.213,25.213,0,0,1,.75-4.04c.21-1.04.42-2.07.71-3.09.19-.68-.03-.88-.66-.81a.253.253,0,0,1,.16-.32c.57-.2.66-.71.79-1.2.68-2.59,1.38-5.18,2.3-7.7a4.9,4.9,0,0,1,1.93-2.53c4.08-2.73,8.14-5.5,12.44-7.88.66-.36,1.3-.85,2.14-.61,3.64,1.67,7.24,3.41,10.73,5.38.2.11.5.19.45.48-.04.24-.34.23-.53.29-3.57,1.2-7.14,2.38-10.71,3.58-2.64.89-5.27,1.79-7.91,2.68a1.6,1.6,0,0,0-.95.66q-2.385,3.855-4.79,7.69a2.182,2.182,0,0,0-.16.45Z" transform="translate(-72.9 0.018)" fill="#e3eae8"/>
          <path id="Trazado_264" data-name="Trazado 264" d="M125.47,1.71a12.163,12.163,0,0,0-3.54,1.74c-3.8,2.21-7.44,4.67-11.08,7.13a3.9,3.9,0,0,0-1.51,1.96,69.606,69.606,0,0,0-2.38,7.98c-.18.73-.36,1.36-1.25,1.42-1.11.06-2.23.11-3.34.17,0-2.01-.1-4.03.03-6.04.1-1.62.1-3.23.11-4.85a1.006,1.006,0,0,1,.49-.84q4.05-3.135,8.1-6.28c1.55-1.2,3.15-2.34,4.61-3.64.86-.76,1.74-.41,2.56-.31a52.3,52.3,0,0,1,7,1.42.757.757,0,0,1,.2.13Z" transform="translate(-72.9 0.018)" fill="#cbdedd"/>
        </g>
      </g>
    </g>
  </g>
</svg>
