<svg id="Grupo_120" data-name="Grupo 120" xmlns="http://www.w3.org/2000/svg" width="207" height="207" viewBox="0 0 207 207">
  <circle id="Elipse_13" data-name="Elipse 13" cx="103.5" cy="103.5" r="103.5" fill="#1a3b6d"/>
  <g id="Grupo_68" data-name="Grupo 68" transform="translate(1.076 62.806)">
    <g id="Grupo_46" data-name="Grupo 46" transform="translate(0 42.869)">
      <path id="Trazado_300" data-name="Trazado 300" d="M188.93,83.94c4.36-.52,7.91,1.25,10.95,4.11a14.947,14.947,0,0,1,4.82,10.68,53.1,53.1,0,0,1-.02,8.27,20.246,20.246,0,0,1-7.67,13.75,20.655,20.655,0,0,1-13.36,4.59H21.14A20.859,20.859,0,0,1,.7,109.93a15.658,15.658,0,0,1-.65-4.08c-.03-2.44-.07-4.89,0-7.33A15.793,15.793,0,0,1,13.7,83.76c1.14-.13,2.28-.12,3.42-.14.23-.18.49-.09.74-.09a5.978,5.978,0,0,1,3.48,1.6,18.9,18.9,0,0,0,8.02,4.05,46.771,46.771,0,0,0,11,1.47A41.494,41.494,0,0,0,52.77,89.2a30.06,30.06,0,0,0,9.88-4.65,18.3,18.3,0,0,1,3.71-2.15,6.747,6.747,0,0,0,1.31-.52,14.347,14.347,0,0,1,8.55-.4,3.355,3.355,0,0,1,1.09.45,4.872,4.872,0,0,0,.95.39c1.68.85,3.17,2.03,4.82,2.95a42.689,42.689,0,0,0,16.34,5.22c8.74.94,16.65-1.34,23.96-6.04a17.207,17.207,0,0,1,3.78-1.85,8.348,8.348,0,0,1,1.22-.09,15.178,15.178,0,0,1,6.47-.02,15.815,15.815,0,0,1,4.35,1.92c.47,0,.81.34,1.24.46a38.658,38.658,0,0,0,11.86,4,76.291,76.291,0,0,0,9.78,1.15,42.717,42.717,0,0,0,14.54-1.59,32.034,32.034,0,0,0,5.87-2.44,22.117,22.117,0,0,1,5.34-2.03c.38-.19.76.12,1.14,0Z" transform="translate(-0.011 -81.015)" fill="#eb9f9e"/>
      <path id="Trazado_301" data-name="Trazado 301" d="M183.47,89.64a1.36,1.36,0,0,1,.96-1.4,13.964,13.964,0,0,1,3.37-.89,11.594,11.594,0,0,1,7.39,1.08,10.8,10.8,0,0,1,3.57,3.22,1.475,1.475,0,0,1-.21,2.13,1.4,1.4,0,0,1-2.09-.3,12.367,12.367,0,0,0-1.7-1.77,8.316,8.316,0,0,0-6.95-1.34,15.229,15.229,0,0,0-2.29.63,1.451,1.451,0,0,1-2.05-1.36Z" transform="translate(0.989 -81.858)" fill="#f4cccc"/>
      <path id="Trazado_302" data-name="Trazado 302" d="M46.73,97.16c-.32,0-.64.02-.95,0a1.478,1.478,0,0,1-1.41-1.36,1.507,1.507,0,0,1,1.32-1.52c1.52-.24,3.06-.15,4.58-.43a11.963,11.963,0,0,0,4.21-1.36,1.482,1.482,0,0,1,2.06.55A1.442,1.442,0,0,1,56,95.03a12.926,12.926,0,0,1-5.39,1.78c-1.28.19-2.57.28-3.86.41v-.06Z" transform="translate(0.989 -81.858)" fill="#f4cccc"/>
      <path id="Trazado_303" data-name="Trazado 303" d="M131.3,86.17c3.21.19,6.2.63,8.79,2.51a1.632,1.632,0,0,1,.8,1.54,1.471,1.471,0,0,1-1.06,1.27,1.39,1.39,0,0,1-1.35-.27,11.931,11.931,0,0,0-6.82-2.02h-.24c-1.22,0-1.9-.53-1.9-1.45a1.624,1.624,0,0,1,1.78-1.57Z" transform="translate(0.989 -81.858)" fill="#f4cccc"/>
      <path id="Trazado_304" data-name="Trazado 304" d="M21.48,119.29h1.91a1.465,1.465,0,0,1,1.52,1.4,1.451,1.451,0,0,1-1.46,1.47q-1.95.045-3.9,0a1.436,1.436,0,1,1,.02-2.87c.64-.01,1.27,0,1.91,0Z" transform="translate(0.989 -81.858)" fill="#f4cccb"/>
      <path id="Trazado_305" data-name="Trazado 305" d="M143.47,92.39a1.4,1.4,0,0,1,2.1-1.31,12.505,12.505,0,0,0,2.85.99,1.505,1.505,0,1,1-.65,2.93,12.9,12.9,0,0,1-3.51-1.25,1.388,1.388,0,0,1-.79-1.35Z" transform="translate(0.989 -81.858)" fill="#f4cccc"/>
    </g>
    <g id="Grupo_48" data-name="Grupo 48" transform="translate(20.343 18.163)">
      <g id="Grupo_51" data-name="Grupo 51">
        <path id="Trazado_735" data-name="Trazado 735" d="M139.451,77.332c-.426-1.291-.858-2.581-1.277-3.872-.119-.37-.209-.739-.314-1.116.265-.1.356.126.481.272a10.317,10.317,0,0,0,7.757,3.5,7.855,7.855,0,0,0,5.037-1.4,6.631,6.631,0,0,0,1.472-1.423c1.87-2.456,4.562-2.846,7.248-1.611a14.486,14.486,0,0,0,4.123,1.437,7.954,7.954,0,0,0,5.741-1.346,13.063,13.063,0,0,0,4.081-4.967,28.934,28.934,0,0,0,2.386-6.613c.056-.237-.014-.593.384-.642a53.3,53.3,0,0,1-.837,6.132,74.666,74.666,0,0,1-2.846,10.632c-.049.14-.077.286-.112.426a23.717,23.717,0,0,0-4.409,1.807,22.9,22.9,0,0,1-8.5,2.358,42.13,42.13,0,0,1-16.736-1.918,14.7,14.7,0,0,1-3.683-1.66Z" transform="translate(-135.118 -44.747)" fill="#c3ecec"/>
        <path id="Trazado_734" data-name="Trazado 734" d="M175.382,53.133c-.265.921-.46,1.856-.739,2.776a24.116,24.116,0,0,1-3.1,6.718,10.109,10.109,0,0,1-4.3,3.718,8.739,8.739,0,0,1-7.3-.258,12.65,12.65,0,0,0-3.265-1.207,5.078,5.078,0,0,0-5.037,2.093,7.588,7.588,0,0,1-5.839,2.944,11.725,11.725,0,0,1-5.7-1.158,8.665,8.665,0,0,1-3.411-2.832,60.6,60.6,0,0,1-1.591-6.46,61.5,61.5,0,0,1-1.158-11.8,9.5,9.5,0,0,1,8.009-9.215,10.075,10.075,0,0,1,4.6.412,25.069,25.069,0,0,0,5.518.921,33.3,33.3,0,0,0,10.478-.788,15.727,15.727,0,0,1,3.642-.663,9.442,9.442,0,0,1,9.313,7.82,23.306,23.306,0,0,1,.063,4.932c-.028.684-.112,1.36-.167,2.044Z" transform="translate(-133.93 -38.33)" fill="#fff"/>
        <path id="Trazado_731" data-name="Trazado 731" d="M180.111,69.947c-2.149-.042-2.658-1.549-2.142-3.174.286-.9,1.137-1.06,1.939-1.13,1.932-.174,3.069,1.067,2.735,2.846a2.168,2.168,0,0,1-2.086,1.451c-.147.014-.293,0-.446,0Z" transform="translate(-147.191 -46.584)" fill="#f1c9c9"/>
        <path id="Trazado_729" data-name="Trazado 729" d="M143.9,69.952a2.209,2.209,0,0,1-2.316-3.111,1.441,1.441,0,0,1,.837-.907,3.408,3.408,0,0,1,2.693-.07,2.254,2.254,0,0,1,1.284,2.2,1.921,1.921,0,0,1-1.437,1.709,2.722,2.722,0,0,1-1.06.174Z" transform="translate(-136.192 -46.582)" fill="#f1c9c9"/>
        <path id="Trazado_732" data-name="Trazado 732" d="M178.85,62.688a.886.886,0,0,1-.942.928.928.928,0,0,1-.007-1.856.9.9,0,0,1,.949.928Z" transform="translate(-146.948 -45.415)" fill="#728fa3"/>
        <path id="Trazado_733" data-name="Trazado 733" d="M146.46,62.688a.814.814,0,0,1,.914-.928.882.882,0,0,1,.921.9.867.867,0,0,1-.914.949A.817.817,0,0,1,146.46,62.688Z" transform="translate(-137.719 -45.415)" fill="#718ea2"/>
        <path id="Trazado_817" data-name="Trazado 817" d="M161.8,66.415a7.167,7.167,0,0,0,.774,0c.53-.07.614.188.579.649-.1,1.221-.712,1.856-1.7,1.7a1.643,1.643,0,0,1-.949-2.232c.1-.126.23-.1.356-.1h.942Z" transform="translate(-140.88 -46.388)" fill="#d09685"/>
      </g>
    </g>
    <g id="Grupo_52" data-name="Grupo 52" transform="translate(142.783 18.163)">
      <g id="Grupo_51-2" data-name="Grupo 51">
        <path id="Trazado_735-2" data-name="Trazado 735" d="M139.451,77.332c-.426-1.291-.858-2.581-1.277-3.872-.119-.37-.209-.739-.314-1.116.265-.1.356.126.481.272a10.317,10.317,0,0,0,7.757,3.5,7.855,7.855,0,0,0,5.037-1.4,6.631,6.631,0,0,0,1.472-1.423c1.87-2.456,4.562-2.846,7.248-1.611a14.486,14.486,0,0,0,4.123,1.437,7.954,7.954,0,0,0,5.741-1.346,13.063,13.063,0,0,0,4.081-4.967,28.934,28.934,0,0,0,2.386-6.613c.056-.237-.014-.593.384-.642a53.3,53.3,0,0,1-.837,6.132,74.666,74.666,0,0,1-2.846,10.632c-.049.14-.077.286-.112.426a23.717,23.717,0,0,0-4.409,1.807,22.9,22.9,0,0,1-8.5,2.358,42.13,42.13,0,0,1-16.736-1.918,14.7,14.7,0,0,1-3.683-1.66Z" transform="translate(-135.118 -44.747)" fill="#c3ecec"/>
        <path id="Trazado_734-2" data-name="Trazado 734" d="M175.382,53.133c-.265.921-.46,1.856-.739,2.776a24.116,24.116,0,0,1-3.1,6.718,10.109,10.109,0,0,1-4.3,3.718,8.739,8.739,0,0,1-7.3-.258,12.65,12.65,0,0,0-3.265-1.207,5.078,5.078,0,0,0-5.037,2.093,7.588,7.588,0,0,1-5.839,2.944,11.725,11.725,0,0,1-5.7-1.158,8.665,8.665,0,0,1-3.411-2.832,60.6,60.6,0,0,1-1.591-6.46,61.5,61.5,0,0,1-1.158-11.8,9.5,9.5,0,0,1,8.009-9.215,10.075,10.075,0,0,1,4.6.412,25.069,25.069,0,0,0,5.518.921,33.3,33.3,0,0,0,10.478-.788,15.727,15.727,0,0,1,3.642-.663,9.442,9.442,0,0,1,9.313,7.82,23.306,23.306,0,0,1,.063,4.932c-.028.684-.112,1.36-.167,2.044Z" transform="translate(-133.93 -38.33)" fill="#fff"/>
        <path id="Trazado_731-2" data-name="Trazado 731" d="M180.111,69.947c-2.149-.042-2.658-1.549-2.142-3.174.286-.9,1.137-1.06,1.939-1.13,1.932-.174,3.069,1.067,2.735,2.846a2.168,2.168,0,0,1-2.086,1.451c-.147.014-.293,0-.446,0Z" transform="translate(-147.191 -46.584)" fill="#f1c9c9"/>
        <path id="Trazado_729-2" data-name="Trazado 729" d="M143.9,69.952a2.209,2.209,0,0,1-2.316-3.111,1.441,1.441,0,0,1,.837-.907,3.408,3.408,0,0,1,2.693-.07,2.254,2.254,0,0,1,1.284,2.2,1.921,1.921,0,0,1-1.437,1.709,2.722,2.722,0,0,1-1.06.174Z" transform="translate(-136.192 -46.582)" fill="#f1c9c9"/>
        <path id="Trazado_732-2" data-name="Trazado 732" d="M178.85,62.688a.886.886,0,0,1-.942.928.928.928,0,0,1-.007-1.856.9.9,0,0,1,.949.928Z" transform="translate(-146.948 -45.415)" fill="#728fa3"/>
        <path id="Trazado_733-2" data-name="Trazado 733" d="M146.46,62.688a.814.814,0,0,1,.914-.928.882.882,0,0,1,.921.9.867.867,0,0,1-.914.949A.817.817,0,0,1,146.46,62.688Z" transform="translate(-137.719 -45.415)" fill="#718ea2"/>
        <path id="Trazado_817-2" data-name="Trazado 817" d="M161.8,66.415a7.167,7.167,0,0,0,.774,0c.53-.07.614.188.579.649-.1,1.221-.712,1.856-1.7,1.7a1.643,1.643,0,0,1-.949-2.232c.1-.126.23-.1.356-.1h.942Z" transform="translate(-140.88 -46.388)" fill="#d09685"/>
      </g>
    </g>
    <g id="Grupo_49" data-name="Grupo 49" transform="translate(81.563)">
      <path id="Trazado_735-3" data-name="Trazado 735" d="M139.451,77.332c-.426-1.291-.858-2.581-1.277-3.872-.119-.37-.209-.739-.314-1.116.265-.1.356.126.481.272a10.317,10.317,0,0,0,7.757,3.5,7.855,7.855,0,0,0,5.037-1.4,6.631,6.631,0,0,0,1.472-1.423c1.87-2.456,4.562-2.846,7.248-1.611a14.486,14.486,0,0,0,4.123,1.437,7.954,7.954,0,0,0,5.741-1.346,13.063,13.063,0,0,0,4.081-4.967,28.934,28.934,0,0,0,2.386-6.613c.056-.237-.014-.593.384-.642a53.3,53.3,0,0,1-.837,6.132,74.666,74.666,0,0,1-2.846,10.632c-.049.14-.077.286-.112.426a23.717,23.717,0,0,0-4.409,1.807,22.9,22.9,0,0,1-8.5,2.358,42.13,42.13,0,0,1-16.736-1.918,14.7,14.7,0,0,1-3.683-1.66Z" transform="translate(-135.118 -44.747)" fill="#c3ecec"/>
      <path id="Trazado_734-3" data-name="Trazado 734" d="M175.382,53.133c-.265.921-.46,1.856-.739,2.776a24.116,24.116,0,0,1-3.1,6.718,10.109,10.109,0,0,1-4.3,3.718,8.739,8.739,0,0,1-7.3-.258,12.65,12.65,0,0,0-3.265-1.207,5.078,5.078,0,0,0-5.037,2.093,7.588,7.588,0,0,1-5.839,2.944,11.725,11.725,0,0,1-5.7-1.158,8.665,8.665,0,0,1-3.411-2.832,60.6,60.6,0,0,1-1.591-6.46,61.5,61.5,0,0,1-1.158-11.8,9.5,9.5,0,0,1,8.009-9.215,10.075,10.075,0,0,1,4.6.412,25.069,25.069,0,0,0,5.518.921,33.3,33.3,0,0,0,10.478-.788,15.727,15.727,0,0,1,3.642-.663,9.442,9.442,0,0,1,9.313,7.82,23.306,23.306,0,0,1,.063,4.932c-.028.684-.112,1.36-.167,2.044Z" transform="translate(-133.93 -38.33)" fill="#fff"/>
      <path id="Trazado_731-3" data-name="Trazado 731" d="M180.111,69.947c-2.149-.042-2.658-1.549-2.142-3.174.286-.9,1.137-1.06,1.939-1.13,1.932-.174,3.069,1.067,2.735,2.846a2.168,2.168,0,0,1-2.086,1.451c-.147.014-.293,0-.446,0Z" transform="translate(-147.191 -46.584)" fill="#f1c9c9"/>
      <path id="Trazado_729-3" data-name="Trazado 729" d="M143.9,69.952a2.209,2.209,0,0,1-2.316-3.111,1.441,1.441,0,0,1,.837-.907,3.408,3.408,0,0,1,2.693-.07,2.254,2.254,0,0,1,1.284,2.2,1.921,1.921,0,0,1-1.437,1.709,2.722,2.722,0,0,1-1.06.174Z" transform="translate(-136.192 -46.582)" fill="#f1c9c9"/>
      <path id="Trazado_732-3" data-name="Trazado 732" d="M178.85,62.688a.886.886,0,0,1-.942.928.928.928,0,0,1-.007-1.856.9.9,0,0,1,.949.928Z" transform="translate(-146.948 -45.415)" fill="#728fa3"/>
      <path id="Trazado_733-3" data-name="Trazado 733" d="M146.46,62.688a.814.814,0,0,1,.914-.928.882.882,0,0,1,.921.9.867.867,0,0,1-.914.949A.817.817,0,0,1,146.46,62.688Z" transform="translate(-137.719 -45.415)" fill="#718ea2"/>
      <path id="Trazado_730" data-name="Trazado 730" d="M102.257,66.563a3.4,3.4,0,0,1-.1.642.844.844,0,0,1-.893.6.706.706,0,0,1-.691-.607,3.468,3.468,0,0,1-.146-1.039c.028-.572.307-.921.788-.97A1,1,0,0,1,102.2,66c.035.181.035.363.056.565Z" transform="translate(-80.482 -45.287)" fill="#d19685"/>
    </g>
    <g id="Grupo_50" data-name="Grupo 50" transform="translate(69.521 60.553)">
      <g id="Grupo_47" data-name="Grupo 47">
        <path id="Trazado_332" data-name="Trazado 332" d="M140.14,85.04c-.01-.01-1.23-3.7-1.83-5.55-.17-.53-.3-1.06-.45-1.6.38-.14.51.18.69.39,2.93,3.4,6.75,4.81,11.12,5.01a11.26,11.26,0,0,0,7.22-2A9.505,9.505,0,0,0,159,79.25c2.68-3.52,6.54-4.08,10.39-2.31A20.766,20.766,0,0,0,175.3,79a11.4,11.4,0,0,0,8.23-1.93,18.725,18.725,0,0,0,5.85-7.12,41.475,41.475,0,0,0,3.42-9.48c.08-.34-.02-.85.55-.92a76.409,76.409,0,0,1-1.2,8.79c-.95,5.19-1.94,11.71-3.64,16.7,0,0-1.364,38.654-7.383,36.869-4.313-1.425-13.056-26.353-14.184-29.688-.584-1.043-3.208-1.907-5.479-.528-2.476,1.953-7.643,29.3-13.121,30.216-3.782,1.826-8.213-36.879-8.213-36.879Z" transform="translate(-133.93 -38.33)" fill="#c3ecec"/>
        <path id="Trazado_333" data-name="Trazado 333" d="M193.35,59.55c-.38,1.32-.66,2.66-1.06,3.98a34.568,34.568,0,0,1-4.45,9.63,14.49,14.49,0,0,1-6.17,5.33,12.526,12.526,0,0,1-10.47-.37,18.133,18.133,0,0,0-4.68-1.73,7.279,7.279,0,0,0-7.22,3,10.877,10.877,0,0,1-8.37,4.22,16.807,16.807,0,0,1-8.17-1.66,12.421,12.421,0,0,1-4.89-4.06,86.863,86.863,0,0,1-2.28-9.26,88.151,88.151,0,0,1-1.66-16.92A13.622,13.622,0,0,1,145.41,38.5a14.443,14.443,0,0,1,6.59.59,35.935,35.935,0,0,0,7.91,1.32,47.727,47.727,0,0,0,15.02-1.13,22.543,22.543,0,0,1,5.22-.95A13.535,13.535,0,0,1,193.5,49.54a33.408,33.408,0,0,1,.09,7.07c-.04.98-.16,1.95-.24,2.93Z" transform="translate(-133.93 -38.33)" fill="#fff"/>
      </g>
      <path id="Trazado_811" data-name="Trazado 811" d="M181.12,71.82c-3.08-.06-3.81-2.22-3.07-4.55.41-1.29,1.63-1.52,2.78-1.62,2.77-.25,4.4,1.53,3.92,4.08-.21,1.12-1.49,1.96-2.99,2.08-.21.02-.42,0-.64,0Z" transform="translate(-133.219 -38.33)" fill="#f1c9c9"/>
      <path id="Trazado_812" data-name="Trazado 812" d="M144.98,71.83c-2.75.03-4.18-1.97-3.32-4.46a2.065,2.065,0,0,1,1.2-1.3,4.886,4.886,0,0,1,3.86-.1,3.231,3.231,0,0,1,1.84,3.16,2.753,2.753,0,0,1-2.06,2.45,3.9,3.9,0,0,1-1.52.25Z" transform="translate(-133.219 -38.33)" fill="#f1c9c9"/>
      <path id="Trazado_814" data-name="Trazado 814" d="M179.66,63.09a1.27,1.27,0,0,1-1.35,1.33,1.33,1.33,0,0,1-.01-2.66,1.289,1.289,0,0,1,1.36,1.33Z" transform="translate(-133.219 -38.33)" fill="#728fa3"/>
      <path id="Trazado_815" data-name="Trazado 815" d="M146.46,63.09a1.167,1.167,0,0,1,1.31-1.33,1.264,1.264,0,0,1,1.32,1.29,1.243,1.243,0,0,1-1.31,1.36,1.171,1.171,0,0,1-1.32-1.32Z" transform="translate(-133.219 -38.33)" fill="#718ea2"/>
      <path id="Trazado_816" data-name="Trazado 816" d="M162.44,66.42a10.274,10.274,0,0,0,1.11,0c.76-.1.88.27.83.93-.14,1.75-1.02,2.66-2.44,2.44-1.19-.19-2.08-2.28-1.36-3.2.14-.18.33-.15.51-.15h1.35Z" transform="translate(-132.453 -36.332)" fill="#d09685"/>
    </g>
  </g>
</svg>
