<svg id="Grupo_121" data-name="Grupo 121" xmlns="http://www.w3.org/2000/svg" width="207" height="207" viewBox="0 0 207 207">
  <circle id="Elipse_7" data-name="Elipse 7" cx="103.5" cy="103.5" r="103.5" fill="#1a3b6d"/>
  <g id="Grupo_70" data-name="Grupo 70" transform="translate(1.076 12.669)">
    <g id="Grupo_26" data-name="Grupo 26" transform="translate(0 106.807)">
      <path id="Trazado_300" data-name="Trazado 300" d="M188.93,83.94c4.36-.52,7.91,1.25,10.95,4.11a14.947,14.947,0,0,1,4.82,10.68,53.1,53.1,0,0,1-.02,8.27,20.246,20.246,0,0,1-7.67,13.75,20.655,20.655,0,0,1-13.36,4.59H21.14A20.859,20.859,0,0,1,.7,109.93a15.658,15.658,0,0,1-.65-4.08c-.03-2.44-.07-4.89,0-7.33A15.793,15.793,0,0,1,13.7,83.76c1.14-.13,2.28-.12,3.42-.14.23-.18.49-.09.74-.09a5.978,5.978,0,0,1,3.48,1.6,18.9,18.9,0,0,0,8.02,4.05,46.771,46.771,0,0,0,11,1.47A41.494,41.494,0,0,0,52.77,89.2a30.06,30.06,0,0,0,9.88-4.65,18.3,18.3,0,0,1,3.71-2.15,6.747,6.747,0,0,0,1.31-.52,14.347,14.347,0,0,1,8.55-.4,3.355,3.355,0,0,1,1.09.45,4.872,4.872,0,0,0,.95.39c1.68.85,3.17,2.03,4.82,2.95a42.689,42.689,0,0,0,16.34,5.22c8.74.94,16.65-1.34,23.96-6.04a17.207,17.207,0,0,1,3.78-1.85,8.348,8.348,0,0,1,1.22-.09,15.178,15.178,0,0,1,6.47-.02,15.815,15.815,0,0,1,4.35,1.92c.47,0,.81.34,1.24.46a38.658,38.658,0,0,0,11.86,4,76.291,76.291,0,0,0,9.78,1.15,42.717,42.717,0,0,0,14.54-1.59,32.034,32.034,0,0,0,5.87-2.44,22.117,22.117,0,0,1,5.34-2.03c.38-.19.76.12,1.14,0Z" transform="translate(-0.011 -81.015)" fill="#eb9f9e"/>
      <path id="Trazado_301" data-name="Trazado 301" d="M183.47,89.64a1.36,1.36,0,0,1,.96-1.4,13.964,13.964,0,0,1,3.37-.89,11.594,11.594,0,0,1,7.39,1.08,10.8,10.8,0,0,1,3.57,3.22,1.475,1.475,0,0,1-.21,2.13,1.4,1.4,0,0,1-2.09-.3,12.367,12.367,0,0,0-1.7-1.77,8.316,8.316,0,0,0-6.95-1.34,15.229,15.229,0,0,0-2.29.63,1.451,1.451,0,0,1-2.05-1.36Z" transform="translate(0.989 -81.858)" fill="#f4cccc"/>
      <path id="Trazado_302" data-name="Trazado 302" d="M46.73,97.16c-.32,0-.64.02-.95,0a1.478,1.478,0,0,1-1.41-1.36,1.507,1.507,0,0,1,1.32-1.52c1.52-.24,3.06-.15,4.58-.43a11.963,11.963,0,0,0,4.21-1.36,1.482,1.482,0,0,1,2.06.55A1.442,1.442,0,0,1,56,95.03a12.926,12.926,0,0,1-5.39,1.78c-1.28.19-2.57.28-3.86.41v-.06Z" transform="translate(0.989 -81.858)" fill="#f4cccc"/>
      <path id="Trazado_303" data-name="Trazado 303" d="M131.3,86.17c3.21.19,6.2.63,8.79,2.51a1.632,1.632,0,0,1,.8,1.54,1.471,1.471,0,0,1-1.06,1.27,1.39,1.39,0,0,1-1.35-.27,11.931,11.931,0,0,0-6.82-2.02h-.24c-1.22,0-1.9-.53-1.9-1.45a1.624,1.624,0,0,1,1.78-1.57Z" transform="translate(0.989 -81.858)" fill="#f4cccc"/>
      <path id="Trazado_304" data-name="Trazado 304" d="M21.48,119.29h1.91a1.465,1.465,0,0,1,1.52,1.4,1.451,1.451,0,0,1-1.46,1.47q-1.95.045-3.9,0a1.436,1.436,0,1,1,.02-2.87c.64-.01,1.27,0,1.91,0Z" transform="translate(0.989 -81.858)" fill="#f4cccb"/>
      <path id="Trazado_305" data-name="Trazado 305" d="M143.47,92.39a1.4,1.4,0,0,1,2.1-1.31,12.505,12.505,0,0,0,2.85.99,1.505,1.505,0,1,1-.65,2.93,12.9,12.9,0,0,1-3.51-1.25,1.388,1.388,0,0,1-.79-1.35Z" transform="translate(0.989 -81.858)" fill="#f4cccc"/>
    </g>
    <g id="Grupo_69" data-name="Grupo 69" transform="translate(133.343 64.777)">
      <path id="Trazado_721" data-name="Trazado 721" d="M140.14,85.04c-.61-1.85-1.23-3.7-1.83-5.55-.17-.53-.3-1.06-.45-1.6.38-.14.51.18.69.39,2.93,3.4,6.75,4.81,11.12,5.01a11.26,11.26,0,0,0,7.22-2A9.505,9.505,0,0,0,159,79.25c2.68-3.52,6.54-4.08,10.39-2.31A20.766,20.766,0,0,0,175.3,79a11.4,11.4,0,0,0,8.23-1.93,18.725,18.725,0,0,0,5.85-7.12,41.475,41.475,0,0,0,3.42-9.48c.08-.34-.02-.85.55-.92a76.409,76.409,0,0,1-1.2,8.79,107.034,107.034,0,0,1-4.08,15.24c-.07.2-.11.41-.16.61a34,34,0,0,0-6.32,2.59,32.83,32.83,0,0,1-12.19,3.38,60.392,60.392,0,0,1-23.99-2.75,21.077,21.077,0,0,1-5.28-2.38Z" transform="translate(-133.93 -38.33)" fill="#c3ecec"/>
      <path id="Trazado_722" data-name="Trazado 722" d="M193.35,59.55c-.38,1.32-.66,2.66-1.06,3.98a34.568,34.568,0,0,1-4.45,9.63,14.49,14.49,0,0,1-6.17,5.33,12.526,12.526,0,0,1-10.47-.37,18.133,18.133,0,0,0-4.68-1.73,7.279,7.279,0,0,0-7.22,3,10.877,10.877,0,0,1-8.37,4.22,16.807,16.807,0,0,1-8.17-1.66,12.421,12.421,0,0,1-4.89-4.06,86.863,86.863,0,0,1-2.28-9.26,88.151,88.151,0,0,1-1.66-16.92A13.622,13.622,0,0,1,145.41,38.5a14.443,14.443,0,0,1,6.59.59,35.935,35.935,0,0,0,7.91,1.32,47.727,47.727,0,0,0,15.02-1.13,22.543,22.543,0,0,1,5.22-.95A13.535,13.535,0,0,1,193.5,49.54a33.408,33.408,0,0,1,.09,7.07c-.04.98-.16,1.95-.24,2.93Z" transform="translate(-133.93 -38.33)" fill="#fff"/>
      <path id="Trazado_723" data-name="Trazado 723" d="M181.12,71.82c-3.08-.06-3.81-2.22-3.07-4.55.41-1.29,1.63-1.52,2.78-1.62,2.77-.25,4.4,1.53,3.92,4.08-.21,1.12-1.49,1.96-2.99,2.08-.21.02-.42,0-.64,0Z" transform="translate(-133.93 -38.33)" fill="#f1c9c9"/>
      <path id="Trazado_724" data-name="Trazado 724" d="M144.98,71.83c-2.75.03-4.18-1.97-3.32-4.46a2.065,2.065,0,0,1,1.2-1.3,4.886,4.886,0,0,1,3.86-.1,3.231,3.231,0,0,1,1.84,3.16,2.753,2.753,0,0,1-2.06,2.45,3.9,3.9,0,0,1-1.52.25Z" transform="translate(-133.93 -38.33)" fill="#f1c9c9"/>
      <path id="Trazado_726" data-name="Trazado 726" d="M179.66,63.09a1.27,1.27,0,0,1-1.35,1.33,1.33,1.33,0,0,1-.01-2.66,1.289,1.289,0,0,1,1.36,1.33Z" transform="translate(-133.93 -38.33)" fill="#728fa3"/>
      <path id="Trazado_727" data-name="Trazado 727" d="M146.46,63.09a1.167,1.167,0,0,1,1.31-1.33,1.264,1.264,0,0,1,1.32,1.29,1.243,1.243,0,0,1-1.31,1.36,1.171,1.171,0,0,1-1.32-1.32Z" transform="translate(-133.93 -38.33)" fill="#718ea2"/>
      <path id="Trazado_728" data-name="Trazado 728" d="M103.05,67.16a4.877,4.877,0,0,1-.14.92,1.209,1.209,0,0,1-1.28.86,1.011,1.011,0,0,1-.99-.87,4.97,4.97,0,0,1-.21-1.49c.04-.82.44-1.32,1.13-1.39a1.426,1.426,0,0,1,1.41,1.16c.05.26.05.52.08.81Z" transform="translate(-71.836 -36.661)" fill="#d19685"/>
    </g>
    <g id="Grupo_34" data-name="Grupo 34" transform="translate(12.343 64.777)">
      <path id="Trazado_735" data-name="Trazado 735" d="M140.14,85.04c-.61-1.85-1.23-3.7-1.83-5.55-.17-.53-.3-1.06-.45-1.6.38-.14.51.18.69.39,2.93,3.4,6.75,4.81,11.12,5.01a11.26,11.26,0,0,0,7.22-2A9.505,9.505,0,0,0,159,79.25c2.68-3.52,6.54-4.08,10.39-2.31A20.766,20.766,0,0,0,175.3,79a11.4,11.4,0,0,0,8.23-1.93,18.725,18.725,0,0,0,5.85-7.12,41.475,41.475,0,0,0,3.42-9.48c.08-.34-.02-.85.55-.92a76.409,76.409,0,0,1-1.2,8.79,107.034,107.034,0,0,1-4.08,15.24c-.07.2-.11.41-.16.61a34,34,0,0,0-6.32,2.59,32.83,32.83,0,0,1-12.19,3.38,60.392,60.392,0,0,1-23.99-2.75,21.077,21.077,0,0,1-5.28-2.38Z" transform="translate(-133.93 -38.33)" fill="#c3ecec"/>
      <path id="Trazado_734" data-name="Trazado 734" d="M193.35,59.55c-.38,1.32-.66,2.66-1.06,3.98a34.568,34.568,0,0,1-4.45,9.63,14.49,14.49,0,0,1-6.17,5.33,12.526,12.526,0,0,1-10.47-.37,18.133,18.133,0,0,0-4.68-1.73,7.279,7.279,0,0,0-7.22,3,10.877,10.877,0,0,1-8.37,4.22,16.807,16.807,0,0,1-8.17-1.66,12.421,12.421,0,0,1-4.89-4.06,86.863,86.863,0,0,1-2.28-9.26,88.151,88.151,0,0,1-1.66-16.92A13.622,13.622,0,0,1,145.41,38.5a14.443,14.443,0,0,1,6.59.59,35.935,35.935,0,0,0,7.91,1.32,47.727,47.727,0,0,0,15.02-1.13,22.543,22.543,0,0,1,5.22-.95A13.535,13.535,0,0,1,193.5,49.54a33.408,33.408,0,0,1,.09,7.07c-.04.98-.16,1.95-.24,2.93Z" transform="translate(-133.93 -38.33)" fill="#fff"/>
      <path id="Trazado_731" data-name="Trazado 731" d="M181.12,71.82c-3.08-.06-3.81-2.22-3.07-4.55.41-1.29,1.63-1.52,2.78-1.62,2.77-.25,4.4,1.53,3.92,4.08-.21,1.12-1.49,1.96-2.99,2.08-.21.02-.42,0-.64,0Z" transform="translate(-133.93 -38.33)" fill="#f1c9c9"/>
      <path id="Trazado_729" data-name="Trazado 729" d="M144.98,71.83c-2.75.03-4.18-1.97-3.32-4.46a2.065,2.065,0,0,1,1.2-1.3,4.886,4.886,0,0,1,3.86-.1,3.231,3.231,0,0,1,1.84,3.16,2.753,2.753,0,0,1-2.06,2.45,3.9,3.9,0,0,1-1.52.25Z" transform="translate(-133.93 -38.33)" fill="#f1c9c9"/>
      <path id="Trazado_732" data-name="Trazado 732" d="M179.66,63.09a1.27,1.27,0,0,1-1.35,1.33,1.33,1.33,0,0,1-.01-2.66,1.289,1.289,0,0,1,1.36,1.33Z" transform="translate(-133.93 -38.33)" fill="#728fa3"/>
      <path id="Trazado_733" data-name="Trazado 733" d="M146.46,63.09a1.167,1.167,0,0,1,1.31-1.33,1.264,1.264,0,0,1,1.32,1.29,1.243,1.243,0,0,1-1.31,1.36,1.171,1.171,0,0,1-1.32-1.32Z" transform="translate(-133.93 -38.33)" fill="#718ea2"/>
      <path id="Trazado_730" data-name="Trazado 730" d="M103.05,67.16a4.877,4.877,0,0,1-.14.92,1.209,1.209,0,0,1-1.28.86,1.011,1.011,0,0,1-.99-.87,4.97,4.97,0,0,1-.21-1.49c.04-.82.44-1.32,1.13-1.39a1.426,1.426,0,0,1,1.41,1.16c.05.26.05.52.08.81Z" transform="translate(-71.836 -36.661)" fill="#d19685"/>
    </g>
    <g id="Grupo_27" data-name="Grupo 27" transform="translate(95.836 0) rotate(16)">
      <path id="Trazado_744" data-name="Trazado 744" d="M1.945,21.745C1.936,21.737.9,18.589.384,17.01c-.145-.452-.256-.9-.384-1.365.324-.119.435.154.589.333a12.616,12.616,0,0,0,9.486,4.274,9.606,9.606,0,0,0,6.159-1.706,8.109,8.109,0,0,0,1.8-1.74c2.286-3,5.579-3.481,8.864-1.971a17.715,17.715,0,0,0,5.042,1.757,9.727,9.727,0,0,0,7.021-1.646,15.974,15.974,0,0,0,4.991-6.074A35.382,35.382,0,0,0,46.868.785c.068-.29-.017-.725.469-.785a65.182,65.182,0,0,1-1.024,7.5c-.81,4.428-1.655,9.99-3.106,14.247,0,0-1.164,32.975-6.3,31.452-3.68-1.215-11.138-22.481-12.1-25.326-.5-.89-2.736-1.627-4.674-.451-2.112,1.666-6.52,25-11.193,25.777C5.717,54.755,1.936,21.737,1.936,21.737Z" transform="translate(3.353 34.085)" fill="#c3ecec"/>
      <path id="Trazado_745" data-name="Trazado 745" d="M50.69,18.1c-.324,1.126-.563,2.269-.9,3.4a29.49,29.49,0,0,1-3.8,8.215,12.361,12.361,0,0,1-5.264,4.547,10.686,10.686,0,0,1-8.932-.316A15.469,15.469,0,0,0,27.8,32.469a6.209,6.209,0,0,0-6.159,2.559,9.279,9.279,0,0,1-7.14,3.6,14.338,14.338,0,0,1-6.97-1.416,10.6,10.6,0,0,1-4.172-3.464,74.1,74.1,0,0,1-1.945-7.9A75.2,75.2,0,0,1,0,11.414,11.621,11.621,0,0,1,9.793.145a12.321,12.321,0,0,1,5.622.5c2.192.7,5.011,2.12,7.288,2.316,2.236.19,6.428,1.34,8.755.79,1.675-.395,1.486-2.467,3.517-2.944A19.232,19.232,0,0,1,39.43,0,11.547,11.547,0,0,1,50.818,9.563a28.5,28.5,0,0,1,.077,6.031c-.034.836-.136,1.664-.2,2.5Z" transform="translate(0 15.983)" fill="#fff"/>
      <path id="Trazado_746" data-name="Trazado 746" d="M2.909,5.275C.162,5.241-.46,3.2.3,1.181.666.2,1.707.063,2.594.012,4.709-.116,5.9.78,6.023,2.9A2.206,2.206,0,0,1,4.607,4.943,4,4,0,0,1,2.9,5.275Z" transform="translate(7.016 39.784)" fill="#f1c9c9"/>
      <path id="Trazado_747" data-name="Trazado 747" d="M.016,2.581C-.189.457,1.594-.1,3.249.013A2.71,2.71,0,0,1,5.86,3.588a1.927,1.927,0,0,1-.879,1.16A3.793,3.793,0,0,1,.528,4.39a2.244,2.244,0,0,1-.512-1.8Z" transform="translate(38.044 39.765)" fill="#f1c9c9"/>
      <path id="Trazado_748" data-name="Trazado 748" d="M4.126,2.5c0,.589-.026,1.169-.7,1.4a1.214,1.214,0,0,1-1.28-.222,1.168,1.168,0,0,1-.222-1.331A.937.937,0,0,1,2.94,1.7c.555.017.427-.222.222-.512A1.453,1.453,0,0,0,2.053.612a3.959,3.959,0,0,0-1.476.2C.356.877.1.962.014.646-.062.382.185.305.373.245a4.287,4.287,0,0,1,1.6-.239A2.192,2.192,0,0,1,4.118,2.48Z" transform="translate(35.469 34.764)" fill="#718ea2"/>
      <path id="Trazado_749" data-name="Trazado 749" d="M3.178,1.829A1.455,1.455,0,0,0,1.839.643,4.388,4.388,0,0,0,.423.72C.227.763.048.72.005.49c-.034-.2.111-.3.273-.333A3.064,3.064,0,0,1,3.059.532a2.522,2.522,0,0,1,.768,2.534A1.068,1.068,0,0,1,2.5,4.1c-.7-.085-.99-.469-.938-1.228.043-.725.384-1,1.228-1.024.111,0,.222-.009.384-.017Z" transform="translate(9.69 34.622)" fill="#728fa3"/>
      <path id="Trazado_750" data-name="Trazado 750" d="M1.383.009H2.467c.136,0,.282.051.29.222a.264.264,0,0,1-.29.3C1.742.537,1.025.537.3.529A.27.27,0,0,1,0,.23C.027.034.2,0,.36,0H1.375Z" transform="translate(23.343 40.529)" fill="#d49e8e"/>
      <path id="Trazado_751" data-name="Trazado 751" d="M19.738,1.474a10.376,10.376,0,0,0-3.02,1.484c-3.242,1.885-6.347,3.984-9.452,6.082a3.323,3.323,0,0,0-1.288,1.672,59.378,59.378,0,0,0-2.03,6.808c-.154.623-.307,1.16-1.066,1.211-.947.051-1.9.094-2.849.145,0-1.715-.085-3.438.026-5.153.085-1.382.085-2.755.094-4.137A.858.858,0,0,1,.569,8.87Q4.024,6.2,7.479,3.513c1.322-1.024,2.687-2,3.933-3.105C12.145-.241,12.9.058,13.6.143a44.615,44.615,0,0,1,5.972,1.211.646.646,0,0,1,.171.111Z" transform="translate(22.73 0)" fill="#cbdedd"/>
      <path id="Trazado_752" data-name="Trazado 752" d="M21.064.47C21.61.334,22.156.2,22.693.043c.239-.068.444-.085.58.171a1.293,1.293,0,0,1,0,1.527,1.518,1.518,0,0,0,.077,1.587,2.4,2.4,0,0,1-.435,3.1c-.776.8-.657.751-.222,1.544a1.673,1.673,0,0,1-.759,2.517,2.529,2.529,0,0,0-1.271,1.339,3.228,3.228,0,0,1-4.376,1.467,2.11,2.11,0,0,0-2.423.128,4.823,4.823,0,0,1-3.242.759,2.213,2.213,0,0,1-1.646-.836,1.434,1.434,0,0,0-1.868-.495,2.512,2.512,0,0,1-2.943-.469,7.606,7.606,0,0,0-1.143-.725A2.861,2.861,0,0,1,1.537,8.933,4.487,4.487,0,0,0,.769,6.049,3.134,3.134,0,0,1,.5,3.678c.06-.358.188-.7.264-1.058A1.811,1.811,0,0,0,.274.811C.146.692-.016.581,0,.368.266.052.547.265.812.351A19.168,19.168,0,0,0,4.8,1.144c2.96,1.8,5.682.665,9.068.6,2.593-.051,5.519.87,7.217-1.28Z" transform="translate(13.644 15.982)" fill="#9b9d9f"/>
      <path id="Trazado_753" data-name="Trazado 753" d="M5.708,18.14a53.418,53.418,0,0,0-2.892,4.726,7.606,7.606,0,0,1-1.4,1.809.973.973,0,0,1-1.032.341c-.435-.162-.392-.563-.375-.921a21.508,21.508,0,0,1,.64-3.446c.179-.887.358-1.766.606-2.636.162-.58-.026-.751-.563-.691a.216.216,0,0,1,.136-.273c.486-.171.563-.606.674-1.024.58-2.209,1.177-4.419,1.962-6.569A4.181,4.181,0,0,1,5.111,7.3C8.592,4.968,12.055,2.605,15.724.575c.563-.307,1.109-.725,1.826-.52,3.105,1.425,6.176,2.909,9.154,4.59.171.094.427.162.384.409-.034.2-.29.2-.452.247-3.046,1.024-6.091,2.03-9.137,3.054-2.252.759-4.5,1.527-6.748,2.286a1.366,1.366,0,0,0-.81.563q-2.035,3.289-4.086,6.56a1.86,1.86,0,0,0-.136.384Z" transform="translate(24.927 1.42)" fill="#e3eae8"/>
    </g>
  </g>
</svg>
