<svg id="Grupo_122" data-name="Grupo 122" xmlns="http://www.w3.org/2000/svg" width="207" height="207" viewBox="0 0 207 207">
  <circle id="Elipse_11" data-name="Elipse 11" cx="103.5" cy="103.5" r="103.5" fill="#1a3b6d"/>
  <g id="Grupo_71" data-name="Grupo 71" transform="translate(1.076 78.446)">
    <g id="Grupo_42" data-name="Grupo 42" transform="translate(0 41.452)">
      <path id="Trazado_300" data-name="Trazado 300" d="M188.93,83.94c4.36-.52,7.91,1.25,10.95,4.11a14.947,14.947,0,0,1,4.82,10.68,53.1,53.1,0,0,1-.02,8.27,20.246,20.246,0,0,1-7.67,13.75,20.655,20.655,0,0,1-13.36,4.59H21.14A20.859,20.859,0,0,1,.7,109.93a15.658,15.658,0,0,1-.65-4.08c-.03-2.44-.07-4.89,0-7.33A15.793,15.793,0,0,1,13.7,83.76c1.14-.13,2.28-.12,3.42-.14.23-.18.49-.09.74-.09a5.978,5.978,0,0,1,3.48,1.6,18.9,18.9,0,0,0,8.02,4.05,46.771,46.771,0,0,0,11,1.47A41.494,41.494,0,0,0,52.77,89.2a30.06,30.06,0,0,0,9.88-4.65,18.3,18.3,0,0,1,3.71-2.15,6.747,6.747,0,0,0,1.31-.52,14.347,14.347,0,0,1,8.55-.4,3.355,3.355,0,0,1,1.09.45,4.872,4.872,0,0,0,.95.39c1.68.85,3.17,2.03,4.82,2.95a42.689,42.689,0,0,0,16.34,5.22c8.74.94,16.65-1.34,23.96-6.04a17.207,17.207,0,0,1,3.78-1.85,8.348,8.348,0,0,1,1.22-.09,15.178,15.178,0,0,1,6.47-.02,15.815,15.815,0,0,1,4.35,1.92c.47,0,.81.34,1.24.46a38.658,38.658,0,0,0,11.86,4,76.291,76.291,0,0,0,9.78,1.15,42.717,42.717,0,0,0,14.54-1.59,32.034,32.034,0,0,0,5.87-2.44,22.117,22.117,0,0,1,5.34-2.03c.38-.19.76.12,1.14,0Z" transform="translate(-0.011 -81.015)" fill="#eb9f9e"/>
      <path id="Trazado_301" data-name="Trazado 301" d="M183.47,89.64a1.36,1.36,0,0,1,.96-1.4,13.964,13.964,0,0,1,3.37-.89,11.594,11.594,0,0,1,7.39,1.08,10.8,10.8,0,0,1,3.57,3.22,1.475,1.475,0,0,1-.21,2.13,1.4,1.4,0,0,1-2.09-.3,12.367,12.367,0,0,0-1.7-1.77,8.316,8.316,0,0,0-6.95-1.34,15.229,15.229,0,0,0-2.29.63,1.451,1.451,0,0,1-2.05-1.36Z" transform="translate(0.989 -81.858)" fill="#f4cccc"/>
      <path id="Trazado_302" data-name="Trazado 302" d="M46.73,97.16c-.32,0-.64.02-.95,0a1.478,1.478,0,0,1-1.41-1.36,1.507,1.507,0,0,1,1.32-1.52c1.52-.24,3.06-.15,4.58-.43a11.963,11.963,0,0,0,4.21-1.36,1.482,1.482,0,0,1,2.06.55A1.442,1.442,0,0,1,56,95.03a12.926,12.926,0,0,1-5.39,1.78c-1.28.19-2.57.28-3.86.41v-.06Z" transform="translate(0.989 -81.858)" fill="#f4cccc"/>
      <path id="Trazado_303" data-name="Trazado 303" d="M131.3,86.17c3.21.19,6.2.63,8.79,2.51a1.632,1.632,0,0,1,.8,1.54,1.471,1.471,0,0,1-1.06,1.27,1.39,1.39,0,0,1-1.35-.27,11.931,11.931,0,0,0-6.82-2.02h-.24c-1.22,0-1.9-.53-1.9-1.45a1.624,1.624,0,0,1,1.78-1.57Z" transform="translate(0.989 -81.858)" fill="#f4cccc"/>
      <path id="Trazado_304" data-name="Trazado 304" d="M21.48,119.29h1.91a1.465,1.465,0,0,1,1.52,1.4,1.451,1.451,0,0,1-1.46,1.47q-1.95.045-3.9,0a1.436,1.436,0,1,1,.02-2.87c.64-.01,1.27,0,1.91,0Z" transform="translate(0.989 -81.858)" fill="#f4cccb"/>
      <path id="Trazado_305" data-name="Trazado 305" d="M143.47,92.39a1.4,1.4,0,0,1,2.1-1.31,12.505,12.505,0,0,0,2.85.99,1.505,1.505,0,1,1-.65,2.93,12.9,12.9,0,0,1-3.51-1.25,1.388,1.388,0,0,1-.79-1.35Z" transform="translate(0.989 -81.858)" fill="#f4cccc"/>
    </g>
    <g id="Grupo_43" data-name="Grupo 43" transform="translate(9.343)">
      <path id="Trazado_735" data-name="Trazado 735" d="M140.14,85.04c-.61-1.85-1.23-3.7-1.83-5.55-.17-.53-.3-1.06-.45-1.6.38-.14.51.18.69.39,2.93,3.4,6.75,4.81,11.12,5.01a11.26,11.26,0,0,0,7.22-2A9.505,9.505,0,0,0,159,79.25c2.68-3.52,6.54-4.08,10.39-2.31A20.766,20.766,0,0,0,175.3,79a11.4,11.4,0,0,0,8.23-1.93,18.725,18.725,0,0,0,5.85-7.12,41.475,41.475,0,0,0,3.42-9.48c.08-.34-.02-.85.55-.92a76.409,76.409,0,0,1-1.2,8.79,107.034,107.034,0,0,1-4.08,15.24c-.07.2-.11.41-.16.61a34,34,0,0,0-6.32,2.59,32.83,32.83,0,0,1-12.19,3.38,60.392,60.392,0,0,1-23.99-2.75,21.077,21.077,0,0,1-5.28-2.38Z" transform="translate(-133.93 -38.33)" fill="#c3ecec"/>
      <path id="Trazado_734" data-name="Trazado 734" d="M193.35,59.55c-.38,1.32-.66,2.66-1.06,3.98a34.568,34.568,0,0,1-4.45,9.63,14.49,14.49,0,0,1-6.17,5.33,12.526,12.526,0,0,1-10.47-.37,18.133,18.133,0,0,0-4.68-1.73,7.279,7.279,0,0,0-7.22,3,10.877,10.877,0,0,1-8.37,4.22,16.807,16.807,0,0,1-8.17-1.66,12.421,12.421,0,0,1-4.89-4.06,86.863,86.863,0,0,1-2.28-9.26,88.151,88.151,0,0,1-1.66-16.92A13.622,13.622,0,0,1,145.41,38.5a14.443,14.443,0,0,1,6.59.59,35.935,35.935,0,0,0,7.91,1.32,47.727,47.727,0,0,0,15.02-1.13,22.543,22.543,0,0,1,5.22-.95A13.535,13.535,0,0,1,193.5,49.54a33.408,33.408,0,0,1,.09,7.07c-.04.98-.16,1.95-.24,2.93Z" transform="translate(-133.93 -38.33)" fill="#fff"/>
      <path id="Trazado_731" data-name="Trazado 731" d="M181.12,71.82c-3.08-.06-3.81-2.22-3.07-4.55.41-1.29,1.63-1.52,2.78-1.62,2.77-.25,4.4,1.53,3.92,4.08-.21,1.12-1.49,1.96-2.99,2.08-.21.02-.42,0-.64,0Z" transform="translate(-133.93 -38.33)" fill="#f1c9c9"/>
      <path id="Trazado_729" data-name="Trazado 729" d="M144.98,71.83c-2.75.03-4.18-1.97-3.32-4.46a2.065,2.065,0,0,1,1.2-1.3,4.886,4.886,0,0,1,3.86-.1,3.231,3.231,0,0,1,1.84,3.16,2.753,2.753,0,0,1-2.06,2.45,3.9,3.9,0,0,1-1.52.25Z" transform="translate(-133.93 -38.33)" fill="#f1c9c9"/>
      <path id="Trazado_732" data-name="Trazado 732" d="M179.66,63.09a1.27,1.27,0,0,1-1.35,1.33,1.33,1.33,0,0,1-.01-2.66,1.289,1.289,0,0,1,1.36,1.33Z" transform="translate(-133.93 -38.33)" fill="#728fa3"/>
      <path id="Trazado_733" data-name="Trazado 733" d="M146.46,63.09a1.167,1.167,0,0,1,1.31-1.33,1.264,1.264,0,0,1,1.32,1.29,1.243,1.243,0,0,1-1.31,1.36,1.171,1.171,0,0,1-1.32-1.32Z" transform="translate(-133.93 -38.33)" fill="#718ea2"/>
      <path id="Trazado_730" data-name="Trazado 730" d="M103.05,67.16a4.877,4.877,0,0,1-.14.92,1.209,1.209,0,0,1-1.28.86,1.011,1.011,0,0,1-.99-.87,4.97,4.97,0,0,1-.21-1.49c.04-.82.44-1.32,1.13-1.39a1.426,1.426,0,0,1,1.41,1.16c.05.26.05.52.08.81Z" transform="translate(-71.836 -36.661)" fill="#d19685"/>
    </g>
    <g id="Grupo_44" data-name="Grupo 44" transform="translate(134.149)">
      <path id="Trazado_735-2" data-name="Trazado 735" d="M140.14,85.04c-.61-1.85-1.23-3.7-1.83-5.55-.17-.53-.3-1.06-.45-1.6.38-.14.51.18.69.39,2.93,3.4,6.75,4.81,11.12,5.01a11.26,11.26,0,0,0,7.22-2A9.505,9.505,0,0,0,159,79.25c2.68-3.52,6.54-4.08,10.39-2.31A20.766,20.766,0,0,0,175.3,79a11.4,11.4,0,0,0,8.23-1.93,18.725,18.725,0,0,0,5.85-7.12,41.475,41.475,0,0,0,3.42-9.48c.08-.34-.02-.85.55-.92a76.409,76.409,0,0,1-1.2,8.79,107.034,107.034,0,0,1-4.08,15.24c-.07.2-.11.41-.16.61a34,34,0,0,0-6.32,2.59,32.83,32.83,0,0,1-12.19,3.38,60.392,60.392,0,0,1-23.99-2.75,21.077,21.077,0,0,1-5.28-2.38Z" transform="translate(-133.93 -38.33)" fill="#c3ecec"/>
      <path id="Trazado_734-2" data-name="Trazado 734" d="M193.35,59.55c-.38,1.32-.66,2.66-1.06,3.98a34.568,34.568,0,0,1-4.45,9.63,14.49,14.49,0,0,1-6.17,5.33,12.526,12.526,0,0,1-10.47-.37,18.133,18.133,0,0,0-4.68-1.73,7.279,7.279,0,0,0-7.22,3,10.877,10.877,0,0,1-8.37,4.22,16.807,16.807,0,0,1-8.17-1.66,12.421,12.421,0,0,1-4.89-4.06,86.863,86.863,0,0,1-2.28-9.26,88.151,88.151,0,0,1-1.66-16.92A13.622,13.622,0,0,1,145.41,38.5a14.443,14.443,0,0,1,6.59.59,35.935,35.935,0,0,0,7.91,1.32,47.727,47.727,0,0,0,15.02-1.13,22.543,22.543,0,0,1,5.22-.95A13.535,13.535,0,0,1,193.5,49.54a33.408,33.408,0,0,1,.09,7.07c-.04.98-.16,1.95-.24,2.93Z" transform="translate(-133.93 -38.33)" fill="#fff"/>
      <path id="Trazado_731-2" data-name="Trazado 731" d="M181.12,71.82c-3.08-.06-3.81-2.22-3.07-4.55.41-1.29,1.63-1.52,2.78-1.62,2.77-.25,4.4,1.53,3.92,4.08-.21,1.12-1.49,1.96-2.99,2.08-.21.02-.42,0-.64,0Z" transform="translate(-133.93 -38.33)" fill="#f1c9c9"/>
      <path id="Trazado_729-2" data-name="Trazado 729" d="M144.98,71.83c-2.75.03-4.18-1.97-3.32-4.46a2.065,2.065,0,0,1,1.2-1.3,4.886,4.886,0,0,1,3.86-.1,3.231,3.231,0,0,1,1.84,3.16,2.753,2.753,0,0,1-2.06,2.45,3.9,3.9,0,0,1-1.52.25Z" transform="translate(-133.93 -38.33)" fill="#f1c9c9"/>
      <path id="Trazado_732-2" data-name="Trazado 732" d="M179.66,63.09a1.27,1.27,0,0,1-1.35,1.33,1.33,1.33,0,0,1-.01-2.66,1.289,1.289,0,0,1,1.36,1.33Z" transform="translate(-133.93 -38.33)" fill="#728fa3"/>
      <path id="Trazado_733-2" data-name="Trazado 733" d="M146.46,63.09a1.167,1.167,0,0,1,1.31-1.33,1.264,1.264,0,0,1,1.32,1.29,1.243,1.243,0,0,1-1.31,1.36,1.171,1.171,0,0,1-1.32-1.32Z" transform="translate(-133.93 -38.33)" fill="#718ea2"/>
      <path id="Trazado_730-2" data-name="Trazado 730" d="M103.05,67.16a4.877,4.877,0,0,1-.14.92,1.209,1.209,0,0,1-1.28.86,1.011,1.011,0,0,1-.99-.87,4.97,4.97,0,0,1-.21-1.49c.04-.82.44-1.32,1.13-1.39a1.426,1.426,0,0,1,1.41,1.16c.05.26.05.52.08.81Z" transform="translate(-71.836 -36.661)" fill="#d19685"/>
    </g>
    <g id="Grupo_59" data-name="Grupo 59" transform="translate(72.521)">
      <g id="Grupo_45" data-name="Grupo 45">
        <path id="Trazado_332" data-name="Trazado 332" d="M140.14,85.04c-.01-.01-1.23-3.7-1.83-5.55-.17-.53-.3-1.06-.45-1.6.38-.14.51.18.69.39,2.93,3.4,6.75,4.81,11.12,5.01a11.26,11.26,0,0,0,7.22-2A9.505,9.505,0,0,0,159,79.25c2.68-3.52,6.54-4.08,10.39-2.31A20.766,20.766,0,0,0,175.3,79a11.4,11.4,0,0,0,8.23-1.93,18.725,18.725,0,0,0,5.85-7.12,41.475,41.475,0,0,0,3.42-9.48c.08-.34-.02-.85.55-.92a76.409,76.409,0,0,1-1.2,8.79c-.95,5.19-1.94,11.71-3.64,16.7,0,0-1.364,38.654-7.383,36.869-4.313-1.425-13.056-26.353-14.184-29.688-.584-1.043-3.208-1.907-5.479-.528-2.476,1.953-7.643,29.3-13.121,30.216-3.782,1.826-8.213-36.879-8.213-36.879Z" transform="translate(-133.93 -38.33)" fill="#c3ecec" stroke="#fc3131" stroke-width="1"/>
        <path id="Trazado_333" data-name="Trazado 333" d="M193.35,59.55c-.38,1.32-.66,2.66-1.06,3.98a34.568,34.568,0,0,1-4.45,9.63,14.49,14.49,0,0,1-6.17,5.33,12.526,12.526,0,0,1-10.47-.37,18.133,18.133,0,0,0-4.68-1.73,7.279,7.279,0,0,0-7.22,3,10.877,10.877,0,0,1-8.37,4.22,16.807,16.807,0,0,1-8.17-1.66,12.421,12.421,0,0,1-4.89-4.06,86.863,86.863,0,0,1-2.28-9.26,88.151,88.151,0,0,1-1.66-16.92A13.622,13.622,0,0,1,145.41,38.5a14.443,14.443,0,0,1,6.59.59,35.935,35.935,0,0,0,7.91,1.32,47.727,47.727,0,0,0,15.02-1.13,22.543,22.543,0,0,1,5.22-.95A13.535,13.535,0,0,1,193.5,49.54a33.408,33.408,0,0,1,.09,7.07c-.04.98-.16,1.95-.24,2.93Z" transform="translate(-133.93 -38.33)" fill="#fff"/>
      </g>
      <path id="Trazado_806" data-name="Trazado 806" d="M181.12,71.82c-3.08-.06-3.81-2.22-3.07-4.55.41-1.29,1.63-1.52,2.78-1.62,2.77-.25,4.4,1.53,3.92,4.08-.21,1.12-1.49,1.96-2.99,2.08-.21.02-.42,0-.64,0Z" transform="translate(-133.219 -38.33)" fill="#f1c9c9"/>
      <path id="Trazado_807" data-name="Trazado 807" d="M144.98,71.83c-2.75.03-4.18-1.97-3.32-4.46a2.065,2.065,0,0,1,1.2-1.3,4.886,4.886,0,0,1,3.86-.1,3.231,3.231,0,0,1,1.84,3.16,2.753,2.753,0,0,1-2.06,2.45,3.9,3.9,0,0,1-1.52.25Z" transform="translate(-133.219 -38.33)" fill="#f1c9c9"/>
      <path id="Trazado_808" data-name="Trazado 808" d="M179.66,63.09a1.27,1.27,0,0,1-1.35,1.33,1.33,1.33,0,0,1-.01-2.66,1.289,1.289,0,0,1,1.36,1.33Z" transform="translate(-133.219 -38.33)" fill="#728fa3"/>
      <path id="Trazado_809" data-name="Trazado 809" d="M146.46,63.09a1.167,1.167,0,0,1,1.31-1.33,1.264,1.264,0,0,1,1.32,1.29,1.243,1.243,0,0,1-1.31,1.36,1.171,1.171,0,0,1-1.32-1.32Z" transform="translate(-133.219 -38.33)" fill="#718ea2"/>
      <path id="Trazado_810" data-name="Trazado 810" d="M103.05,67.16a4.877,4.877,0,0,1-.14.92,1.209,1.209,0,0,1-1.28.86,1.011,1.011,0,0,1-.99-.87,4.97,4.97,0,0,1-.21-1.49c.04-.82.44-1.32,1.13-1.39a1.426,1.426,0,0,1,1.41,1.16c.05.26.05.52.08.81Z" transform="translate(-71.125 -36.661)" fill="#d19685"/>
    </g>
  </g>
</svg>
