<svg xmlns="http://www.w3.org/2000/svg" xmlns:xlink="http://www.w3.org/1999/xlink" width="207" height="207" viewBox="0 0 207 207">
  <defs>
    <clipPath id="clip-path">
      <rect id="Rectángulo_31" data-name="Rectángulo 31" width="63.059" height="73.11" fill="none"/>
    </clipPath>
  </defs>
  <g id="Grupo_125" data-name="Grupo 125" transform="translate(-576.424 -2096)">
    <circle id="Elipse_14" data-name="Elipse 14" cx="103.5" cy="103.5" r="103.5" transform="translate(576.424 2096)" fill="#1a3b6d"/>
    <g id="Grupo_74" data-name="Grupo 74" transform="translate(-484.076 -206.792)">
      <g id="Grupo_16" data-name="Grupo 16" transform="translate(604.576 457.344)">
        <path id="Trazado_300" data-name="Trazado 300" d="M188.93,83.94c4.36-.52,7.91,1.25,10.95,4.11a14.947,14.947,0,0,1,4.82,10.68,53.1,53.1,0,0,1-.02,8.27,20.246,20.246,0,0,1-7.67,13.75,20.655,20.655,0,0,1-13.36,4.59H21.14A20.859,20.859,0,0,1,.7,109.93a15.658,15.658,0,0,1-.65-4.08c-.03-2.44-.07-4.89,0-7.33A15.793,15.793,0,0,1,13.7,83.76c1.14-.13,2.28-.12,3.42-.14.23-.18.49-.09.74-.09a5.978,5.978,0,0,1,3.48,1.6,18.9,18.9,0,0,0,8.02,4.05,46.771,46.771,0,0,0,11,1.47A41.494,41.494,0,0,0,52.77,89.2a30.06,30.06,0,0,0,9.88-4.65,18.3,18.3,0,0,1,3.71-2.15,6.747,6.747,0,0,0,1.31-.52,14.347,14.347,0,0,1,8.55-.4,3.355,3.355,0,0,1,1.09.45,4.872,4.872,0,0,0,.95.39c1.68.85,3.17,2.03,4.82,2.95a42.689,42.689,0,0,0,16.34,5.22c8.74.94,16.65-1.34,23.96-6.04a17.207,17.207,0,0,1,3.78-1.85,8.348,8.348,0,0,1,1.22-.09,15.178,15.178,0,0,1,6.47-.02,15.815,15.815,0,0,1,4.35,1.92c.47,0,.81.34,1.24.46a38.658,38.658,0,0,0,11.86,4,76.291,76.291,0,0,0,9.78,1.15,42.717,42.717,0,0,0,14.54-1.59,32.034,32.034,0,0,0,5.87-2.44,22.117,22.117,0,0,1,5.34-2.03c.38-.19.76.12,1.14,0Z" transform="translate(456.989 1884.339)" fill="#eb9f9e"/>
        <path id="Trazado_301" data-name="Trazado 301" d="M183.47,89.64a1.36,1.36,0,0,1,.96-1.4,13.964,13.964,0,0,1,3.37-.89,11.594,11.594,0,0,1,7.39,1.08,10.8,10.8,0,0,1,3.57,3.22,1.475,1.475,0,0,1-.21,2.13,1.4,1.4,0,0,1-2.09-.3,12.367,12.367,0,0,0-1.7-1.77,8.316,8.316,0,0,0-6.95-1.34,15.229,15.229,0,0,0-2.29.63,1.451,1.451,0,0,1-2.05-1.36Z" transform="translate(457.989 1883.496)" fill="#f4cccc"/>
        <path id="Trazado_302" data-name="Trazado 302" d="M46.73,97.16c-.32,0-.64.02-.95,0a1.478,1.478,0,0,1-1.41-1.36,1.507,1.507,0,0,1,1.32-1.52c1.52-.24,3.06-.15,4.58-.43a11.963,11.963,0,0,0,4.21-1.36,1.482,1.482,0,0,1,2.06.55A1.442,1.442,0,0,1,56,95.03a12.926,12.926,0,0,1-5.39,1.78c-1.28.19-2.57.28-3.86.41v-.06Z" transform="translate(457.989 1883.496)" fill="#f4cccc"/>
        <path id="Trazado_303" data-name="Trazado 303" d="M131.3,86.17c3.21.19,6.2.63,8.79,2.51a1.632,1.632,0,0,1,.8,1.54,1.471,1.471,0,0,1-1.06,1.27,1.39,1.39,0,0,1-1.35-.27,11.931,11.931,0,0,0-6.82-2.02h-.24c-1.22,0-1.9-.53-1.9-1.45a1.624,1.624,0,0,1,1.78-1.57Z" transform="translate(457.989 1883.496)" fill="#f4cccc"/>
        <path id="Trazado_304" data-name="Trazado 304" d="M21.48,119.29h1.91a1.465,1.465,0,0,1,1.52,1.4,1.451,1.451,0,0,1-1.46,1.47q-1.95.045-3.9,0a1.436,1.436,0,1,1,.02-2.87c.64-.01,1.27,0,1.91,0Z" transform="translate(457.989 1883.496)" fill="#f4cccb"/>
        <path id="Trazado_305" data-name="Trazado 305" d="M143.47,92.39a1.4,1.4,0,0,1,2.1-1.31,12.505,12.505,0,0,0,2.85.99,1.505,1.505,0,1,1-.65,2.93,12.9,12.9,0,0,1-3.51-1.25,1.388,1.388,0,0,1-.79-1.35Z" transform="translate(457.989 1883.496)" fill="#f4cccc"/>
      </g>
      <g id="Grupo_63" data-name="Grupo 63" transform="translate(-0.071 1)">
        <path id="Trazado_310" data-name="Trazado 310" d="M140.14,85.04c-.61-1.85-1.23-3.7-1.83-5.55-.17-.53-.3-1.06-.45-1.6.38-.14.51.18.69.39,2.93,3.4,6.75,4.81,11.12,5.01a11.26,11.26,0,0,0,7.22-2A9.505,9.505,0,0,0,159,79.25c2.68-3.52,6.54-4.08,10.39-2.31A20.766,20.766,0,0,0,175.3,79a11.4,11.4,0,0,0,8.23-1.93,18.725,18.725,0,0,0,5.85-7.12,41.475,41.475,0,0,0,3.42-9.48c.08-.34-.02-.85.55-.92a76.409,76.409,0,0,1-1.2,8.79,107.034,107.034,0,0,1-4.08,15.24c-.07.2-.11.41-.16.61a34,34,0,0,0-6.32,2.59,32.83,32.83,0,0,1-12.19,3.38,60.392,60.392,0,0,1-23.99-2.75,21.077,21.077,0,0,1-5.28-2.38Z" transform="translate(1061.565 2340.683)" fill="#c3ecec"/>
        <path id="Trazado_313" data-name="Trazado 313" d="M193.35,59.55c-.38,1.32-.66,2.66-1.06,3.98a34.568,34.568,0,0,1-4.45,9.63,14.49,14.49,0,0,1-6.17,5.33,12.526,12.526,0,0,1-10.47-.37,18.133,18.133,0,0,0-4.68-1.73,7.279,7.279,0,0,0-7.22,3,10.877,10.877,0,0,1-8.37,4.22,16.807,16.807,0,0,1-8.17-1.66,12.421,12.421,0,0,1-4.89-4.06,86.863,86.863,0,0,1-2.28-9.26,88.151,88.151,0,0,1-1.66-16.92A13.622,13.622,0,0,1,145.41,38.5a14.443,14.443,0,0,1,6.59.59,35.935,35.935,0,0,0,7.91,1.32,47.727,47.727,0,0,0,15.02-1.13,22.543,22.543,0,0,1,5.22-.95A13.535,13.535,0,0,1,193.5,49.54a33.408,33.408,0,0,1,.09,7.07c-.04.98-.16,1.95-.24,2.93Z" transform="translate(1061.565 2340.683)" fill="#fff"/>
        <path id="Trazado_315" data-name="Trazado 315" d="M181.12,71.82c-3.08-.06-3.81-2.22-3.07-4.55.41-1.29,1.63-1.52,2.78-1.62,2.77-.25,4.4,1.53,3.92,4.08-.21,1.12-1.49,1.96-2.99,2.08-.21.02-.42,0-.64,0Z" transform="translate(1061.565 2340.683)" fill="#f1c9c9"/>
        <path id="Trazado_316" data-name="Trazado 316" d="M144.98,71.83c-2.75.03-4.18-1.97-3.32-4.46a2.065,2.065,0,0,1,1.2-1.3,4.886,4.886,0,0,1,3.86-.1,3.231,3.231,0,0,1,1.84,3.16,2.753,2.753,0,0,1-2.06,2.45,3.9,3.9,0,0,1-1.52.25Z" transform="translate(1061.565 2340.683)" fill="#f1c9c9"/>
        <path id="Trazado_317" data-name="Trazado 317" d="M162.44,66.42a10.274,10.274,0,0,0,1.11,0c.76-.1.88.27.83.93-.14,1.75-1.02,2.66-2.44,2.44-1.19-.19-2.08-2.28-1.36-3.2.14-.18.33-.15.51-.15h1.35Z" transform="translate(1061.565 2340.683)" fill="#d09685"/>
        <path id="Trazado_318" data-name="Trazado 318" d="M179.66,63.09a1.27,1.27,0,0,1-1.35,1.33,1.33,1.33,0,0,1-.01-2.66,1.289,1.289,0,0,1,1.36,1.33Z" transform="translate(1061.565 2340.683)" fill="#728fa3"/>
        <path id="Trazado_319" data-name="Trazado 319" d="M146.46,63.09a1.167,1.167,0,0,1,1.31-1.33,1.264,1.264,0,0,1,1.32,1.29,1.243,1.243,0,0,1-1.31,1.36,1.171,1.171,0,0,1-1.32-1.32Z" transform="translate(1061.565 2340.683)" fill="#718ea2"/>
      </g>
      <g id="Grupo_61" data-name="Grupo 61" transform="translate(-0.071 1.639)">
        <path id="Trazado_330" data-name="Trazado 330" d="M140.14,85.04c-.61-1.85-1.23-3.7-1.83-5.55-.17-.53-.3-1.06-.45-1.6.38-.14.51.18.69.39,2.93,3.4,6.75,4.81,11.12,5.01a11.26,11.26,0,0,0,7.22-2A9.505,9.505,0,0,0,159,79.25c2.68-3.52,6.54-4.08,10.39-2.31A20.766,20.766,0,0,0,175.3,79a11.4,11.4,0,0,0,8.23-1.93,18.725,18.725,0,0,0,5.85-7.12,41.475,41.475,0,0,0,3.42-9.48c.08-.34-.02-.85.55-.92a76.409,76.409,0,0,1-1.2,8.79,107.034,107.034,0,0,1-4.08,15.24c-.07.2-.11.41-.16.61a34,34,0,0,0-6.32,2.59,32.83,32.83,0,0,1-12.19,3.38,60.392,60.392,0,0,1-23.99-2.75,21.077,21.077,0,0,1-5.28-2.38Z" transform="translate(938.91 2340.683)" fill="#c3ecec"/>
        <path id="Trazado_331" data-name="Trazado 331" d="M193.35,59.55c-.38,1.32-.66,2.66-1.06,3.98a34.568,34.568,0,0,1-4.45,9.63,14.49,14.49,0,0,1-6.17,5.33,12.526,12.526,0,0,1-10.47-.37,18.133,18.133,0,0,0-4.68-1.73,7.279,7.279,0,0,0-7.22,3,10.877,10.877,0,0,1-8.37,4.22,16.807,16.807,0,0,1-8.17-1.66,12.421,12.421,0,0,1-4.89-4.06,86.863,86.863,0,0,1-2.28-9.26,88.151,88.151,0,0,1-1.66-16.92A13.622,13.622,0,0,1,145.41,38.5a14.443,14.443,0,0,1,6.59.59,35.935,35.935,0,0,0,7.91,1.32,47.727,47.727,0,0,0,15.02-1.13,22.543,22.543,0,0,1,5.22-.95A13.535,13.535,0,0,1,193.5,49.54a33.408,33.408,0,0,1,.09,7.07c-.04.98-.16,1.95-.24,2.93Z" transform="translate(938.91 2340.683)" fill="#fff"/>
        <path id="Trazado_329" data-name="Trazado 329" d="M181.12,71.82c-3.08-.06-3.81-2.22-3.07-4.55.41-1.29,1.63-1.52,2.78-1.62,2.77-.25,4.4,1.53,3.92,4.08-.21,1.12-1.49,1.96-2.99,2.08-.21.02-.42,0-.64,0Z" transform="translate(938.91 2340.683)" fill="#f1c9c9"/>
        <path id="Trazado_325" data-name="Trazado 325" d="M144.98,71.83c-2.75.03-4.18-1.97-3.32-4.46a2.065,2.065,0,0,1,1.2-1.3,4.886,4.886,0,0,1,3.86-.1,3.231,3.231,0,0,1,1.84,3.16,2.753,2.753,0,0,1-2.06,2.45,3.9,3.9,0,0,1-1.52.25Z" transform="translate(938.91 2340.683)" fill="#f1c9c9"/>
        <path id="Trazado_327" data-name="Trazado 327" d="M162.44,66.42a10.274,10.274,0,0,0,1.11,0c.76-.1.88.27.83.93-.14,1.75-1.02,2.66-2.44,2.44-1.19-.19-2.08-2.28-1.36-3.2.14-.18.33-.15.51-.15h1.35Z" transform="translate(938.91 2340.683)" fill="#d09685"/>
        <path id="Trazado_328" data-name="Trazado 328" d="M179.66,63.09a1.27,1.27,0,0,1-1.35,1.33,1.33,1.33,0,0,1-.01-2.66,1.289,1.289,0,0,1,1.36,1.33Z" transform="translate(938.91 2340.683)" fill="#728fa3"/>
        <path id="Trazado_326" data-name="Trazado 326" d="M146.46,63.09a1.167,1.167,0,0,1,1.31-1.33,1.264,1.264,0,0,1,1.32,1.29,1.243,1.243,0,0,1-1.31,1.36,1.171,1.171,0,0,1-1.32-1.32Z" transform="translate(938.91 2340.683)" fill="#718ea2"/>
      </g>
      <g id="Grupo_73" data-name="Grupo 73">
        <g id="Grupo_62" data-name="Grupo 62" transform="translate(-0.071 1)">
          <path id="Trazado_311" data-name="Trazado 311" d="M132.17,60.19a55.528,55.528,0,0,1-.8,6.44,105.534,105.534,0,0,1-4.13,16.21c-2.3.82-4.21,2.34-6.32,3.5a37.477,37.477,0,0,1-15.28,4.6,39.743,39.743,0,0,1-18.47-3.31,38.27,38.27,0,0,1-7.19-3.92c-.59-.41-1.21-.77-1.81-1.15-.3-1.54-1.04-2.96-1.3-4.52.29-.11.46.1.6.27,2.56,3.11,6.04,4.43,9.87,4.92a11.78,11.78,0,0,0,8.24-1.75,8.116,8.116,0,0,0,2.21-2.04c2.66-3.77,6.75-4.23,10.54-2.51a26.97,26.97,0,0,0,4.58,1.82,11.45,11.45,0,0,0,11.21-3.04,24.926,24.926,0,0,0,6.01-9.91,40.665,40.665,0,0,0,1.45-4.71c.08-.35.06-.83.61-.89Z" transform="translate(1061.565 2340.683)" fill="#c3ecec"/>
          <path id="Trazado_312" data-name="Trazado 312" d="M113.99,37.333c.64-.16,1.75,1.177,2.38,1,.28-.08.52-.1.68.2a1.515,1.515,0,0,1,0,1.79,1.779,1.779,0,0,0,.09,1.86,2.807,2.807,0,0,1-.51,3.63c-.91.94-.77.88-.26,1.81a1.962,1.962,0,0,1-.89,2.95,2.964,2.964,0,0,0-1.49,1.57,3.783,3.783,0,0,1-5.13,1.72,2.473,2.473,0,0,0-2.84.15,5.654,5.654,0,0,1-3.8.89,2.594,2.594,0,0,1-1.93-.98,1.68,1.68,0,0,0-2.19-.58,2.945,2.945,0,0,1-3.45-.55,8.915,8.915,0,0,0-1.34-.85,3.353,3.353,0,0,1-1.74-3.19,5.259,5.259,0,0,0-.9-3.38,3.674,3.674,0,0,1-.31-2.78c.07-.42.22-.82.31-1.24a2.123,2.123,0,0,0-.58-2.12c-.15-.14-.34-.27-.32-.52.31-.37.64-.12.95-.02,1.52.48,3.092-.51,4.682-.36,3.47,2.11,6.648.08,10.618,0,3.04-.06,6,1.513,7.99-1.007Z" transform="translate(1061.565 2340.683)" fill="#fceaa3"/>
          <path id="Trazado_314" data-name="Trazado 314" d="M89.76,38.72a2.158,2.158,0,0,1,1.2,2.82,9.775,9.775,0,0,0-.4,1.7,3.175,3.175,0,0,0,.58,2.32,3.977,3.977,0,0,1,.75,2.85,3.089,3.089,0,0,0,1.74,3.36,9.7,9.7,0,0,1,1.73,1.13,1.93,1.93,0,0,0,2.22.28c1.42-.67,1.94-.54,3.04.65a2.437,2.437,0,0,0,1.62.77,5.253,5.253,0,0,0,3.77-.95,2.5,2.5,0,0,1,2.9-.16,3.363,3.363,0,0,0,4.82-1.51,3.253,3.253,0,0,1,1.71-1.75,1.637,1.637,0,0,0,.6-2.66,1.2,1.2,0,0,1,.18-1.78,2.568,2.568,0,0,0,.54-3.67,1.486,1.486,0,0,1-.06-1.78,2.815,2.815,0,0,0,.35-1.84,12.621,12.621,0,0,1,9.07,1.82,13.246,13.246,0,0,1,6.51,11.76,54.8,54.8,0,0,1-.46,8.09c-.37,1.27-.72,2.54-1.12,3.8a30.116,30.116,0,0,1-5.23,10.37c-2.67,3.23-6.02,5.25-10.38,5.1A14.751,14.751,0,0,1,109,77.58a10.65,10.65,0,0,0-4.38-1.31,7.17,7.17,0,0,0-6.53,3.22,9.735,9.735,0,0,1-6.53,3.89,16.236,16.236,0,0,1-11.89-2.61,10.287,10.287,0,0,1-2.82-2.76,53.55,53.55,0,0,1-1.78-6.6,86.866,86.866,0,0,1-2.22-19.48A13.567,13.567,0,0,1,87.71,38.35c.68.06,1.36.22,2.04.34Z" transform="translate(1061.565 2340.683)" fill="#fff"/>
          <path id="Trazado_320" data-name="Trazado 320" d="M83.7,71.81a3.053,3.053,0,0,1-3.16-1.8,3.331,3.331,0,0,1,.71-3.6,4.221,4.221,0,0,1,4.29-.45,2.922,2.922,0,0,1,1.84,3.12c-.01,1.52-1.14,2.54-2.97,2.72-.24.02-.48,0-.71,0Z" transform="translate(1061.565 2340.683)" fill="#f1c9c9"/>
          <path id="Trazado_321" data-name="Trazado 321" d="M120.04,71.81a3.051,3.051,0,0,1-3.16-1.79,3.325,3.325,0,0,1,.7-3.6,4.19,4.19,0,0,1,4.36-.42,2.984,2.984,0,0,1,1.78,3.24c-.08,1.41-1.21,2.39-2.96,2.56-.24.02-.48,0-.71,0Z" transform="translate(1061.565 2340.683)" fill="#f1c9c9"/>
          <path id="Trazado_322" data-name="Trazado 322" d="M103.05,67.16a4.877,4.877,0,0,1-.14.92,1.209,1.209,0,0,1-1.28.86,1.011,1.011,0,0,1-.99-.87,4.97,4.97,0,0,1-.21-1.49c.04-.82.44-1.32,1.13-1.39a1.426,1.426,0,0,1,1.41,1.16c.05.26.05.52.08.81Z" transform="translate(1061.565 2340.683)" fill="#d19685"/>
          <path id="Trazado_323" data-name="Trazado 323" d="M85.32,63.11a1.209,1.209,0,0,1,1.3-1.35,1.33,1.33,0,1,1,.04,2.66,1.216,1.216,0,0,1-1.35-1.31Z" transform="translate(1061.565 2340.683)" fill="#728fa3"/>
          <path id="Trazado_324" data-name="Trazado 324" d="M85.32,63.11a1.209,1.209,0,0,1,1.3-1.35,1.33,1.33,0,1,1,.04,2.66,1.216,1.216,0,0,1-1.35-1.31Z" transform="translate(1095.096 2340.683)" fill="#728fa3"/>
        </g>
        <g id="Grupo_15" data-name="Grupo 15" transform="translate(1147.001 2324.5)">
          <g id="Grupo_14" data-name="Grupo 14" clip-path="url(#clip-path)">
            <path id="Trazado_306" data-name="Trazado 306" d="M2.824,84.1c1.939-4.177,4.967-7.654,7.428-11.495,2.557-3.991,5.349-7.833,8.037-11.74a1.686,1.686,0,0,1,1.245.241c2.16,2.034,4.872,3.214,7.334,4.775a4.9,4.9,0,0,0,4.431-.192c1.206-.7,2.418-1.221,3.709-.19,1.047,6.216,2.493,12.364,3.127,18.649-1.075,1.264-3,.621-4.1,1.837a1.724,1.724,0,0,1-.752.01c-1.707-1.094-3.338.04-4.975.246a8.884,8.884,0,0,1-3.563.032,30.125,30.125,0,0,0-9.751.112,7.2,7.2,0,0,1-3.378-.294c-1.226-.109-2.46-.162-3.674-.394-1.637-.748-3.649-.31-5.119-1.6" transform="translate(-1.358 -29.26)" fill="#58a3c9"/>
            <path id="Trazado_307" data-name="Trazado 307" d="M41.115,37.224c-3.351-1.091-6.411-2.622-8.5-5.62A206.9,206.9,0,0,1,46.171,11.741C47.88,9.482,50,7.76,53.053,7.709c.413.612.165,1.554.984,1.962.152.158.3.318.457.469,1.46.825,2.587.317,3.546-.875a8.748,8.748,0,0,1,3.41-1.2c.407-.026.854.016.922-.567-.348-1.141-1.6-1.785-1.64-3.072,2.73-2.219,6.2-2.862,9.3-4.3,1.089-.5,2.053.627,2.976,1.218a14.842,14.842,0,0,1,3.869,3.743c.061,1.831-1.5,2.16-2.666,2.714-4.753,2.254-9.629,4.238-14.415,6.423a8.164,8.164,0,0,0-4.02,3.808C52.97,23.376,49.98,28.621,47.233,34c-.706,1.382-1.372,2.789-2.874,3.519-1.083-.1-2.208.3-3.244-.292" transform="translate(-15.681 0)" fill="#b3dcdc"/>
            <path id="Trazado_308" data-name="Trazado 308" d="M55.788,41.894A210.667,210.667,0,0,1,67.26,20.271c1.5-2.564,4.762-2.88,7.26-4.113,4.459-2.2,9.281-3.636,13.5-6.358,2.766,4.141,2.695,4.245-1.862,5.91-4.852,1.772-9.652,3.684-14.491,5.492a3.42,3.42,0,0,0-2.049,1.784c-3.011,6.006-6.087,11.98-9.142,17.965l-3.634,1.042a.66.66,0,0,1-1.054-.1" transform="translate(-26.824 -4.712)" fill="#97cac8"/>
            <path id="Trazado_309" data-name="Trazado 309" d="M36.779,105.387l.479.493c-.319,1.677-.559,3.375-.971,5.028C34.27,119,26.25,124.167,16.712,123.562,8.527,123.044,2.38,117,1.452,108.608c-.117-1.065.478-2.613-1.452-2.77l1.466-.5a7.363,7.363,0,0,1,5.2.591c.871.616,7.1-.113,8.6,1.038,1.5-.348,3.523-.395,4.314-1.038,1.352-1.05,6.117.307,7.524,1.038a3,3,0,0,0,2.809-1.038" transform="translate(0 -50.5)" fill="#83bcdd" opacity="0.71"/>
          </g>
        </g>
      </g>
    </g>
  </g>
</svg>
