<svg xmlns="http://www.w3.org/2000/svg" width="207" height="207" viewBox="0 0 207 207">
  <g id="Grupo_126" data-name="Grupo 126" transform="translate(-589.729 -2096)">
    <circle id="Elipse_9" data-name="Elipse 9" cx="103.5" cy="103.5" r="103.5" transform="translate(589.729 2096)" fill="#1a3b6d"/>
    <g id="Grupo_72" data-name="Grupo 72" transform="translate(-471.847 -383.163)">
      <g id="Grupo_33" data-name="Grupo 33" transform="translate(605.652 633.484)">
        <path id="Trazado_300" data-name="Trazado 300" d="M188.93,83.94c4.36-.52,7.91,1.25,10.95,4.11a14.947,14.947,0,0,1,4.82,10.68,53.1,53.1,0,0,1-.02,8.27,20.246,20.246,0,0,1-7.67,13.75,20.655,20.655,0,0,1-13.36,4.59H21.14A20.859,20.859,0,0,1,.7,109.93a15.658,15.658,0,0,1-.65-4.08c-.03-2.44-.07-4.89,0-7.33A15.793,15.793,0,0,1,13.7,83.76c1.14-.13,2.28-.12,3.42-.14.23-.18.49-.09.74-.09a5.978,5.978,0,0,1,3.48,1.6,18.9,18.9,0,0,0,8.02,4.05,46.771,46.771,0,0,0,11,1.47A41.494,41.494,0,0,0,52.77,89.2a30.06,30.06,0,0,0,9.88-4.65,18.3,18.3,0,0,1,3.71-2.15,6.747,6.747,0,0,0,1.31-.52,14.347,14.347,0,0,1,8.55-.4,3.355,3.355,0,0,1,1.09.45,4.872,4.872,0,0,0,.95.39c1.68.85,3.17,2.03,4.82,2.95a42.689,42.689,0,0,0,16.34,5.22c8.74.94,16.65-1.34,23.96-6.04a17.207,17.207,0,0,1,3.78-1.85,8.348,8.348,0,0,1,1.22-.09,15.178,15.178,0,0,1,6.47-.02,15.815,15.815,0,0,1,4.35,1.92c.47,0,.81.34,1.24.46a38.658,38.658,0,0,0,11.86,4,76.291,76.291,0,0,0,9.78,1.15,42.717,42.717,0,0,0,14.54-1.59,32.034,32.034,0,0,0,5.87-2.44,22.117,22.117,0,0,1,5.34-2.03c.38-.19.76.12,1.14,0Z" transform="translate(456.989 1884.339)" fill="#eb9f9e"/>
        <path id="Trazado_301" data-name="Trazado 301" d="M183.47,89.64a1.36,1.36,0,0,1,.96-1.4,13.964,13.964,0,0,1,3.37-.89,11.594,11.594,0,0,1,7.39,1.08,10.8,10.8,0,0,1,3.57,3.22,1.475,1.475,0,0,1-.21,2.13,1.4,1.4,0,0,1-2.09-.3,12.367,12.367,0,0,0-1.7-1.77,8.316,8.316,0,0,0-6.95-1.34,15.229,15.229,0,0,0-2.29.63,1.451,1.451,0,0,1-2.05-1.36Z" transform="translate(457.989 1883.496)" fill="#f4cccc"/>
        <path id="Trazado_302" data-name="Trazado 302" d="M46.73,97.16c-.32,0-.64.02-.95,0a1.478,1.478,0,0,1-1.41-1.36,1.507,1.507,0,0,1,1.32-1.52c1.52-.24,3.06-.15,4.58-.43a11.963,11.963,0,0,0,4.21-1.36,1.482,1.482,0,0,1,2.06.55A1.442,1.442,0,0,1,56,95.03a12.926,12.926,0,0,1-5.39,1.78c-1.28.19-2.57.28-3.86.41v-.06Z" transform="translate(457.989 1883.496)" fill="#f4cccc"/>
        <path id="Trazado_303" data-name="Trazado 303" d="M131.3,86.17c3.21.19,6.2.63,8.79,2.51a1.632,1.632,0,0,1,.8,1.54,1.471,1.471,0,0,1-1.06,1.27,1.39,1.39,0,0,1-1.35-.27,11.931,11.931,0,0,0-6.82-2.02h-.24c-1.22,0-1.9-.53-1.9-1.45a1.624,1.624,0,0,1,1.78-1.57Z" transform="translate(457.989 1883.496)" fill="#f4cccc"/>
        <path id="Trazado_304" data-name="Trazado 304" d="M21.48,119.29h1.91a1.465,1.465,0,0,1,1.52,1.4,1.451,1.451,0,0,1-1.46,1.47q-1.95.045-3.9,0a1.436,1.436,0,1,1,.02-2.87c.64-.01,1.27,0,1.91,0Z" transform="translate(457.989 1883.496)" fill="#f4cccb"/>
        <path id="Trazado_305" data-name="Trazado 305" d="M143.47,92.39a1.4,1.4,0,0,1,2.1-1.31,12.505,12.505,0,0,0,2.85.99,1.505,1.505,0,1,1-.65,2.93,12.9,12.9,0,0,1-3.51-1.25,1.388,1.388,0,0,1-.79-1.35Z" transform="translate(457.989 1883.496)" fill="#f4cccc"/>
      </g>
      <g id="Grupo_35" data-name="Grupo 35" transform="translate(797.576 148.5)">
        <path id="Trazado_735" data-name="Trazado 735" d="M140.14,85.04c-.61-1.85-1.23-3.7-1.83-5.55-.17-.53-.3-1.06-.45-1.6.38-.14.51.18.69.39,2.93,3.4,6.75,4.81,11.12,5.01a11.26,11.26,0,0,0,7.22-2A9.505,9.505,0,0,0,159,79.25c2.68-3.52,6.54-4.08,10.39-2.31A20.766,20.766,0,0,0,175.3,79a11.4,11.4,0,0,0,8.23-1.93,18.725,18.725,0,0,0,5.85-7.12,41.475,41.475,0,0,0,3.42-9.48c.08-.34-.02-.85.55-.92a76.409,76.409,0,0,1-1.2,8.79,107.034,107.034,0,0,1-4.08,15.24c-.07.2-.11.41-.16.61a34,34,0,0,0-6.32,2.59,32.83,32.83,0,0,1-12.19,3.38,60.392,60.392,0,0,1-23.99-2.75,21.077,21.077,0,0,1-5.28-2.38Z" transform="translate(141.989 2370.893)" fill="#f3e6a2"/>
        <path id="Trazado_734" data-name="Trazado 734" d="M193.35,59.55c-.38,1.32-.66,2.66-1.06,3.98a34.568,34.568,0,0,1-4.45,9.63,14.49,14.49,0,0,1-6.17,5.33,12.526,12.526,0,0,1-10.47-.37,18.133,18.133,0,0,0-4.68-1.73,7.279,7.279,0,0,0-7.22,3,10.877,10.877,0,0,1-8.37,4.22,16.807,16.807,0,0,1-8.17-1.66,12.421,12.421,0,0,1-4.89-4.06,86.863,86.863,0,0,1-2.28-9.26,88.151,88.151,0,0,1-1.66-16.92A13.622,13.622,0,0,1,145.41,38.5a14.443,14.443,0,0,1,6.59.59,35.935,35.935,0,0,0,7.91,1.32,47.727,47.727,0,0,0,15.02-1.13,22.543,22.543,0,0,1,5.22-.95A13.535,13.535,0,0,1,193.5,49.54a33.408,33.408,0,0,1,.09,7.07c-.04.98-.16,1.95-.24,2.93Z" transform="translate(141.989 2370.893)" fill="#fff"/>
        <path id="Trazado_731" data-name="Trazado 731" d="M181.12,71.82c-3.08-.06-3.81-2.22-3.07-4.55.41-1.29,1.63-1.52,2.78-1.62,2.77-.25,4.4,1.53,3.92,4.08-.21,1.12-1.49,1.96-2.99,2.08-.21.02-.42,0-.64,0Z" transform="translate(141.989 2370.893)" fill="#f1c9c9"/>
        <path id="Trazado_729" data-name="Trazado 729" d="M144.98,71.83c-2.75.03-4.18-1.97-3.32-4.46a2.065,2.065,0,0,1,1.2-1.3,4.886,4.886,0,0,1,3.86-.1,3.231,3.231,0,0,1,1.84,3.16,2.753,2.753,0,0,1-2.06,2.45,3.9,3.9,0,0,1-1.52.25Z" transform="translate(141.989 2370.893)" fill="#f1c9c9"/>
        <path id="Trazado_732" data-name="Trazado 732" d="M179.66,63.09a1.27,1.27,0,0,1-1.35,1.33,1.33,1.33,0,0,1-.01-2.66,1.289,1.289,0,0,1,1.36,1.33Z" transform="translate(141.989 2370.893)" fill="#728fa3"/>
        <path id="Trazado_733" data-name="Trazado 733" d="M146.46,63.09a1.167,1.167,0,0,1,1.31-1.33,1.264,1.264,0,0,1,1.32,1.29,1.243,1.243,0,0,1-1.31,1.36,1.171,1.171,0,0,1-1.32-1.32Z" transform="translate(141.989 2370.893)" fill="#718ea2"/>
        <path id="Trazado_730" data-name="Trazado 730" d="M103.05,67.16a4.877,4.877,0,0,1-.14.92,1.209,1.209,0,0,1-1.28.86,1.011,1.011,0,0,1-.99-.87,4.97,4.97,0,0,1-.21-1.49c.04-.82.44-1.32,1.13-1.39a1.426,1.426,0,0,1,1.41,1.16c.05.26.05.52.08.81Z" transform="translate(204.083 2372.562)" fill="#d19685"/>
      </g>
      <g id="Grupo_36" data-name="Grupo 36" transform="translate(921.576 148.5)">
        <path id="Trazado_735-2" data-name="Trazado 735" d="M140.14,85.04c-.61-1.85-1.23-3.7-1.83-5.55-.17-.53-.3-1.06-.45-1.6.38-.14.51.18.69.39,2.93,3.4,6.75,4.81,11.12,5.01a11.26,11.26,0,0,0,7.22-2A9.505,9.505,0,0,0,159,79.25c2.68-3.52,6.54-4.08,10.39-2.31A20.766,20.766,0,0,0,175.3,79a11.4,11.4,0,0,0,8.23-1.93,18.725,18.725,0,0,0,5.85-7.12,41.475,41.475,0,0,0,3.42-9.48c.08-.34-.02-.85.55-.92a76.409,76.409,0,0,1-1.2,8.79,107.034,107.034,0,0,1-4.08,15.24c-.07.2-.11.41-.16.61a34,34,0,0,0-6.32,2.59,32.83,32.83,0,0,1-12.19,3.38,60.392,60.392,0,0,1-23.99-2.75,21.077,21.077,0,0,1-5.28-2.38Z" transform="translate(141.989 2370.893)" fill="#f3e6a2"/>
        <path id="Trazado_734-2" data-name="Trazado 734" d="M193.35,59.55c-.38,1.32-.66,2.66-1.06,3.98a34.568,34.568,0,0,1-4.45,9.63,14.49,14.49,0,0,1-6.17,5.33,12.526,12.526,0,0,1-10.47-.37,18.133,18.133,0,0,0-4.68-1.73,7.279,7.279,0,0,0-7.22,3,10.877,10.877,0,0,1-8.37,4.22,16.807,16.807,0,0,1-8.17-1.66,12.421,12.421,0,0,1-4.89-4.06,86.863,86.863,0,0,1-2.28-9.26,88.151,88.151,0,0,1-1.66-16.92A13.622,13.622,0,0,1,145.41,38.5a14.443,14.443,0,0,1,6.59.59,35.935,35.935,0,0,0,7.91,1.32,47.727,47.727,0,0,0,15.02-1.13,22.543,22.543,0,0,1,5.22-.95A13.535,13.535,0,0,1,193.5,49.54a33.408,33.408,0,0,1,.09,7.07c-.04.98-.16,1.95-.24,2.93Z" transform="translate(141.989 2370.893)" fill="#fff"/>
        <path id="Trazado_731-2" data-name="Trazado 731" d="M181.12,71.82c-3.08-.06-3.81-2.22-3.07-4.55.41-1.29,1.63-1.52,2.78-1.62,2.77-.25,4.4,1.53,3.92,4.08-.21,1.12-1.49,1.96-2.99,2.08-.21.02-.42,0-.64,0Z" transform="translate(141.989 2370.893)" fill="#f1c9c9"/>
        <path id="Trazado_729-2" data-name="Trazado 729" d="M144.98,71.83c-2.75.03-4.18-1.97-3.32-4.46a2.065,2.065,0,0,1,1.2-1.3,4.886,4.886,0,0,1,3.86-.1,3.231,3.231,0,0,1,1.84,3.16,2.753,2.753,0,0,1-2.06,2.45,3.9,3.9,0,0,1-1.52.25Z" transform="translate(141.989 2370.893)" fill="#f1c9c9"/>
        <path id="Trazado_732-2" data-name="Trazado 732" d="M179.66,63.09a1.27,1.27,0,0,1-1.35,1.33,1.33,1.33,0,0,1-.01-2.66,1.289,1.289,0,0,1,1.36,1.33Z" transform="translate(141.989 2370.893)" fill="#728fa3"/>
        <path id="Trazado_733-2" data-name="Trazado 733" d="M146.46,63.09a1.167,1.167,0,0,1,1.31-1.33,1.264,1.264,0,0,1,1.32,1.29,1.243,1.243,0,0,1-1.31,1.36,1.171,1.171,0,0,1-1.32-1.32Z" transform="translate(141.989 2370.893)" fill="#718ea2"/>
        <path id="Trazado_730-2" data-name="Trazado 730" d="M103.05,67.16a4.877,4.877,0,0,1-.14.92,1.209,1.209,0,0,1-1.28.86,1.011,1.011,0,0,1-.99-.87,4.97,4.97,0,0,1-.21-1.49c.04-.82.44-1.32,1.13-1.39a1.426,1.426,0,0,1,1.41,1.16c.05.26.05.52.08.81Z" transform="translate(204.083 2372.562)" fill="#d19685"/>
      </g>
      <g id="Grupo_67" data-name="Grupo 67">
        <path id="Trazado_798" data-name="Trazado 798" d="M140.14,85.04c-.61-1.85-1.23-3.7-1.83-5.55-.17-.53-.3-1.06-.45-1.6.38-.14.51.18.69.39,2.93,3.4,6.75,4.81,11.12,5.01a11.26,11.26,0,0,0,7.22-2A9.505,9.505,0,0,0,159,79.25c2.68-3.52,6.54-4.08,10.39-2.31A20.766,20.766,0,0,0,175.3,79a11.4,11.4,0,0,0,8.23-1.93,18.725,18.725,0,0,0,5.85-7.12,41.475,41.475,0,0,0,3.42-9.48c.08-.34-.02-.85.55-.92a76.409,76.409,0,0,1-1.2,8.79,107.034,107.034,0,0,1-4.08,15.24c-.07.2-.11.41-.16.61a34,34,0,0,0-6.32,2.59,32.83,32.83,0,0,1-12.19,3.38,60.392,60.392,0,0,1-23.99-2.75,21.077,21.077,0,0,1-5.28-2.38Z" transform="translate(1001.243 2519.393)" fill="#f3e6a2"/>
        <path id="Trazado_799" data-name="Trazado 799" d="M193.35,59.55c-.38,1.32-.66,2.66-1.06,3.98a34.568,34.568,0,0,1-4.45,9.63,14.49,14.49,0,0,1-6.17,5.33,12.526,12.526,0,0,1-10.47-.37,18.133,18.133,0,0,0-4.68-1.73,7.279,7.279,0,0,0-7.22,3,10.877,10.877,0,0,1-8.37,4.22,16.807,16.807,0,0,1-8.17-1.66,12.421,12.421,0,0,1-4.89-4.06,86.863,86.863,0,0,1-2.28-9.26,88.151,88.151,0,0,1-1.66-16.92A13.622,13.622,0,0,1,145.41,38.5a14.443,14.443,0,0,1,6.59.59,35.935,35.935,0,0,0,7.91,1.32,47.727,47.727,0,0,0,15.02-1.13,22.543,22.543,0,0,1,5.22-.95A13.535,13.535,0,0,1,193.5,49.54a33.408,33.408,0,0,1,.09,7.07c-.04.98-.16,1.95-.24,2.93Z" transform="translate(1001.243 2519.393)" fill="#fff"/>
        <path id="Trazado_800" data-name="Trazado 800" d="M181.12,71.82c-3.08-.06-3.81-2.22-3.07-4.55.41-1.29,1.63-1.52,2.78-1.62,2.77-.25,4.4,1.53,3.92,4.08-.21,1.12-1.49,1.96-2.99,2.08-.21.02-.42,0-.64,0Z" transform="translate(1001.243 2519.393)" fill="#f1c9c9"/>
        <path id="Trazado_801" data-name="Trazado 801" d="M144.98,71.83c-2.75.03-4.18-1.97-3.32-4.46a2.065,2.065,0,0,1,1.2-1.3,4.886,4.886,0,0,1,3.86-.1,3.231,3.231,0,0,1,1.84,3.16,2.753,2.753,0,0,1-2.06,2.45,3.9,3.9,0,0,1-1.52.25Z" transform="translate(1001.243 2519.393)" fill="#f1c9c9"/>
        <path id="Trazado_802" data-name="Trazado 802" d="M162.44,66.42a10.274,10.274,0,0,0,1.11,0c.76-.1.88.27.83.93-.14,1.75-1.02,2.66-2.44,2.44-1.19-.19-2.08-2.28-1.36-3.2.14-.18.33-.15.51-.15h1.35Z" transform="translate(1001.243 2519.393)" fill="#d09685"/>
        <path id="Trazado_803" data-name="Trazado 803" d="M179.66,63.09a1.27,1.27,0,0,1-1.35,1.33,1.33,1.33,0,0,1-.01-2.66,1.289,1.289,0,0,1,1.36,1.33Z" transform="translate(1001.243 2519.393)" fill="#728fa3"/>
        <path id="Trazado_804" data-name="Trazado 804" d="M146.46,63.09a1.167,1.167,0,0,1,1.31-1.33,1.264,1.264,0,0,1,1.32,1.29,1.243,1.243,0,0,1-1.31,1.36,1.171,1.171,0,0,1-1.32-1.32Z" transform="translate(1001.243 2519.393)" fill="#718ea2"/>
      </g>
      <path id="Trazado_805" data-name="Trazado 805" d="M119.268,47.278a134.389,134.389,0,0,0-7.275,11.889,19.133,19.133,0,0,1-3.519,4.549,2.448,2.448,0,0,1-2.6.858c-1.094-.408-.987-1.416-.944-2.318.107-2.961,1.03-5.794,1.609-8.67.451-2.232.9-4.442,1.524-6.631.408-1.459.343-3.949.622-5,1.459-5.558,2.961-11.116,4.936-16.524A10.516,10.516,0,0,1,117.766,20c8.756-5.859,17.468-11.8,26.7-16.91,1.416-.773,2.79-1.824,4.592-1.309,7.811,3.584,15.537,7.318,23.026,11.545.429.236,1.073.408.966,1.03-.086.515-.73.494-1.137.622-7.661,2.575-15.322,5.107-22.984,7.683-5.665,1.91-11.309,3.841-16.975,5.751a3.435,3.435,0,0,0-2.039,1.416q-5.118,8.273-10.279,16.5a4.679,4.679,0,0,0-.343.966Z" transform="translate(1054.34 2483.111)" fill="#e3eae8"/>
    </g>
  </g>
</svg>
