<?xml version="1.0" encoding="UTF-8"?><svg xmlns="http://www.w3.org/2000/svg" viewBox="0 0 124.61 84.37"><defs><style>.d{fill:#fff;}.e{fill:none;stroke:#4cbcc5;stroke-linecap:round;stroke-linejoin:round;}.e,.f{stroke-width:1.42px;}.g,.f{fill:#f9ccc7;}.h{fill:#f7aa51;}.f{stroke:#f29ac1;stroke-miterlimit:10;}.i{fill:#f29ac1;}.j{fill:#9dd5db;}.k{fill:#193c6e;}</style></defs><g id="a"/><g id="b"><g id="c"><g><path class="i" d="M120.55,61.36c1.69,1.68,2.22,3.87,1.2,4.9-1.02,1.02-3.22,.48-4.91-1.2-1.69-1.68-2.23-3.87-1.2-4.9,1.02-1.02,3.22-.48,4.91,1.2Z"/><g><path class="h" d="M43.49,32.51c-2.21,.45-3.48,3.14-1.79,5.63,.48,1.76,3.4,2.79,5.11,2.14,1.83-.7,2.82-3.1,3.07-4.81,.12-.79,.21-2.49-.13-3.2-.59-1.23-2.12-1.6-2.18-1.65,0,0-3.2,3.41-4.09,1.89Z"/><path class="k" d="M35.03,58.79c-.46-.33-.56-.97-.23-1.43,10.71-14.81,31.51-18.12,46.35-7.38,.46,.33,.56,.97,.23,1.42s-.97,.56-1.43,.23c-13.93-10.08-33.44-6.97-43.5,6.92-.33,.46-.97,.56-1.43,.23Z"/><path class="d" d="M86.71,26.56c-3.7,8.21-17.29,13.39-17.29,13.39,0,0-5.13-13.58-1.43-21.79,3.71-8.21,9.67-10.27,14.84-7.95,5.17,2.32,7.58,8.14,3.88,16.35Z"/><path class="j" d="M85.96,29.98c-3.7,8.21-17.29,13.39-17.29,13.39,0,0-5.13-13.58-1.42-21.79,3.7-8.21,9.67-10.27,14.84-7.95,5.17,2.32,7.58,8.14,3.88,16.35Z"/><path class="k" d="M69.42,40.97c-.14,0-.29-.03-.42-.09-.25-.11-.44-.32-.54-.57-.22-.57-5.23-14.07-1.4-22.57,2.75-6.09,6.92-9.44,11.76-9.44,1.49,0,2.98,.33,4.43,.98,2.96,1.33,4.98,3.62,5.83,6.62,.9,3.17,.4,7-1.44,11.08-3.83,8.5-17.28,13.71-17.86,13.93-.12,.04-.24,.07-.36,.07Zm9.4-30.63c-3.98,0-7.5,2.93-9.89,8.24-2.93,6.49,.04,16.79,1.1,20.01,3.12-1.35,12.82-5.97,15.74-12.45,1.64-3.64,2.1-6.99,1.34-9.69-.68-2.4-2.31-4.24-4.7-5.31-1.18-.53-2.39-.8-3.59-.8Z"/><path class="d" d="M91.22,42.89c-8.44,3.2-21.72-2.73-21.72-2.73,0,0,6-13.22,14.44-16.41,8.44-3.2,14.12-.44,16.13,4.84,2.01,5.28-.41,11.1-8.85,14.3Z"/><path class="j" d="M84.46,27.18c-5.62,2.13-10.15,8.69-12.55,12.84,2.85,1.05,8.33,2.79,13.45,2.79,2.11,0,3.96-.3,5.5-.88,3.74-1.42,6.44-3.46,7.81-5.91,1.1-1.96,1.32-4.13,.69-6.32-2.65-3.69-7.79-5.21-14.89-2.52Z"/><path class="k" d="M85.35,44.86c-7.75,0-15.93-3.61-16.27-3.76-.25-.11-.44-.32-.54-.57-.1-.25-.09-.54,.02-.78,.25-.56,6.27-13.64,15.01-16.94,2.51-.95,4.88-1.43,7.05-1.43,4.95,0,8.73,2.5,10.39,6.86,1.15,3.03,.96,6.07-.57,8.79-1.61,2.88-4.68,5.23-8.87,6.82-1.77,.67-3.87,1.01-6.22,1.01Zm-14.46-5.22c2.37,.94,8.65,3.18,14.46,3.18,2.11,0,3.96-.3,5.5-.88,3.74-1.42,6.44-3.46,7.81-5.91,1.22-2.18,1.37-4.62,.44-7.07-1.36-3.58-4.37-5.55-8.48-5.55-1.93,0-4.06,.44-6.33,1.3-6.67,2.53-11.87,11.9-13.41,14.93Z"/><path class="k" d="M78.53,37.78c-.2,0-.4-.06-.58-.18-.47-.32-.58-.95-.26-1.42,1.95-2.84,4.94-6.48,8.07-7.66,1.81-.68,3.45-1.03,4.88-1.03,2.39,0,3.91,.95,4.66,2.91,.2,.53-.07,1.12-.59,1.32-.53,.2-1.12-.06-1.32-.59-.29-.77-.77-1.6-2.74-1.6-1.18,0-2.58,.3-4.15,.9-2.05,.78-4.57,3.23-7.11,6.9-.2,.29-.52,.44-.84,.44Z"/><path class="d" d="M103.16,51.33c-5.28-.22-10.53-1.22-15.75-3.45-8.11-3.25-15.93-8.58-20.61-15.36-4.76-6.57-5.86-13.39-5.96-13.27,.1-.03-3.7,5.52-4.53,15.76-.88,9.85,3.02,25.94,18.2,35.82,4.72,3.04,11.35,7.26,15.32,6.13,6.96-1.99,15.4-17.19,13.32-25.64Z"/><path class="j" d="M100.34,54.14c-5.28-.22-10.53-1.22-15.75-3.45-8.11-3.25-15.93-8.58-20.61-15.36-2.5-3.45-3.99-6.96-4.85-9.51-.91,2.87-1.53,6.01-1.79,9.27-.74,8.2,2.18,24.75,17.74,34.89,3.81,2.45,9.57,6.16,13.31,6.16,.43,0,.82-.05,1.17-.15,2.48-.71,5.28-3.38,7.64-6.86,2.64-5.05,4.16-10.83,3.14-14.98Z"/><path class="k" d="M88.29,72.05s-.03,0-.05,0c-2.28-.11-6.82-2.84-10.95-5.5-.48-.3-.61-.94-.31-1.41,.31-.47,.94-.61,1.41-.31,5.25,3.37,8.59,5.12,9.94,5.18,.56,.03,1,.5,.97,1.07-.03,.55-.48,.97-1.02,.97Z"/><path class="g" d="M59.33,1.02c13.22,0,20.92,14.81,13.54,25.58,1.8,1.22-.51,4.63-3.46,4.66l-.78-.42c-1.39,2.55-4.11,4.93-9.3,4.93-5.19,0-7.91-2.38-9.3-4.93l-.78,.42c-2.91-.03-5.3-3.42-3.46-4.66-7.38-10.77,.33-25.57,13.54-25.58Z"/><path class="k" d="M58.94,31.98c-1.02,0-1.97-.4-2.69-1.11-.4-.4-.4-1.04,0-1.44,.4-.4,1.05-.4,1.45,0,.66,.66,1.82,.66,2.49,0,.4-.4,1.05-.4,1.45,0,.4,.4,.4,1.04,0,1.44-.72,.72-1.67,1.11-2.69,1.11Z"/><path class="k" d="M46.35,67.12c-.56,0-1.02-.46-1.02-1.02s.46-1.02,1.02-1.02c15.65,0,24.12-13.03,25.57-25.95,.06-.56,.58-.96,1.13-.9,.56,.06,.96,.57,.9,1.13-1.55,13.82-10.69,27.76-27.6,27.76Z"/><path class="i" d="M121.87,61.9c1.69,1.68,2.23,3.88,1.2,4.9-1.02,1.02-3.22,.48-4.91-1.2-1.69-1.68-2.23-3.87-1.2-4.9,1.02-1.02,3.22-.48,4.91,1.2Z"/><g><path class="k" d="M122.6,61.18c-1.27-1.26-2.85-2.02-4.23-2.02-.85,0-1.59,.28-2.12,.82-.53,.53-.8,1.25-.81,2.04-4.47,.54-8.95,.55-13.38,.02-.29,.65-.58,1.3-.86,1.96,5.07,.66,9.92,.62,14.68,.03,1.46,3.39,5.83,5.58,7.93,3.48,1.44-1.44,.92-4.22-1.2-6.34Zm-.92,5.11c-2.44,0-5.05-3.81-3.99-4.87,.51-.51,2.12-.13,3.46,1.2,1.36,1.35,2.14,3.67,.52,3.67Z"/><path class="k" d="M111.89,76.29c-4.69-1.67-9.12-3.93-13.18-6.75-.3,.61-.62,1.22-.95,1.82,4.19,2.88,8.75,5.19,13.58,6.89,.13,4,5.79,7.85,8.36,5.29,1.44-1.44,.92-4.22-1.2-6.34-2.22-2.21-5.23-2.73-6.6-.91Zm5.68,6.03c-2.92,0-5.7-5.09-3.31-5.09,2.92,0,5.7,5.09,3.31,5.09Z"/></g><path class="h" d="M59.3,8.88c.55,.11,.91,.65,.8,1.2-.11,.55-.65,.91-1.2,.8-4.57-.91-8.17,.14-11.34,3.27-2.74,2.71-3.65,6-2.44,8.79,.77,1.78,2.29,2.9,3.9,2.85,1.03-.04,2.03-.52,2.67-1.29,.37-.45,.78-1.19,.63-2.19-.16-1.01-.88-1.48-1.45-1.56-.19-.03-.84-.08-1.12,.5-.07,.13-.07,.28-.02,.42,.21,.52-.03,1.12-.56,1.33-.52,.21-1.12-.03-1.33-.56-.28-.67-.25-1.44,.07-2.09,.42-.87,1.22-1.43,2.15-1.6,2.75-2.9,6.28-3.1,9.41-3.27,3.29-.18,6.13-.33,8.24-3.07,.65-.84,1.31-1.86,1.54-2.28,0-.02,0-.04,.01-.07,.08-.48,.49-.84,.98-.85,.38-.02,.78,.22,.96,.57,.1,.2,.21,.42,.02,.95-.17,.88-.43,1.72-.69,2.55-.28,.88-.53,1.72-.68,2.57-.33,1.96,.07,6.94,1.71,8.87,.55,.65,1.22,1.54,2.97,.69,3.64-10.15-3.48-21.3-15.21-21.31-8.13,0-14.16,5.6-15.89,12.42,.56-1.27,1.43-2.56,2.68-3.8,3.64-3.61,7.95-4.86,13.18-3.82Z"/><path class="k" d="M104.15,51.08c-.11-.44-.5-.76-.95-.78-5.6-.24-10.63-1.34-15.42-3.38-8.11-3.25-15.09-8.29-19.39-13.95,.21-.25,.41-.51,.6-.78,1.05,.47,4.56-.7,5.4-3.48,.25-.83,.16-1.61-.23-2.22C81.25,15.1,73.11,0,59.33,0c-13.81,0-21.9,15.12-14.84,26.49-.99,1.56,.08,3.66,1.84,4.85-.67,.95-1.74,1.12-2.78,.67-.34-.15-.75-.1-1.04,.13-.3,.23-.44,.61-.37,.98,.51,2.85,2.73,4.12,3.45,4.12,1.11,0,1.42-1.52,.4-1.96-.49-.21-.91-.55-1.22-1,1.45-.04,2.73-.82,3.47-2.12,.33,.07,.68,.12,1.02,.12,.22,2.22,.23,4.32-.27,5.27-.89,1.69-2.45,2.58-4.05,2.33-1.62-.25-2.83-1.56-3.16-3.41-.1-.55-.63-.92-1.19-.83-.56,.1-.93,.63-.83,1.18,.55,3.08,2.91,5.14,5.73,5.14,2.17,0,4.14-1.27,5.3-3.46,.51-.97,.67-2.57,.62-4.35,1.03,.89,2.35,1.58,3.8,2.03-.53,10.7,4.02,25.92,18.75,35.5,4.25,2.74,10.07,6.48,14.43,6.48h0c.62,0,1.2-.08,1.73-.23,7.75-2.21,16.14-18.28,14.04-26.86ZM45.13,22.94c-1.21-2.79-.3-6.08,2.44-8.79,3.16-3.13,6.77-4.18,11.34-3.27,.56,.11,1.09-.25,1.2-.8,.11-.55-.25-1.09-.8-1.2-7.02-1.39-12.45,1.82-15.21,6.39,2.2-14.94,21.95-18.04,28.82-5.04,2.59,4.9,2.4,10.5-.45,15.13-2.3-.76-3.01-7.12-2.6-9.52,.29-1.66,1.02-3.31,1.37-5.11,.35-.96-.4-1.55-.97-1.52-.48,.01-.9,.34-1,.92-2.59,4.83-5.32,5.11-9.78,5.35-3.13,.17-6.66,.37-9.41,3.27-1.83,.33-2.86,2.14-2.22,3.69,.51,1.25,2.41,.47,1.89-.78-.18-.43,.3-1.04,1.13-.92,.57,.09,1.29,.55,1.45,1.56,.15,1-.26,1.74-.63,2.19-1.72,2.07-5.15,1.72-6.57-1.56Zm5.81,7.41c-.27-.49-.89-.68-1.39-.41l-.53,.29c-1.97-.2-3.37-2.3-2.65-2.79,.07-.05,.13-.1,.19-.17,3.89,1.84,8.41-1.29,7.8-5.28-.2-1.3-.92-2.21-1.78-2.74,2.03-1.47,4.47-1.6,7.03-1.74,2.89-.16,5.85-.32,8.32-2.37-.57,2.83-.05,11.39,4.34,12.25,.8,.61-.71,2.64-2.6,2.83l-.53-.29c-.5-.27-1.12-.09-1.39,.41-1.59,2.91-4.41,4.39-8.4,4.4-3.98,0-6.81-1.48-8.4-4.4Zm38.62,45.63c-.35,.1-.74,.15-1.17,.15-3.75,0-9.51-3.71-13.31-6.16-14.64-9.53-18.08-24.74-17.83-33.33,3.31,.49,6.99-.16,9.67-2.24,4.54,5.93,11.61,11.01,20.09,14.41,4.77,2.03,9.78,3.18,15.31,3.5,1.38,8.3-6.65,21.94-12.76,23.68Z"/></g><polygon class="f" points="30.19 43.52 31.25 45.66 33.61 46 31.9 47.67 32.3 50.03 30.19 48.92 28.07 50.03 28.48 47.67 26.76 46 29.13 45.66 30.19 43.52"/><g><line class="e" x1="4.45" y1="28.5" x2="21.38" y2="34.27"/><line class="e" x1="17.77" y1="42.6" x2=".71" y2="45.12"/><line class="e" x1="20.35" y1="49.2" x2="11.14" y2="56.12"/></g></g></g></g></svg>