<svg id="Layer_1" data-name="Layer 1" xmlns="http://www.w3.org/2000/svg" viewBox="0 0 198.07 229.51"><defs><style>.cls-1{fill:#1b3d6d;}.cls-2{fill:#fff;}.cls-3{fill:#5076a4;}</style></defs><title>icono-testimonios</title><path class="cls-1" d="M327.49,132.18h-155A21.54,21.54,0,0,0,151,153.73v155a21.54,21.54,0,0,0,21.54,21.55h46.85l30.92,31.44,31.44-31.44h45.77A21.54,21.54,0,0,0,349,308.7v-155A21.54,21.54,0,0,0,327.49,132.18Z" transform="translate(-150.97 -132.18)"/><path class="cls-2" d="M278.45,329.65" transform="translate(-150.97 -132.18)"/><circle class="cls-2" cx="99.03" cy="68.09" r="30.94"/><path class="cls-2" d="M180,287c0-26.53,30.3-48,67.69-48s67.7,21.5,67.7,48" transform="translate(-150.97 -132.18)"/><path class="cls-3" d="M173.28,285.2" transform="translate(-150.97 -132.18)"/></svg>