<svg id="Layer_1" data-name="Layer 1" xmlns="http://www.w3.org/2000/svg" viewBox="0 0 248.44 242.17"><defs><style>.cls-1,.cls-7,.cls-9{fill:#fff;}.cls-2,.cls-5{fill:#43bac1;}.cls-3{fill:#99999c;}.cls-4,.cls-6{fill:#f8cbc6;}.cls-4,.cls-5{stroke:#fff;}.cls-7{stroke:#4dbbc4;stroke-width:1.7px;}.cls-8{fill:#4dbbc4;}.cls-9{stroke:#231f20;stroke-miterlimit:10;}</style></defs><title>logo-colores-fondo-blanco</title><ellipse class="cls-1" cx="124.22" cy="121.09" rx="124.22" ry="121.09"/><g id="Capa_2" data-name="Capa 2"><g id="Capa_1" data-name="Capa 1"><path id="Trazado_98" data-name="Trazado 98" class="cls-2" d="M191.76,219a17.37,17.37,0,0,0,29.49-12c.07-1.82-2.76-1.82-2.83,0a14.52,14.52,0,0,1-24.66,10c-1.32-1.26-3.33.75-2,2Z" transform="translate(-125.78 -128.91)"/><path id="Trazado_99" data-name="Trazado 99" class="cls-2" d="M214.53,203.18a12.34,12.34,0,0,0,13.16,3.4,1.41,1.41,0,0,0,1.13-1.66,1.42,1.42,0,0,0-1.66-1.13l-.22.06a9.51,9.51,0,0,1-10.4-2.67,1.41,1.41,0,0,0-2,2Z" transform="translate(-125.78 -128.91)"/><path id="Trazado_100" data-name="Trazado 100" class="cls-2" d="M200,209.07l.48,2a1.85,1.85,0,0,0,.45.85,2.23,2.23,0,0,0,1.63.94,1.8,1.8,0,0,0,1-.05l.6-.25a2.48,2.48,0,0,0,.89-.9l.26-.59a2.72,2.72,0,0,0,0-1.33l-.49-2a3,3,0,0,0-1.15-1.5,2,2,0,0,0-.93-.29,1.89,1.89,0,0,0-1,0l-.6.25a2.48,2.48,0,0,0-.89.9l-.25.6a2.32,2.32,0,0,0,0,1.33Z" transform="translate(-125.78 -128.91)"/><path id="Trazado_101" data-name="Trazado 101" class="cls-2" d="M205.62,207.89l.49,2a2.5,2.5,0,0,0,3.06,1.76h0l.6-.25a2.43,2.43,0,0,0,.9-.9l.25-.6a2.5,2.5,0,0,0,0-1.33l-.49-2a2.1,2.1,0,0,0-.44-.85,2.35,2.35,0,0,0-1.64-.94,1.89,1.89,0,0,0-1,0l-.6.3a2.5,2.5,0,0,0-.9.9l-.25.59a2.32,2.32,0,0,0,0,1.33Z" transform="translate(-125.78 -128.91)"/><path id="Trazado_102" data-name="Trazado 102" class="cls-3" d="M233.64,281.39a3.51,3.51,0,0,0,2.12-.79,7.24,7.24,0,0,1,1.13,1.76,4.92,4.92,0,0,1-3.49,1.31c-3.15,0-4.62-2.25-4.62-5.06a4.67,4.67,0,0,1,4.52-4.81h.48a4.86,4.86,0,0,1,3.08.89,5.41,5.41,0,0,1-.9,2,4.63,4.63,0,0,0-2.2-.63,2.5,2.5,0,0,0-2.47,2.54.34.34,0,0,0,0,.1C231.31,280.63,232.5,281.39,233.64,281.39Z" transform="translate(-125.78 -128.91)"/><path id="Trazado_103" data-name="Trazado 103" class="cls-3" d="M242,279.07a5.06,5.06,0,0,0-.94-.13,1,1,0,0,0-1,1s0,0,0,0c0,.29.08,3.43,0,3.47a12.08,12.08,0,0,1-2.25,0v-6.48a4.65,4.65,0,0,1,2.1-.16v.93a2.16,2.16,0,0,1,2.35-.92A4.16,4.16,0,0,1,242,279.07Z" transform="translate(-125.78 -128.91)"/><path id="Trazado_104" data-name="Trazado 104" class="cls-3" d="M246.2,281.8a2.86,2.86,0,0,0,1.57-.47,6.47,6.47,0,0,1,.7,1.45,3.81,3.81,0,0,1-2.38.77,3.14,3.14,0,0,1-3.42-2.84,2.18,2.18,0,0,1,0-.51,3.26,3.26,0,0,1,3-3.51h.26a2.78,2.78,0,0,1,2.87,2.7.92.92,0,0,1,0,.16,4.15,4.15,0,0,1-.12,1,36.68,36.68,0,0,1-3.92.07C244.76,281.35,245.27,281.8,246.2,281.8Zm.66-2.44c0-.66-.31-1.17-1-1.17a1.15,1.15,0,0,0-1.17,1.12.28.28,0,0,0,0,.09Z" transform="translate(-125.78 -128.91)"/><path id="Trazado_105" data-name="Trazado 105" class="cls-3" d="M252.24,276.61a2.75,2.75,0,0,1,3,2.48,2.48,2.48,0,0,1,0,.47c0,1.44-.07,3.68-.11,3.76a12.63,12.63,0,0,1-1.74,0l-.12-.58a2.31,2.31,0,0,1-1.72.74,1.87,1.87,0,0,1-2.09-1.61,1.7,1.7,0,0,1,0-.39,2.12,2.12,0,0,1,2.25-2h.16a2.08,2.08,0,0,1,1.25.36c0-.58,0-1.37-1.17-1.37a2.29,2.29,0,0,0-1.35.6,3.13,3.13,0,0,1-1-.95A2.86,2.86,0,0,1,252.24,276.61Zm-.13,5.55c.59,0,.89-.35.89-.75a.9.9,0,0,0-1.78-.3.91.91,0,0,0,.74,1Z" transform="translate(-125.78 -128.91)"/><path id="Trazado_106" data-name="Trazado 106" class="cls-3" d="M258.66,276.77v.81a2.36,2.36,0,0,1,2-.94c1.48,0,2.39,1.17,2.39,2.91,0,.9-.05,3.18-.11,3.84a8.5,8.5,0,0,1-2.08.08v-3.69c0-.73-.32-1.24-1-1.24a1.14,1.14,0,0,0-1.17,1.1h0v3.75a9.58,9.58,0,0,1-2-.06s-.08-3.57,0-6.42A5.34,5.34,0,0,1,258.66,276.77Z" transform="translate(-125.78 -128.91)"/><path id="Trazado_107" data-name="Trazado 107" class="cls-3" d="M264,280a3.11,3.11,0,0,1,3-3.27h.16a2.49,2.49,0,0,1,1.74.72c0-.45,0-4.06.09-4.14a7.64,7.64,0,0,1,2.24,0s-.14,10-.18,10.13a5.6,5.6,0,0,1-2,0v-.74a2.86,2.86,0,0,1-2,.78,3.17,3.17,0,0,1-3-3.3C264,280.13,264,280.07,264,280Zm3.64,1.48a1.26,1.26,0,0,0,1.33-1.2,1.61,1.61,0,0,0,0-.22,1.32,1.32,0,0,0-1.22-1.39h-.11a1.41,1.41,0,1,0,0,2.82Z" transform="translate(-125.78 -128.91)"/><path id="Trazado_108" data-name="Trazado 108" class="cls-3" d="M279,280.21a3.42,3.42,0,1,1-3.44-3.52,3.3,3.3,0,0,1,3.44,3.15Zm-3.28-1.47a1.31,1.31,0,0,0-1.44,1.15,1.06,1.06,0,0,0,0,.31,1.34,1.34,0,0,0,1.19,1.49,1.36,1.36,0,0,0,1.49-1.2,1.6,1.6,0,0,0,0-.31C277,279.07,276.34,278.77,275.76,278.74Z" transform="translate(-125.78 -128.91)"/><path id="Trazado_109" data-name="Trazado 109" class="cls-3" d="M282.39,282.88a3.28,3.28,0,0,1,.62-1.55,4.07,4.07,0,0,0,1.91.71c.54,0,.81-.19.81-.48s-.22-.46-1.09-.62c-1.51-.26-2.21-.89-2.21-2,0-1.44,1-2.28,2.64-2.28a5.06,5.06,0,0,1,2.5.59,3.89,3.89,0,0,1-.58,1.55,5,5,0,0,0-1.73-.52c-.52,0-.75.25-.75.52s.23.43,1,.54c1.61.23,2.33.78,2.33,2s-.81,2.27-2.7,2.27A5.11,5.11,0,0,1,282.39,282.88Z" transform="translate(-125.78 -128.91)"/><path id="Trazado_110" data-name="Trazado 110" class="cls-3" d="M295.32,280.21a3.41,3.41,0,1,1-1.58-3.14,3.42,3.42,0,0,1,1.58,3.14ZM292,278.74a1.31,1.31,0,0,0-1.43,1.15,1.06,1.06,0,0,0,0,.31,1.35,1.35,0,1,0,2.67.33.92.92,0,0,0,0-.33C293.24,279.07,292.63,278.77,292,278.74Z" transform="translate(-125.78 -128.91)"/><path id="Trazado_111" data-name="Trazado 111" class="cls-3" d="M298.5,276.77v.81a2.42,2.42,0,0,1,2.05-.94c1.47,0,2.38,1.17,2.38,2.91,0,.9,0,3.18-.1,3.84a8.53,8.53,0,0,1-2.08.08v-3.69c0-.73-.33-1.24-1-1.24a1.14,1.14,0,0,0-1.18,1.1h0c0,.46,0,3.69-.06,3.75a9.54,9.54,0,0,1-2-.06s-.09-3.57,0-6.42a5.32,5.32,0,0,1,2-.14Z" transform="translate(-125.78 -128.91)"/><path id="Trazado_112" data-name="Trazado 112" class="cls-3" d="M308.43,279.07a5.06,5.06,0,0,0-.94-.13,1,1,0,0,0-1,1c0,.29.08,3.43,0,3.47a12.08,12.08,0,0,1-2.25,0v-6.48a4.65,4.65,0,0,1,2.1-.16v.93a2.16,2.16,0,0,1,2.35-.92,4.16,4.16,0,0,1-.26,2.29Z" transform="translate(-125.78 -128.91)"/><path id="Trazado_113" data-name="Trazado 113" class="cls-3" d="M310.76,273.35a1.21,1.21,0,0,1,1.24,1.18v.16a1.12,1.12,0,0,1-1.23,1h0a1.06,1.06,0,0,1-1.18-.93.67.67,0,0,1,0-.2C309.54,273.88,309.76,273.35,310.76,273.35Zm1.08,3.4s-.08,6.52-.11,6.61a9.55,9.55,0,0,1-2,0s-.15-6.47-.08-6.62a8.14,8.14,0,0,1,2.15,0Z" transform="translate(-125.78 -128.91)"/><path id="Trazado_114" data-name="Trazado 114" class="cls-3" d="M312.88,282.88a3.37,3.37,0,0,1,.61-1.55,4.15,4.15,0,0,0,1.91.71c.54,0,.81-.19.81-.48s-.22-.46-1.08-.62c-1.51-.26-2.22-.89-2.22-2,0-1.44,1-2.28,2.64-2.28a5,5,0,0,1,2.5.59,3.76,3.76,0,0,1-.59,1.55,4.85,4.85,0,0,0-1.71-.52c-.53,0-.76.25-.76.52s.23.43,1,.54c1.61.23,2.33.78,2.33,2s-.81,2.27-2.69,2.27A5.11,5.11,0,0,1,312.88,282.88Z" transform="translate(-125.78 -128.91)"/><path id="Trazado_115" data-name="Trazado 115" class="cls-3" d="M321.76,276.61a2.75,2.75,0,0,1,3,2.48,2.48,2.48,0,0,1,0,.47c0,1.44-.06,3.68-.11,3.76a12.63,12.63,0,0,1-1.74,0l-.12-.58a2.29,2.29,0,0,1-1.72.74,1.87,1.87,0,0,1-2.08-1.62,1.61,1.61,0,0,1,0-.38,2.12,2.12,0,0,1,2.25-2h.16a2.08,2.08,0,0,1,1.25.36c0-.58,0-1.37-1.17-1.37a2.23,2.23,0,0,0-1.35.6,3.13,3.13,0,0,1-1-.95A2.89,2.89,0,0,1,321.76,276.61Zm-.13,5.55a.78.78,0,0,0,.88-.75.91.91,0,0,0-.74-1,.89.89,0,0,0-1,.74.89.89,0,0,0,.74,1Z" transform="translate(-125.78 -128.91)"/><path id="Trazado_116" data-name="Trazado 116" class="cls-3" d="M325.76,282.88a3.28,3.28,0,0,1,.62-1.55,4.07,4.07,0,0,0,1.91.71c.53,0,.81-.19.81-.48s-.22-.46-1.09-.62c-1.51-.26-2.22-.89-2.22-2,0-1.44,1-2.28,2.64-2.28a5.08,5.08,0,0,1,2.51.59,3.59,3.59,0,0,1-.6,1.55,4.85,4.85,0,0,0-1.71-.52c-.52,0-.75.25-.75.52s.23.43,1,.54c1.6.23,2.32.78,2.32,2s-.81,2.27-2.7,2.27A5.1,5.1,0,0,1,325.76,282.88Z" transform="translate(-125.78 -128.91)"/><path id="Trazado_117" data-name="Trazado 117" class="cls-3" d="M334.5,282.88a3.28,3.28,0,0,1,.62-1.55A4.07,4.07,0,0,0,337,282c.54,0,.81-.19.81-.48s-.22-.46-1.09-.62c-1.51-.26-2.21-.89-2.21-2,0-1.44,1-2.28,2.64-2.28a5.06,5.06,0,0,1,2.5.59,4.06,4.06,0,0,1-.59,1.55,5,5,0,0,0-1.71-.52c-.53,0-.75.25-.75.52s.22.43,1,.54c1.6.23,2.3.78,2.3,2s-.8,2.27-2.69,2.27A5.1,5.1,0,0,1,334.5,282.88Z" transform="translate(-125.78 -128.91)"/><path id="Trazado_118" data-name="Trazado 118" class="cls-3" d="M343.4,276.61a2.75,2.75,0,0,1,3,2.48,2.48,2.48,0,0,1,0,.47c0,1.44-.06,3.68-.11,3.76a12.63,12.63,0,0,1-1.74,0l-.12-.58a2.29,2.29,0,0,1-1.72.74,1.87,1.87,0,0,1-2.08-1.62,1.61,1.61,0,0,1,0-.38,2.12,2.12,0,0,1,2.25-2H343a2.08,2.08,0,0,1,1.25.36c0-.58,0-1.37-1.17-1.37a2.29,2.29,0,0,0-1.36.6,3.35,3.35,0,0,1-1-.95A2.91,2.91,0,0,1,343.4,276.61Zm-.14,5.55c.59,0,.89-.35.89-.75a.89.89,0,0,0-1-.79.91.91,0,0,0-.8.79.82.82,0,0,0,.85.76Z" transform="translate(-125.78 -128.91)"/><path id="Trazado_119" data-name="Trazado 119" class="cls-3" d="M349.81,276.77v.81a2.42,2.42,0,0,1,2.05-.94c1.47,0,2.38,1.17,2.38,2.91,0,.9-.05,3.18-.1,3.84a8.53,8.53,0,0,1-2.08.08v-3.69c0-.73-.33-1.24-1-1.24a1.14,1.14,0,0,0-1.18,1.1h0c0,.46,0,3.69-.06,3.75a9.54,9.54,0,0,1-2-.06s-.08-3.57,0-6.42A5.32,5.32,0,0,1,349.81,276.77Z" transform="translate(-125.78 -128.91)"/><path id="Trazado_120" data-name="Trazado 120" class="cls-3" d="M358,276.61a2.75,2.75,0,0,1,3,2.48,2.48,2.48,0,0,1,0,.47c0,1.44-.08,3.68-.11,3.76a12.63,12.63,0,0,1-1.74,0l-.12-.58a2.31,2.31,0,0,1-1.72.74,1.87,1.87,0,0,1-2.09-1.61,1.7,1.7,0,0,1,0-.39,2.15,2.15,0,0,1,2.27-2h.14a2.11,2.11,0,0,1,1.26.36c0-.58,0-1.37-1.18-1.37a2.21,2.21,0,0,0-1.34.6,3.13,3.13,0,0,1-1-.95,2.86,2.86,0,0,1,2.63-1.51Zm-.14,5.55c.59,0,.89-.35.89-.75a.89.89,0,0,0-1-.74.87.87,0,0,0-.74.74.78.78,0,0,0,.82.76Z" transform="translate(-125.78 -128.91)"/><path id="Trazado_121" data-name="Trazado 121" class="cls-3" d="M361.93,282.88a3.5,3.5,0,0,1,.62-1.55,4.15,4.15,0,0,0,1.91.71c.54,0,.81-.19.81-.48s-.22-.46-1.09-.62c-1.5-.26-2.21-.89-2.21-2,0-1.44,1-2.28,2.64-2.28a5,5,0,0,1,2.5.59,3.76,3.76,0,0,1-.59,1.55,4.85,4.85,0,0,0-1.71-.52c-.53,0-.75.25-.75.52s.22.43,1,.54c1.6.23,2.31.78,2.31,2s-.81,2.27-2.69,2.27A5.16,5.16,0,0,1,361.93,282.88Z" transform="translate(-125.78 -128.91)"/><path id="Trazado_122" data-name="Trazado 122" class="cls-2" d="M288.29,288.37c-3,7.72-5.77,15.53-8.72,23.27-2.87,7.52-5.76,15.17-10,22-1.94,3.1-4.14,6.37-7.37,8.26a5.85,5.85,0,0,1-4.05,1,6.94,6.94,0,0,1-3.73-2.49,80.73,80.73,0,0,1-6.88-10.21,120,120,0,0,1-5.95-11.13,114.42,114.42,0,0,1-5-12.51c-1.13-3.4-2.78-7.05-6.78-7.69A2.62,2.62,0,0,0,227,300a2.5,2.5,0,0,0,.4,3h0l-.64-1.1h0l1.75-3.07c.15-.06,1.13-.1.15-.08h-.54a7.52,7.52,0,0,0-1.43.26,5.79,5.79,0,0,0-2.21,1.35,10.11,10.11,0,0,0-2,4.06c-1.23,3.56-2.39,7.15-3.63,10.7-2.45,7-5.28,14-9.81,19.89a37.3,37.3,0,0,1-3.52,4c-.93.9-2.17,2.07-3.56,1.59-1.57-.55-2.86-2.12-3.92-3.32a30.25,30.25,0,0,1-3.26-4.45c-4.15-6.7-6.63-14.35-9.51-21.64-3.15-8-6.34-16-9.47-24a2.58,2.58,0,0,0-3.07-1.75,2.52,2.52,0,0,0-1.75,3.08c2.89,7.38,5.82,14.74,8.73,22.12,3.06,7.73,5.7,15.85,9.81,23.11a34,34,0,0,0,7.4,9.49,8.85,8.85,0,0,0,5.9,2.47,9,9,0,0,0,5.64-2.66c5.89-5.23,9.68-12.61,12.63-19.79,1.69-4.11,3.1-8.32,4.51-12.54.67-2,1.31-4,2-5.94.06-.16.11-.32.18-.48-.11.25,0,0,.06-.08a3.09,3.09,0,0,1,.25-.42c-.2.28.23-.07.06,0s.23,0,.33-.05a5.68,5.68,0,0,0,1.36-.11,2.61,2.61,0,0,0,1.74-3.07,2.44,2.44,0,0,0-.67-1.15l-2.43,4.18c2.73.44,3.15,3.85,3.94,6.08a132.26,132.26,0,0,0,5.14,12.44,118.2,118.2,0,0,0,6.22,11.58c1.12,1.86,2.31,3.69,3.55,5.47a44,44,0,0,0,3.89,5.2A10.33,10.33,0,0,0,262,347.47c4-1.35,6.92-4.38,9.37-7.67,5.11-6.88,8.33-14.92,11.44-22.84,3.56-9,6.75-18.21,10.28-27.26a2.51,2.51,0,0,0-1.75-3.07,2.56,2.56,0,0,0-3.07,1.74Z" transform="translate(-125.78 -128.91)"/><path id="Trazado_123" data-name="Trazado 123" class="cls-2" d="M303,246.13a61.32,61.32,0,0,0,4.28-26.39A45.36,45.36,0,0,0,305,206.89a37.5,37.5,0,0,0-6.52-11.42,34.88,34.88,0,0,0-22.83-12.65,37.69,37.69,0,0,0-15.65,2c-1.54.51-3,1.25-4.58,1.7-.73.2-1.47.37-2.19.58-7,2-15,5-19.31,11.21a2.5,2.5,0,0,0,4.32,2.53c1.49-2.13,4.19-3.89,6.82-5.25a49.85,49.85,0,0,1,8.12-3.25c1.34-.42,2.74-.7,4-1.16,2.41-.84,4.71-1.81,7.19-2.44a32.72,32.72,0,0,1,7.5-1.08c8-.18,15.53,3.46,21.08,9.16a33.37,33.37,0,0,1,9.11,20.63,58,58,0,0,1-4,27.35,2.53,2.53,0,0,0,1.75,3.08,2.57,2.57,0,0,0,3.08-1.75Z" transform="translate(-125.78 -128.91)"/><path id="Trazado_124" data-name="Trazado 124" class="cls-2" d="M255.62,204.57c-4.53,1.4-8.91.34-13-1.93-2.5-1.39-4.88-3-7.36-4.44a156.71,156.71,0,0,0-21.65-10.62,46.91,46.91,0,0,0-22-2.42,25.4,25.4,0,0,0-19.75,12.41,35.57,35.57,0,0,0-4.68,25.33,2.51,2.51,0,0,0,3.07,1.74,2.55,2.55,0,0,0,1.75-3.07,30.39,30.39,0,0,1,3.33-20,22.71,22.71,0,0,1,6.34-7.54A22,22,0,0,1,192,190.15a43,43,0,0,1,20.55,2.39,150.13,150.13,0,0,1,20.33,10.08c2.79,1.62,5.47,3.51,8.34,5,4.93,2.49,10.34,3.49,15.7,1.83,3.07-.94,1.77-5.77-1.33-4.82Z" transform="translate(-125.78 -128.91)"/><path id="Trazado_125" data-name="Trazado 125" class="cls-2" d="M245.13,153.25l46,34.08,40.19,28.21s23.58,15.78,34.5,22.15A6.38,6.38,0,0,1,366.89,248l-.69.57s-1.29,1.81-6.16-.94a3.23,3.23,0,0,1-.44-.27l-61.49-41.12-20.52-14.71a6.41,6.41,0,0,0-8.94,1.47c-.14.2-.27.42-.39.63l-3.16,5.69s-.76,3-6,.5a7,7,0,0,1-.86-.52L229.88,179a6,6,0,0,1-2.35-3.17,4.9,4.9,0,0,1,1.63-5.25l4-4s1.25-.62.59-5.89a2.61,2.61,0,0,1,.08-1,7.93,7.93,0,0,1,1.45-2.64c1.6-1.86,2.44-2.64,2.85-3.19a3.8,3.8,0,0,1,1.54-1.32A5.32,5.32,0,0,1,245.13,153.25Z" transform="translate(-125.78 -128.91)"/><path id="Trazado_126" data-name="Trazado 126" class="cls-1" d="M241.67,165l27.46,19.88a.9.9,0,0,1,.32.51,4.12,4.12,0,0,1-.63,2.76c-1,1.77-5.14,9.31-5.56,10.06a.36.36,0,0,1-.08.12c-.3.33-1.89,1.82-4.74-.33-3.19-2.39-3.46-4.52-1.59-6.65a8.74,8.74,0,0,0,2.13-4L255.6,192a.8.8,0,0,1-.27.22c-.82.43-1.57,2.15-5.54-.24l-2.42-1.84a.8.8,0,0,1-.12-.92l2.94-5.89-4.1,4.59a.81.81,0,0,1-1,.18c-1.91-1-7.91-4.22-7.69-5.57s1.81-6.65,2.09-7.57h0c-.38.69-2.26,3.9-3.92,4.13a3.21,3.21,0,0,1-3.46-.8c-2.29-2-2.4-3.72.27-6.92,2.35-2.82,4.29-5.23,4.7-5.75a.91.91,0,0,1,.21-.18C237.84,165.07,240.27,163.8,241.67,165Z" transform="translate(-125.78 -128.91)"/><path id="Trazado_127" data-name="Trazado 127" class="cls-1" d="M306.09,201.3l28,18.37,17.64,11.2a2.53,2.53,0,0,1,.87,3.49,1.82,1.82,0,0,1-.15.23,3.34,3.34,0,0,1-3,.38,11.1,11.1,0,0,1-4-2.36l-.09-.07-21-14.2L303,203.93a1.33,1.33,0,0,1-.53-.68C302.13,202.35,302.9,199.57,306.09,201.3Z" transform="translate(-125.78 -128.91)"/><path id="Trazado_128" data-name="Trazado 128" class="cls-4" d="M202.09,230.89c2.75,0,4.68,2,4.68,5.25,0,2.33-1.93,4.13-4.68,4.13a4.1,4.1,0,0,1-4.48-3.7,3.14,3.14,0,0,1,0-.75C197.61,233,198.42,230.89,202.09,230.89Zm4.07,13.36c.15.21-.25,25.66-.41,26s-7.49.21-7.58.05-.56-25.5-.25-26.08S206,244.07,206.16,244.25Z" transform="translate(-125.78 -128.91)"/><path id="Trazado_129" data-name="Trazado 129" class="cls-4" d="M223.46,264.13a10.48,10.48,0,0,0,6-1.86,26.37,26.37,0,0,1,2.65,5.73,14.12,14.12,0,0,1-9,3c-9.22,0-12.93-6.41-12.93-13.2,0-7.16,4.26-13.84,12.27-13.84,6.76,0,10.89,5.31,10.89,11.24a15.53,15.53,0,0,1-.46,4.08,146.39,146.39,0,0,1-14.81.27C218,262.38,220,264.13,223.46,264.13Zm2.5-9.6c.1-2.59-1.17-4.61-3.63-4.61-2.64,0-4.37,2.07-4.37,4.77Z" transform="translate(-125.78 -128.91)"/><path id="Trazado_130" data-name="Trazado 130" class="cls-4" d="M245.09,244.36c0,1.11-.1,2.86-.15,3.18,1.12-1.75,3.61-3.71,7.74-3.71,5.54,0,9,4.61,9,11.45,0,3.55-.2,12.51-.4,15.1,0,.53-7.69.43-7.84.32s0-12.61,0-14.52c0-2.87-1.22-4.88-3.87-4.88a4.41,4.41,0,0,0-4.48,4.34h0c0,1.8,0,14.52-.2,14.73s-7.58.11-7.74-.21-.3-14-.15-25.28C237.51,244.2,244.63,243.88,245.09,244.36Z" transform="translate(-125.78 -128.91)"/><path id="Trazado_131" data-name="Trazado 131" class="cls-4" d="M276.29,260.68c0,1.7.86,2.81,2.49,2.87s3.06-1.28,3.72-1.17,1.73,5,1.78,6.1c0,0-2.14,2.65-7.43,2.59-5.85,0-8.71-3.28-8.71-8.48.06-2.49.36-11.61.36-11.66s-3.26,0-3.51-.27-.31-6.41,0-6.46,3.61.1,3.77-.06-.16-5.72.3-6.2,7.48-1,7.74-.69-.21,7.11-.1,7.11,5.7-.32,6.21.37.1,6.09.1,6.09c-.36.64-6.52.06-6.52.48C276.49,251.56,276.34,257.61,276.29,260.68Z" transform="translate(-125.78 -128.91)"/><path id="Trazado_132" data-name="Trazado 132" class="cls-5" d="M291.4,230.89c2.75,0,4.67,2,4.67,5.25,0,2.33-1.92,4.13-4.67,4.13a4.11,4.11,0,0,1-4.48-3.72,3.56,3.56,0,0,1,0-.73C286.92,233,287.76,230.89,291.4,230.89Zm4.07,13.36c.16.21-.25,25.66-.4,26s-7.48.21-7.59.05-.56-25.5-.25-26.08S295.26,244.07,295.47,244.25Z" transform="translate(-125.78 -128.91)"/><path id="Trazado_133" data-name="Trazado 133" class="cls-5" d="M310.49,260.68c0,1.7.86,2.81,2.49,2.87s3-1.28,3.72-1.17,1.73,5,1.78,6.1c0,0-2.14,2.65-7.43,2.59-5.86,0-8.71-3.28-8.71-8.48,0-2.49.36-11.61.36-11.66s-3.26,0-3.51-.27-.31-6.41,0-6.46,3.61.1,3.76-.06-.15-5.72.31-6.2,7.48-1,7.74-.69-.21,7.11-.11,7.11,5.7-.32,6.21.37.1,6.09.1,6.09c-.35.64-6.51.06-6.51.48C310.68,251.56,310.54,257.61,310.49,260.68Z" transform="translate(-125.78 -128.91)"/><path id="Trazado_134" data-name="Trazado 134" class="cls-5" d="M345.86,257.87c0,6.84-4.74,13-12.88,13.15-7.23,0-12.93-5.2-12.93-13.84,0-6.62,4.89-13.14,12.83-13.14C340.11,244.07,345.86,249.13,345.86,257.87Zm-12.57-5.8c-3.62-.1-5.4,2.28-5.4,5.73,0,3.71,2.29,5.73,4.68,5.78,3.57.1,5.44-2.12,5.44-5.83C338,253.53,335.68,252.2,333.29,252.07Z" transform="translate(-125.78 -128.91)"/><path id="Trazado_135" data-name="Trazado 135" class="cls-5" d="M348.6,268.37c-.4-.53,1.94-6.31,2.33-6.1.83.43,4,2.81,7.23,2.81,2,0,3-.74,3-1.91s-.81-1.8-4.11-2.43c-5.7-1-8.34-3.5-8.34-8,0-5.67,3.71-9,10-9,4.67,0,8.81,1.64,9.47,2.33.46.47-1.89,6-2.24,6.09s-3.51-2.06-6.48-2.06c-2,0-2.85,1-2.85,2.06s.87,1.7,3.83,2.12c6.05.91,8.75,3.08,8.75,8,0,4.66-3.06,8.91-10.17,8.91C354,271.29,349.32,269.16,348.6,268.37Z" transform="translate(-125.78 -128.91)"/><path id="Trazado_136" data-name="Trazado 136" class="cls-6" d="M175.81,220.92c1.55,1.15,7.64,8.62,11.66,13.71,11.9,15.1,9.37,32.05-3.72,42.38-13.48,10.63-28.91,11.06-42.85-6.58-4.33-5.48-9.47-12.93-10.14-14.71C134.37,252.35,170.63,224.17,175.81,220.92Zm1.05,22.29c-1.17-1.48-2.1-2.53-2.82-3.32-7.37,5.92-17.2,13.36-24.71,19.08a31.51,31.51,0,0,0,3,4.33c4,5,10.93,10.53,21.44,2.24C181.43,259.48,182.41,250.24,176.86,243.21Z" transform="translate(-125.78 -128.91)"/><path id="Trazado_137" data-name="Trazado 137" class="cls-7" d="M233.2,184.7l.61,1.25,1.38.2-1,1,.24,1.37-1.24-.65-1.23.65.23-1.37-1-1,1.38-.2Z" transform="translate(-125.78 -128.91)"/><path id="Trazado_138" data-name="Trazado 138" class="cls-8" d="M223.86,175l.62,1.24,1.37.2-1,1,.23,1.37-1.23-.65-1.23.65.24-1.37-1-1,1.37-.2Z" transform="translate(-125.78 -128.91)"/><path id="Trazado_139" data-name="Trazado 139" class="cls-8" d="M231,190.86l.61,1.25,1.38.2-1,1,.24,1.37L231,194l-1.23.65.23-1.37-1-1,1.37-.2Z" transform="translate(-125.78 -128.91)"/><path id="Trazado_140" data-name="Trazado 140" class="cls-8" d="M226.48,166.09l.62,1.25,1.37.2-1,1,.23,1.37-1.23-.65-1.23.65.23-1.37-1-1,1.38-.2Z" transform="translate(-125.78 -128.91)"/><path id="Trazado_141" data-name="Trazado 141" class="cls-8" d="M238.24,189.18l.62,1.25,1.38.2-1,1,.24,1.37-1.24-.65L237,193l.24-1.37-1-1,1.38-.2Z" transform="translate(-125.78 -128.91)"/></g></g><path class="cls-9" d="M60.77,155.06" transform="translate(-125.78 -128.91)"/></svg>