<svg xmlns="http://www.w3.org/2000/svg" width="90.204" height="73.924" viewBox="0 0 90.204 73.924">
  <g id="Capa_2" data-name="Capa 2" transform="translate(0 -0.002)">
    <g id="Capa_1" data-name="Capa 1" transform="translate(0 0.002)">
      <path id="Trazado_45" data-name="Trazado 45" d="M60.728,58.62A6.556,6.556,0,0,0,71.859,54.09c.026-.687-1.042-.687-1.068,0a5.484,5.484,0,0,1-9.308,3.771c-.5-.476-1.257.283-.755.755Z" transform="translate(-37.704 -33.354)" fill="#1d1d1b"/>
      <path id="Trazado_46" data-name="Trazado 46" d="M83.527,49.611A4.665,4.665,0,0,0,88.5,50.894a.536.536,0,1,0-.283-1.03,3.6,3.6,0,0,1-3.929-1.008.54.54,0,0,0-.755,0,.547.547,0,0,0,0,.755Z" transform="translate(-51.908 -30.32)" fill="#1d1d1b"/>
      <path id="Trazado_47" data-name="Trazado 47" d="M69.194,55.016l.181.755a.755.755,0,0,0,.17.321.853.853,0,0,0,.615.355.713.713,0,0,0,.377-.019l.226-.094a.936.936,0,0,0,.336-.34l.1-.223a1.027,1.027,0,0,0,0-.5l-.185-.755a1.083,1.083,0,0,0-.434-.566.7.7,0,0,0-.351-.109.713.713,0,0,0-.377,0l-.226.094a.966.966,0,0,0-.336.34l-.094.226a.944.944,0,0,0,0,.5Z" transform="translate(-43.055 -33.501)" fill="#1d1d1b"/>
      <path id="Trazado_48" data-name="Trazado 48" d="M74.8,53.835l.185.755a.941.941,0,0,0,1.159.661l.226-.094a.944.944,0,0,0,.34-.34l.094-.226a.944.944,0,0,0,0-.5l-.185-.755a.709.709,0,0,0-.166-.321.872.872,0,0,0-.619-.355.7.7,0,0,0-.377,0l-.226.113a.978.978,0,0,0-.34.34l-.094.223a.944.944,0,0,0,0,.5Z" transform="translate(-46.542 -32.766)" fill="#1d1d1b"/>
      <path id="Trazado_69" data-name="Trazado 69" d="M84.438,134.442c-1.132,2.914-2.178,5.862-3.3,8.783a48.046,48.046,0,0,1-3.775,8.3,8.845,8.845,0,0,1-2.782,3.118,2.216,2.216,0,0,1-1.529.377,2.642,2.642,0,0,1-1.408-.94,31.16,31.16,0,0,1-2.6-3.854,46.576,46.576,0,0,1-2.246-4.2,44.271,44.271,0,0,1-1.887-4.722c-.427-1.283-1.049-2.661-2.559-2.9a.989.989,0,0,0-1.068.434.947.947,0,0,0,.151,1.132h0l-.242-.415h0l.661-1.159c.057-.023.427-.038.057-.03a1.854,1.854,0,0,0-.2,0,2.616,2.616,0,0,0-.54.1,2.185,2.185,0,0,0-.834.51,3.869,3.869,0,0,0-.755,1.532c-.464,1.344-.9,2.7-1.37,4.039a26.428,26.428,0,0,1-3.7,7.508,13.875,13.875,0,0,1-1.329,1.51c-.351.34-.819.781-1.344.6a4.08,4.08,0,0,1-1.48-1.253,12.192,12.192,0,0,1-1.231-1.68,50.31,50.31,0,0,1-3.59-8.168c-1.189-3.02-2.393-6.039-3.574-9.059a.97.97,0,0,0-1.159-.661.955.955,0,0,0-.661,1.163c1.091,2.786,2.2,5.564,3.3,8.349a69.032,69.032,0,0,0,3.7,8.723,12.909,12.909,0,0,0,2.793,3.582,3.352,3.352,0,0,0,2.227.932,3.4,3.4,0,0,0,2.129-1,19.909,19.909,0,0,0,4.767-7.47c.638-1.551,1.17-3.14,1.7-4.733.253-.755.494-1.51.755-2.242.023-.06.042-.121.068-.181-.042.094,0,0,.023-.03a1.6,1.6,0,0,1,.094-.159c-.075.106.087-.026.023,0-.121.049.087,0,.125-.019a2.336,2.336,0,0,0,.513-.042.981.981,0,0,0,.657-1.159.883.883,0,0,0-.253-.434l-.917,1.578c1.034.166,1.189,1.453,1.487,2.295a50.77,50.77,0,0,0,1.94,4.7,45.732,45.732,0,0,0,2.348,4.371q.638,1.053,1.34,2.065a17.028,17.028,0,0,0,1.468,1.963,3.907,3.907,0,0,0,4.08,1.163,7.587,7.587,0,0,0,3.537-2.9,36.6,36.6,0,0,0,4.322-8.621c1.34-3.4,2.544-6.873,3.88-10.289a.947.947,0,0,0-.661-1.159.963.963,0,0,0-1.159.657Z" transform="translate(-24.974 -82.996)" fill="#1d1d1b"/>
      <path id="Trazado_70" data-name="Trazado 70" d="M129.035,54.563a23.142,23.142,0,0,0,1.619-9.961,17.363,17.363,0,0,0-.853-4.85,14.155,14.155,0,0,0-2.461-4.311,13.169,13.169,0,0,0-8.617-4.775,14.17,14.17,0,0,0-5.907.755c-.581.193-1.132.472-1.729.642-.276.075-.555.14-.83.219-2.642.755-5.662,1.887-7.285,4.231a.951.951,0,0,0,.34,1.291.962.962,0,0,0,1.291-.336,7.221,7.221,0,0,1,2.574-1.982,18.159,18.159,0,0,1,3.065-1.227c.506-.159,1.03-.264,1.51-.438.906-.317,1.778-.683,2.714-.921a12.347,12.347,0,0,1,2.827-.408,10.88,10.88,0,0,1,7.957,3.457,12.592,12.592,0,0,1,3.442,7.787,21.911,21.911,0,0,1-1.51,10.323.951.951,0,0,0,.661,1.163A.966.966,0,0,0,129,54.563Z" transform="translate(-64.026 -19.06)" fill="#1d1d1b"/>
      <path id="Trazado_71" data-name="Trazado 71" d="M69.413,40.175a6.143,6.143,0,0,1-4.907-.728c-.944-.525-1.842-1.132-2.778-1.676a58.437,58.437,0,0,0-8.172-4.009,17.687,17.687,0,0,0-8.3-.913A9.584,9.584,0,0,0,37.8,37.532a13.43,13.43,0,0,0-1.766,9.561.951.951,0,0,0,1.159.657.963.963,0,0,0,.661-1.159,11.5,11.5,0,0,1,1.257-7.549A8.6,8.6,0,0,1,41.5,36.2a8.255,8.255,0,0,1,3.907-1.465,16.193,16.193,0,0,1,7.757.9,56.447,56.447,0,0,1,7.674,3.8c1.053.611,2.065,1.325,3.148,1.887a7.839,7.839,0,0,0,5.93.691c1.159-.355.664-2.178-.5-1.819Z" transform="translate(-22.284 -20.359)" fill="#1d1d1b"/>
      <path id="Trazado_72" data-name="Trazado 72" d="M103.284.446,120.646,13.31,135.82,23.958s8.9,5.956,13.018,8.361a2.408,2.408,0,0,1,.4,3.884l-.26.215s-.487.683-2.325-.355a1.509,1.509,0,0,1-.166-.1L123.281,20.44l-7.745-5.552a2.416,2.416,0,0,0-3.522.793l-1.193,2.148s-.287,1.132-2.242.189a2.559,2.559,0,0,1-.325-.2L97.527,10.158a2.3,2.3,0,0,1-.887-1.2,1.857,1.857,0,0,1,.615-1.982l1.51-1.51s.472-.234.223-2.223a.94.94,0,0,1,.034-.377,2.974,2.974,0,0,1,.544-1c.6-.7.925-1,1.076-1.2a1.464,1.464,0,0,1,.581-.5,2,2,0,0,1,2.061.276Z" transform="translate(-60.114 -0.002)" fill="#1d1d1b"/>
      <path id="Trazado_73" data-name="Trazado 73" d="M103.884,12.6l10.365,7.5a.3.3,0,0,1,.121.193,1.54,1.54,0,0,1-.238,1.042c-.377.668-1.94,3.514-2.095,3.8a.2.2,0,0,1-.034.045c-.113.125-.71.687-1.789-.125-1.2-.9-1.306-1.706-.6-2.51a3.261,3.261,0,0,0,.8-1.51L109.142,22.8a.31.31,0,0,1-.1.083c-.31.162-.593.812-2.091-.091l-.913-.695a.31.31,0,0,1-.045-.347l1.11-2.223-1.548,1.733a.31.31,0,0,1-.377.068c-.721-.377-2.986-1.593-2.9-2.1s.683-2.51.789-2.857h0c-.143.26-.853,1.472-1.48,1.559a1.219,1.219,0,0,1-1.306-.3c-.864-.755-.906-1.4.1-2.612.887-1.064,1.619-1.974,1.774-2.17a.343.343,0,0,1,.079-.068C102.439,12.636,103.356,12.157,103.884,12.6Z" transform="translate(-62.021 -7.73)" fill="#fff"/>
      <path id="Trazado_74" data-name="Trazado 74" d="M173.018,48.884l10.55,6.934,6.662,4.227a.959.959,0,0,1,.268,1.4,1.268,1.268,0,0,1-1.132.143,4.284,4.284,0,0,1-1.51-.891.267.267,0,0,0-.034-.026l-7.927-5.36-8.055-5.439a.536.536,0,0,1-.2-.257C171.524,49.28,171.814,48.231,173.018,48.884Z" transform="translate(-106.84 -30.303)" fill="#1d1d1b"/>
      <path id="Trazado_75" data-name="Trazado 75" d="M68.531,78.82A1.771,1.771,0,0,1,70.3,80.8a1.623,1.623,0,0,1-1.766,1.559,1.551,1.551,0,0,1-1.691-1.68C66.84,79.6,67.146,78.82,68.531,78.82Zm1.536,5.043c.057.079-.094,9.685-.155,9.814a14.5,14.5,0,0,1-2.861.019c-.038-.06-.211-9.625-.094-9.844A11.287,11.287,0,0,1,70.067,83.863Z" transform="translate(-41.608 -49.07)" fill="#1d1d1b"/>
      <path id="Trazado_76" data-name="Trazado 76" d="M68.134,93.621a4.183,4.183,0,0,1-1.566-.155c-.083-.128-.211-9.814-.106-10.033.064-.113.2-.151.377-.174a12.584,12.584,0,0,1,3.02.128v.023c.147.2-.106,9.942-.132,10.006-.068.125-.155.17-.781.192C68.975,93.61,68.59,93.621,68.134,93.621ZM66.9,93.2a22.271,22.271,0,0,0,2.51,0c.057-1.012.174-8.459.151-9.531a16.558,16.558,0,0,0-2.763-.026C66.729,84.551,66.847,92.058,66.9,93.2Zm1.3-11a1.736,1.736,0,0,1-1.887-1.887c0-.955.215-2.05,1.887-2.05a1.96,1.96,0,0,1,1.955,2.17A1.822,1.822,0,0,1,68.205,82.207Zm0-3.541c-1.246,0-1.51.668-1.51,1.672a1.363,1.363,0,0,0,1.51,1.51,1.437,1.437,0,0,0,1.578-1.37C69.783,79.353,69.179,78.666,68.205,78.666Z" transform="translate(-41.282 -48.727)" fill="#1d1d1b"/>
      <path id="Trazado_77" data-name="Trazado 77" d="M84.433,99.5a3.982,3.982,0,0,0,2.265-.7,9.647,9.647,0,0,1,1,2.163,5.352,5.352,0,0,1-3.4,1.132c-3.48,0-4.88-2.419-4.88-4.982,0-2.7,1.612-5.224,4.631-5.224a4.066,4.066,0,0,1,4.11,4.243,5.79,5.79,0,0,1-.174,1.54,55.317,55.317,0,0,1-5.59.1C82.379,98.843,83.108,99.5,84.433,99.5Zm.944-3.624c.038-.978-.442-1.74-1.366-1.74a1.663,1.663,0,0,0-1.649,1.8Z" transform="translate(-49.443 -57.206)" fill="#1d1d1b"/>
      <path id="Trazado_78" data-name="Trazado 78" d="M83.939,101.994c-3.737,0-5.069-2.672-5.069-5.171,0-3.718,2.5-5.413,4.82-5.413a4.217,4.217,0,0,1,4.3,4.431,5.855,5.855,0,0,1-.181,1.593l-.034.117h-.121c-.936.136-4.11.143-5.42.109.087.853.755,1.336,1.857,1.336a3.775,3.775,0,0,0,2.148-.672l.128-.083.109.113a9.093,9.093,0,0,1,1.049,2.265v.087l-.064.06A5.507,5.507,0,0,1,83.939,101.994ZM83.69,91.8c-3.054,0-4.443,2.612-4.443,5.035,0,2.318,1.23,4.794,4.692,4.794a5.322,5.322,0,0,0,3.193-1.019,12.455,12.455,0,0,0-.842-1.842,4.084,4.084,0,0,1-2.2.638c-1.4,0-2.242-.713-2.242-1.91v-.2h.2c1.132.042,4.352.038,5.432-.083a5.82,5.82,0,0,0,.136-1.37,3.875,3.875,0,0,0-3.922-4.054Zm-1.861,4.046v-.192a1.856,1.856,0,0,1,1.838-1.989,1.446,1.446,0,0,1,1.072.434,2.027,2.027,0,0,1,.483,1.51v.177Zm1.838-1.8a1.446,1.446,0,0,0-1.453,1.419l2.642-.053a1.566,1.566,0,0,0-.377-1.049,1.064,1.064,0,0,0-.812-.332Z" transform="translate(-49.1 -56.908)" fill="#1d1d1b"/>
      <path id="Trazado_79" data-name="Trazado 79" d="M109.254,91.96c0,.419-.038,1.08-.057,1.2a3.341,3.341,0,0,1,2.921-1.4c2.091,0,3.4,1.74,3.4,4.322,0,1.34-.075,4.722-.151,5.7a12.082,12.082,0,0,1-2.959.121c-.057-.042,0-4.76,0-5.481,0-1.083-.46-1.842-1.461-1.842a1.665,1.665,0,0,0-1.691,1.642c0,.679,0,5.481-.075,5.56a14.246,14.246,0,0,1-2.921-.079c-.06-.121-.113-5.284-.057-9.542A7.185,7.185,0,0,1,109.254,91.96Z" transform="translate(-66.1 -57.125)" fill="#1d1d1b"/>
      <path id="Trazado_80" data-name="Trazado 80" d="M113.032,101.8a3.873,3.873,0,0,1-1.046-.075c-.128-.064-.136-.072-.075-4.367V96.087c0-.619-.166-1.653-1.272-1.653a1.48,1.48,0,0,0-1.51,1.453,56.628,56.628,0,0,1-.113,5.662,10.9,10.9,0,0,1-2.744.06c-.332-.03-.442-.057-.5-.17-.083-.177-.121-6.3-.075-9.629v-.057l.03-.045c.053-.079.147-.223,1.223-.317.075,0,1.861-.166,2.106.091l.057.057-.023.517v.192a3.7,3.7,0,0,1,2.7-1.023c2.178,0,3.586,1.77,3.586,4.511,0,1.344-.075,4.741-.151,5.715a.234.234,0,0,1-.147.193A10.346,10.346,0,0,1,113.032,101.8Zm-.755-.4a18.384,18.384,0,0,0,2.582-.068c.072-1.08.143-4.292.143-5.586,0-2.514-1.261-4.133-3.208-4.133a3.132,3.132,0,0,0-2.763,1.314l-.491.755.147-.895c0-.072.023-.445.038-.755v-.3a9.757,9.757,0,0,0-2.642.17c-.053,3.9,0,8.519.045,9.3a22.38,22.38,0,0,0,2.57.06c.042-.755.06-4.461.06-5.4a1.861,1.861,0,0,1,1.887-1.831c1.034,0,1.649.755,1.649,2.031V97.34c-.026,1.268-.057,3.5-.03,4.058Z" transform="translate(-65.79 -56.791)" fill="#1d1d1b"/>
      <path id="Trazado_81" data-name="Trazado 81" d="M138.364,93.965a.95.95,0,0,0,.94,1.083c.615.023,1.155-.483,1.4-.442s.653,1.887.672,2.3a3.556,3.556,0,0,1-2.8.978,2.932,2.932,0,0,1-3.288-3.2c.023-.94.136-4.382.136-4.4a7.779,7.779,0,0,1-1.325-.1,9.41,9.41,0,0,1,0-2.438c.117-.019,1.363.038,1.423-.023a17.053,17.053,0,0,1,.113-2.34,9.926,9.926,0,0,1,2.921-.26c.1.117-.079,2.684-.038,2.684s2.151-.121,2.344.14a9.328,9.328,0,0,1,.038,2.3c-.136.242-2.461.023-2.461.181C138.44,90.523,138.383,92.807,138.364,93.965Z" transform="translate(-83.433 -52.971)" fill="#1d1d1b"/>
      <path id="Trazado_82" data-name="Trazado 82" d="M138.339,97.761h-.064a3.127,3.127,0,0,1-3.473-3.4c.019-.755.094-3.152.125-4.058V90.14h-.079c-.91,0-1.083-.053-1.174-.147a8.587,8.587,0,0,1-.064-2.6.215.215,0,0,1,.166-.159,3.755,3.755,0,0,1,.5,0h.785V86.7c0-1.287.019-1.634.151-1.774a10.092,10.092,0,0,1,2.737-.343h0c.317,0,.4.023.457.087s.109.2.034,1.967c0,.23-.019.479-.023.642.619-.049,2.091-.064,2.31.23a7.143,7.143,0,0,1,.076,2.427l-.026.079c-.109.2-.464.226-1.627.215h-.808v.634c-.019.793-.049,2.019-.06,2.774a.778.778,0,0,0,.755.891,2,2,0,0,0,.887-.276.917.917,0,0,1,.54-.162c.468.121.827,2.363.83,2.476v.072l-.045.057A3.691,3.691,0,0,1,138.339,97.761Zm-4.382-8.036c.189.03.687.042.891.045.34,0,.468,0,.468.2v.377c-.03.9-.106,3.288-.125,4.046a2.764,2.764,0,0,0,3.1,3.02h.057a3.577,3.577,0,0,0,2.552-.857,8.365,8.365,0,0,0-.547-2.046,2.9,2.9,0,0,0-.268.125A2.336,2.336,0,0,1,139,94.93a1.143,1.143,0,0,1-1.132-1.272h0c0-.755.042-1.982.06-2.774v-.861l.064-.068c.1-.1.291-.113,1.132-.1a8.065,8.065,0,0,0,1.28-.045,9.672,9.672,0,0,0,0-2.084,9.361,9.361,0,0,0-2.129-.06h-.14l-.057-.057c-.068-.072-.068-.072-.03-.989.023-.491.06-1.359.045-1.661a14.344,14.344,0,0,0-2.616.234,10.4,10.4,0,0,0-.053,1.51c0,.687,0,.755-.053.815s-.143.113-1.132.1h-.317a14.019,14.019,0,0,0,.034,2.11Z" transform="translate(-83.137 -52.656)" fill="#1d1d1b"/>
      <path id="Trazado_83" data-name="Trazado 83" d="M157.842,78.82a1.771,1.771,0,0,1,1.766,1.982,1.623,1.623,0,0,1-1.766,1.559,1.555,1.555,0,0,1-1.691-1.68C156.151,79.6,156.468,78.82,157.842,78.82Zm1.536,5.043c.06.079-.094,9.685-.151,9.814a14.539,14.539,0,0,1-2.865.019c-.042-.06-.211-9.625-.094-9.844A11.287,11.287,0,0,1,159.378,83.863Z" transform="translate(-97.208 -49.07)" fill="#1d1d1b"/>
      <path id="Trazado_84" data-name="Trazado 84" d="M157.444,93.621a4.183,4.183,0,0,1-1.566-.155c-.083-.128-.211-9.814-.1-10.033.064-.113.2-.151.377-.174a12.584,12.584,0,0,1,3.02.128l.019.023c.147.2-.106,9.942-.132,10.006-.068.125-.155.17-.778.193C158.285,93.61,157.9,93.621,157.444,93.621Zm-1.23-.419a22.267,22.267,0,0,0,2.51,0c.057-1.012.174-8.459.151-9.531a16.559,16.559,0,0,0-2.763-.026C156.043,84.551,156.141,92.058,156.213,93.2Zm1.3-11a1.736,1.736,0,0,1-1.887-1.887c0-.955.215-2.05,1.887-2.05a1.96,1.96,0,0,1,1.955,2.17,1.82,1.82,0,0,1-1.955,1.766Zm0-3.541c-1.246,0-1.51.668-1.51,1.672a1.363,1.363,0,0,0,1.51,1.51,1.435,1.435,0,0,0,1.578-1.37c0-1.125-.6-1.812-1.578-1.812Z" transform="translate(-96.881 -48.727)" fill="#1d1d1b"/>
      <path id="Trazado_85" data-name="Trazado 85" d="M172.564,93.965a.95.95,0,0,0,.94,1.083c.672,0,1.151-.483,1.4-.442s.653,1.887.672,2.3a3.556,3.556,0,0,1-2.8.978,2.931,2.931,0,0,1-3.288-3.2c0-.94.136-4.382.136-4.4a7.779,7.779,0,0,1-1.325-.1,9.409,9.409,0,0,1,0-2.438c.117-.019,1.363.038,1.419-.023a16.507,16.507,0,0,1,.117-2.34,9.926,9.926,0,0,1,2.921-.26c.1.117-.079,2.684-.042,2.684s2.151-.121,2.344.14a9.328,9.328,0,0,1,.038,2.3c-.132.242-2.457.023-2.457.181C172.64,90.523,172.583,92.807,172.564,93.965Z" transform="translate(-104.724 -52.971)" fill="#1d1d1b"/>
      <path id="Trazado_86" data-name="Trazado 86" d="M172.517,97.761h-.06a3.127,3.127,0,0,1-3.473-3.4c0-.755.094-3.152.125-4.058V90.14h-.091c-.91,0-1.083-.053-1.174-.147a8.587,8.587,0,0,1-.064-2.6l.034-.106.132-.053a3.773,3.773,0,0,1,.5,0h.785V86.7c0-1.287,0-1.634.151-1.77a9.953,9.953,0,0,1,2.737-.347h0c.317,0,.377.023.457.087s.109.2.034,1.97c0,.226-.019.476-.026.638.623-.049,2.095-.064,2.314.23a7.06,7.06,0,0,1,.072,2.427l-.023.079c-.109.2-.464.226-1.631.215h-.808v.649c0,.793-.045,2.008-.057,2.759a.778.778,0,0,0,.755.891,2,2,0,0,0,.887-.276.944.944,0,0,1,.54-.162c.468.121.823,2.363.83,2.476v.072l-.045.057A3.648,3.648,0,0,1,172.517,97.761Zm-4.378-8.036c.189.03.687.042.891.045.34,0,.468,0,.468.2v.355c-.03.906-.109,3.291-.125,4.05a2.764,2.764,0,0,0,3.1,3.02,3.64,3.64,0,0,0,2.608-.857,8.538,8.538,0,0,0-.547-2.046,2.9,2.9,0,0,0-.268.125,2.336,2.336,0,0,1-1.064.317,1.143,1.143,0,0,1-1.132-1.272h0c0-.755.038-1.967.057-2.759,0-.434.019-.755.019-.778v-.1l.064-.068c.1-.1.291-.113,1.132-.1a8.12,8.12,0,0,0,1.283-.045,9.938,9.938,0,0,0,0-2.084,9.149,9.149,0,0,0-2.129-.06h-.14l-.057-.057c-.068-.072-.068-.072-.03-.989.023-.491.06-1.359.042-1.661a14.3,14.3,0,0,0-2.612.234,9.881,9.881,0,0,0-.053,1.51c0,.687,0,.755-.053.815s-.143.113-1.132.1h-.317a14.017,14.017,0,0,0,0,2.11Z" transform="translate(-104.409 -52.656)" fill="#1d1d1b"/>
      <path id="Trazado_87" data-name="Trazado 87" d="M199.032,97.19a4.8,4.8,0,0,1-4.862,4.964c-2.729,0-4.88-1.963-4.88-5.224a4.844,4.844,0,0,1,4.843-4.96C196.862,91.981,199.032,93.891,199.032,97.19ZM194.287,95c-1.366-.038-2.038.861-2.038,2.163a1.946,1.946,0,0,0,1.766,2.182c1.348.038,2.057-.8,2.057-2.2C196.073,95.552,195.19,95.05,194.287,95Z" transform="translate(-117.842 -57.256)" fill="#1d1d1b"/>
      <path id="Trazado_88" data-name="Trazado 88" d="M193.863,102.031c-2.989,0-5.073-2.227-5.073-5.413a5.049,5.049,0,0,1,5.031-5.148c3.042,0,5.088,2.174,5.088,5.409A5.007,5.007,0,0,1,193.863,102.031Zm-.042-10.191a4.671,4.671,0,0,0-4.654,4.771c0,3.02,1.887,5.035,4.692,5.035a4.638,4.638,0,0,0,4.673-4.775c0-3-1.895-5.024-4.711-5.024Zm-.023,7.379h-.1a2.139,2.139,0,0,1-1.951-2.37,2.453,2.453,0,0,1,.649-1.808,2.11,2.11,0,0,1,1.582-.544h0c.732.03,1.967.377,1.967,2.329a2.506,2.506,0,0,1-.649,1.846A2.076,2.076,0,0,1,193.8,99.219Zm.087-4.344a1.683,1.683,0,0,0-1.223.438,2.08,2.08,0,0,0-.536,1.536c0,1.344.823,1.974,1.585,1.993a1.744,1.744,0,0,0,1.325-.438,2.133,2.133,0,0,0,.536-1.574c0-1.555-.872-1.921-1.6-1.955Z" transform="translate(-117.531 -56.945)" fill="#1d1d1b"/>
      <path id="Trazado_89" data-name="Trazado 89" d="M217.811,101a5.367,5.367,0,0,1,.883-2.3,5.8,5.8,0,0,0,2.729,1.061c.755,0,1.151-.279,1.151-.721s-.306-.679-1.555-.917c-2.151-.377-3.148-1.321-3.148-3.02,0-2.14,1.4-3.378,3.775-3.378a6.868,6.868,0,0,1,3.574.879,6.006,6.006,0,0,1-.845,2.3,7.64,7.64,0,0,0-2.442-.778c-.755,0-1.076.377-1.076.778s.328.642,1.442.8c2.287.343,3.306,1.163,3.306,3.02,0,1.759-1.155,3.363-3.842,3.363A7.1,7.1,0,0,1,217.811,101Z" transform="translate(-135.587 -57.101)" fill="#1d1d1b"/>
      <path id="Trazado_90" data-name="Trazado 90" d="M221.474,102.021a7.27,7.27,0,0,1-4.08-1.166h0c-.26-.332.653-2.295.819-2.495a.234.234,0,0,1,.3-.087l.242.143a4.916,4.916,0,0,0,2.4.895c.377,0,.963-.068.963-.532,0-.253-.1-.483-1.4-.732-2.265-.4-3.3-1.412-3.3-3.189,0-2.235,1.476-3.567,3.952-3.567a6.967,6.967,0,0,1,3.71.936c.087.091.147.234-.106.966-.057.166-.559,1.608-.849,1.653a.71.71,0,0,1-.336-.121,5.284,5.284,0,0,0-2.133-.657c-.544,0-.887.226-.887.589,0,.245.094.445,1.28.615,2.465.377,3.469,1.295,3.469,3.208C225.52,101.089,223.331,102.021,221.474,102.021Zm-3.775-1.389a7.4,7.4,0,0,0,3.775,1.012c2.691,0,3.654-1.642,3.654-3.174,0-1.7-.883-2.5-3.144-2.835-1.038-.151-1.6-.351-1.6-.989,0-.479.377-.966,1.264-.966a5.481,5.481,0,0,1,2.3.7l.087.042a8.322,8.322,0,0,0,.736-1.97,7.115,7.115,0,0,0-3.4-.793c-2.265,0-3.574,1.163-3.574,3.189,0,1.582.921,2.45,2.993,2.816,1.11.215,1.71.453,1.71,1.106,0,.276-.128.91-1.34.91a5.233,5.233,0,0,1-2.6-.951l-.1-.064a7.6,7.6,0,0,0-.751,1.955Z" transform="translate(-135.309 -56.833)" fill="#1d1d1b"/>
      <path id="Trazado_91" data-name="Trazado 91" d="M17,68.85a58.555,58.555,0,0,1,4.4,5.175c4.492,5.7,3.537,12.1-1.4,16C14.913,94.034,9.089,94.2,3.827,87.538A42,42,0,0,1,0,81.985C1.363,80.713,15.049,70.077,17,68.85Zm.4,8.413c-.442-.559-.793-.955-1.064-1.253-2.782,2.235-6.492,5.043-9.327,7.2a12.29,12.29,0,0,0,1.132,1.634c1.51,1.887,4.126,3.975,8.093.845A5.77,5.77,0,0,0,17.4,77.263Z" transform="translate(0 -42.863)" fill="#1d1d1b"/>
      <path id="Trazado_92" data-name="Trazado 92" d="M101.195,32.63l.23.472.521.075-.377.366.091.517-.464-.245-.468.245.091-.517-.377-.366.521-.075Z" transform="translate(-62.529 -20.314)" fill="#1d1d1b"/>
      <path id="Trazado_93" data-name="Trazado 93" d="M100.953,33.48l-.891-.472-.891.472.17-.989-.721-.706,1-.143.445-.9.445.9,1,.143-.721.706ZM100,32.231l.03.03v.045l.042-.023.038.023v-.045l.03-.03H100.1v0Z" transform="translate(-61.396 -19.138)" fill="#1d1d1b"/>
      <path id="Trazado_94" data-name="Trazado 94" d="M91.861,22.97l.234.468.517.075-.374.37.087.517-.464-.245L91.4,24.4l.091-.517-.377-.37.517-.075Z" transform="translate(-56.72 -14.3)" fill="#1d1d1b"/>
      <path id="Trazado_95" data-name="Trazado 95" d="M99.021,38.79l.23.472.521.075-.377.366.091.517-.464-.245-.464.245.087-.517-.374-.366.517-.075Z" transform="translate(-61.178 -24.149)" fill="#1d1d1b"/>
      <path id="Trazado_96" data-name="Trazado 96" d="M94.481,14.02l.234.472.517.075-.374.366.087.517-.464-.245-.464.245.087-.517-.374-.366.521-.075Z" transform="translate(-58.351 -8.729)" fill="#1d1d1b"/>
      <path id="Trazado_97" data-name="Trazado 97" d="M106.241,37.11l.234.472.521.075-.377.366.091.517-.468-.245-.464.245.091-.517-.377-.366.521-.075Z" transform="translate(-65.672 -23.103)" fill="#1d1d1b"/>
    </g>
  </g>
</svg>
