<svg xmlns="http://www.w3.org/2000/svg" width="238.99" height="195.85" viewBox="0 0 238.99 195.85">
  <g id="Capa_2" data-name="Capa 2" transform="translate(0 -0.002)">
    <g id="Capa_1" data-name="Capa 1">
      <path id="Trazado_98" data-name="Trazado 98" d="M61,66.94a17.37,17.37,0,0,0,29.49-12c.07-1.82-2.76-1.82-2.83,0A14.53,14.53,0,0,1,63,64.93c-1.32-1.26-3.33.75-2,2Z" fill="#43b9c1"/>
      <path id="Trazado_99" data-name="Trazado 99" d="M83.77,51.11a12.36,12.36,0,0,0,13.17,3.4,1.42,1.42,0,1,0-.75-2.73,9.55,9.55,0,0,1-10.41-2.67,1.43,1.43,0,0,0-2,0,1.45,1.45,0,0,0,0,2Z" fill="#43b9c1"/>
      <path id="Trazado_100" data-name="Trazado 100" d="M69.25,57l.48,2a2,2,0,0,0,.45.85,2.26,2.26,0,0,0,1.63.94,1.89,1.89,0,0,0,1-.05l.6-.25a2.48,2.48,0,0,0,.89-.9l.26-.59a2.72,2.72,0,0,0,0-1.33l-.49-2a2.87,2.87,0,0,0-1.15-1.5,1.85,1.85,0,0,0-.93-.29,1.89,1.89,0,0,0-1,0l-.6.25a2.56,2.56,0,0,0-.89.9l-.25.6a2.5,2.5,0,0,0,0,1.33Z" fill="#43b9c1"/>
      <path id="Trazado_101" data-name="Trazado 101" d="M74.86,55.82l.49,2a2.494,2.494,0,0,0,3.07,1.75l.6-.25a2.5,2.5,0,0,0,.9-.9l.25-.6a2.5,2.5,0,0,0,0-1.33l-.49-2a1.88,1.88,0,0,0-.44-.85,2.31,2.31,0,0,0-1.64-.94,1.86,1.86,0,0,0-1,0L76,53a2.59,2.59,0,0,0-.9.9l-.25.59a2.5,2.5,0,0,0,0,1.33Z" fill="#43b9c1"/>
      <path id="Trazado_102" data-name="Trazado 102" d="M102.88,129.32a3.57,3.57,0,0,0,2.13-.79,7.1,7.1,0,0,1,1.12,1.76,4.93,4.93,0,0,1-3.49,1.31c-3.15,0-4.62-2.25-4.62-5.06a4.67,4.67,0,0,1,5-4.8,4.8,4.8,0,0,1,3.08.89,5.39,5.39,0,0,1-.9,2A4.49,4.49,0,0,0,103,124a2.5,2.5,0,0,0-2.46,2.64C100.55,128.56,101.74,129.32,102.88,129.32Z" fill="#99999c"/>
      <path id="Trazado_103" data-name="Trazado 103" d="M111.19,127a4.35,4.35,0,0,0-.94-.13.99.99,0,0,0-1,1c0,.29.08,3.43,0,3.47a13,13,0,0,1-2.25,0v-6.48a4.55,4.55,0,0,1,2.1-.16c0,.28,0,.85,0,.93a2.16,2.16,0,0,1,2.35-.92A4.06,4.06,0,0,1,111.19,127Z" fill="#99999c"/>
      <path id="Trazado_104" data-name="Trazado 104" d="M115.44,129.73a2.92,2.92,0,0,0,1.57-.47,5.89,5.89,0,0,1,.7,1.45,3.79,3.79,0,0,1-2.38.77,3.14,3.14,0,0,1-3.42-3.35,3.26,3.26,0,0,1,3.24-3.52,2.79,2.79,0,0,1,2.88,2.86,3.73,3.73,0,0,1-.12,1,38.669,38.669,0,0,1-3.92.07C114,129.28,114.51,129.73,115.44,129.73Zm.66-2.44c0-.66-.31-1.17-1-1.17a1.14,1.14,0,0,0-1.16,1.21Z" fill="#99999c"/>
      <path id="Trazado_105" data-name="Trazado 105" d="M121.48,124.54a2.75,2.75,0,0,1,3,2.95c0,1.44-.07,3.68-.11,3.76a12.627,12.627,0,0,1-1.74,0l-.12-.58a2.28,2.28,0,0,1-1.72.74,1.86,1.86,0,0,1-2.09-2,2.14,2.14,0,0,1,2.41-2,2,2,0,0,1,1.25.36c0-.58,0-1.37-1.17-1.37a2.25,2.25,0,0,0-1.35.6,3.349,3.349,0,0,1-1-.95,2.85,2.85,0,0,1,2.64-1.51Zm-.13,5.55c.59,0,.89-.35.89-.75a.9.9,0,1,0-.89.75Z" fill="#99999c"/>
      <path id="Trazado_106" data-name="Trazado 106" d="M127.9,124.7v.81a2.36,2.36,0,0,1,2-.94c1.47,0,2.39,1.17,2.39,2.91,0,.9-.06,3.18-.11,3.84a9,9,0,0,1-2.08.08v-3.69c0-.73-.32-1.24-1-1.24a1.14,1.14,0,0,0-1.18,1.1v3.75a10.809,10.809,0,0,1-2-.06s-.08-3.57,0-6.42a5.12,5.12,0,0,1,1.98-.14Z" fill="#99999c"/>
      <path id="Trazado_107" data-name="Trazado 107" d="M133.28,127.94a3.13,3.13,0,0,1,3.13-3.28,2.47,2.47,0,0,1,1.74.72c0-.45,0-4.06.09-4.14a7.54,7.54,0,0,1,2.24,0s-.14,10-.18,10.13a5.68,5.68,0,0,1-2,0v-.74a2.85,2.85,0,0,1-2,.78A3.169,3.169,0,0,1,133.28,127.94Zm3.64,1.48a1.27,1.27,0,0,0,1.33-1.42,1.31,1.31,0,0,0-1.33-1.4,1.41,1.41,0,1,0,0,2.82Z" fill="#99999c"/>
      <path id="Trazado_108" data-name="Trazado 108" d="M148.28,128.14a3.42,3.42,0,1,1-3.44-3.52,3.3,3.3,0,0,1,3.44,3.52ZM145,126.67a1.3,1.3,0,0,0-1.43,1.46,1.349,1.349,0,1,0,2.68-.02C146.2,127,145.58,126.7,145,126.67Z" fill="#99999c"/>
      <path id="Trazado_109" data-name="Trazado 109" d="M151.63,130.81a3.38,3.38,0,0,1,.62-1.55,4.25,4.25,0,0,0,1.91.71c.54,0,.81-.19.81-.48s-.21-.46-1.09-.62c-1.51-.26-2.21-.89-2.21-2,0-1.44,1-2.28,2.64-2.28a5.07,5.07,0,0,1,2.51.59,3.94,3.94,0,0,1-.59,1.55,4.78,4.78,0,0,0-1.72-.52c-.52,0-.75.25-.75.52s.23.43,1,.54c1.6.23,2.32.78,2.32,2s-.81,2.27-2.7,2.27A5.22,5.22,0,0,1,151.63,130.81Z" fill="#99999c"/>
      <path id="Trazado_110" data-name="Trazado 110" d="M164.56,128.14A3.42,3.42,0,1,1,162.982,125a3.42,3.42,0,0,1,1.578,3.139Zm-3.32-1.47a1.3,1.3,0,0,0-1.43,1.46,1.35,1.35,0,1,0,2.68,0c0-1.13-.62-1.43-1.25-1.46Z" fill="#99999c"/>
      <path id="Trazado_111" data-name="Trazado 111" d="M167.74,124.7v.81a2.4,2.4,0,0,1,2.05-.94c1.47,0,2.38,1.17,2.38,2.91,0,.9,0,3.18-.1,3.84a9,9,0,0,1-2.08.08s0-3.21,0-3.69c0-.73-.33-1.24-1-1.24a1.14,1.14,0,0,0-1.18,1.1c0,.46,0,3.69-.06,3.75a10.711,10.711,0,0,1-2-.06s-.09-3.57,0-6.42a5.14,5.14,0,0,1,1.99-.14Z" fill="#99999c"/>
      <path id="Trazado_112" data-name="Trazado 112" d="M177.67,127a4.44,4.44,0,0,0-.94-.13,1,1,0,0,0-1,1c0,.29.08,3.43,0,3.47a13,13,0,0,1-2.25,0c0-.05,0-6.22,0-6.48a4.54,4.54,0,0,1,2.1-.16c0,.28,0,.85,0,.93a2.15,2.15,0,0,1,2.35-.92,4.06,4.06,0,0,1-.26,2.29Z" fill="#99999c"/>
      <path id="Trazado_113" data-name="Trazado 113" d="M180,121.28a1.21,1.21,0,0,1,1.24,1.34,1.12,1.12,0,0,1-1.24,1,1.06,1.06,0,0,1-1.18-1.13C178.79,121.81,179,121.28,180,121.28Zm1.08,3.4s-.07,6.52-.11,6.61a10.291,10.291,0,0,1-2,0s-.15-6.47-.07-6.62a8,8,0,0,1,2.15.01Z" fill="#99999c"/>
      <path id="Trazado_114" data-name="Trazado 114" d="M182.12,130.81a3.38,3.38,0,0,1,.62-1.55,4.19,4.19,0,0,0,1.91.71c.54,0,.81-.19.81-.48s-.22-.46-1.09-.62c-1.51-.26-2.21-.89-2.21-2,0-1.44,1-2.28,2.64-2.28a5,5,0,0,1,2.5.59,3.94,3.94,0,0,1-.59,1.55,4.78,4.78,0,0,0-1.71-.52c-.53,0-.76.25-.76.52s.23.43,1,.54c1.61.23,2.32.78,2.32,2s-.81,2.27-2.69,2.27A5.19,5.19,0,0,1,182.12,130.81Z" fill="#99999c"/>
      <path id="Trazado_115" data-name="Trazado 115" d="M191,124.54a2.75,2.75,0,0,1,3,2.95c0,1.44-.06,3.68-.1,3.76a12.63,12.63,0,0,1-1.74,0l-.12-.58a2.32,2.32,0,0,1-1.73.74,1.86,1.86,0,0,1-2.08-2,2.14,2.14,0,0,1,2.41-2,2,2,0,0,1,1.25.36c0-.58,0-1.37-1.17-1.37a2.22,2.22,0,0,0-1.35.6,3.37,3.37,0,0,1-1-.95,2.89,2.89,0,0,1,2.63-1.51Zm-.13,5.55c.59,0,.88-.35.88-.75a.89.89,0,1,0-.88.75Z" fill="#99999c"/>
      <path id="Trazado_116" data-name="Trazado 116" d="M195,130.81a3.38,3.38,0,0,1,.62-1.55,4.25,4.25,0,0,0,1.91.71c.54,0,.81-.19.81-.48s-.21-.46-1.09-.62c-1.51-.26-2.21-.89-2.21-2,0-1.44,1-2.28,2.64-2.28a5.07,5.07,0,0,1,2.51.59,3.81,3.81,0,0,1-.6,1.55,4.7,4.7,0,0,0-1.71-.52c-.52,0-.75.25-.75.52s.23.43,1,.54c1.6.23,2.32.78,2.32,2s-.81,2.27-2.7,2.27A5.19,5.19,0,0,1,195,130.81Z" fill="#99999c"/>
      <path id="Trazado_117" data-name="Trazado 117" d="M203.74,130.81a3.38,3.38,0,0,1,.62-1.55,4.19,4.19,0,0,0,1.91.71c.54,0,.81-.19.81-.48s-.22-.46-1.09-.62c-1.51-.26-2.21-.89-2.21-2,0-1.44,1-2.28,2.64-2.28a5,5,0,0,1,2.5.59,3.94,3.94,0,0,1-.59,1.55,4.78,4.78,0,0,0-1.71-.52c-.53,0-.75.25-.75.52s.22.43,1,.54c1.6.23,2.31.78,2.31,2s-.81,2.27-2.69,2.27A5.19,5.19,0,0,1,203.74,130.81Z" fill="#99999c"/>
      <path id="Trazado_118" data-name="Trazado 118" d="M212.64,124.54a2.75,2.75,0,0,1,3,2.95c0,1.44-.06,3.68-.1,3.76a12.63,12.63,0,0,1-1.74,0l-.12-.58a2.32,2.32,0,0,1-1.73.74,1.86,1.86,0,0,1-2.08-2,2.14,2.14,0,0,1,2.41-2,2,2,0,0,1,1.25.36c0-.58,0-1.37-1.17-1.37a2.22,2.22,0,0,0-1.35.6,3.37,3.37,0,0,1-1-.95,2.89,2.89,0,0,1,2.63-1.51Zm-.13,5.55c.59,0,.89-.35.89-.75a.89.89,0,0,0-1.77,0,.8.8,0,0,0,.88.75Z" fill="#99999c"/>
      <path id="Trazado_119" data-name="Trazado 119" d="M219.05,124.7v.81a2.4,2.4,0,0,1,2.05-.94c1.47,0,2.38,1.17,2.38,2.91,0,.9-.05,3.18-.1,3.84a9,9,0,0,1-2.08.08s0-3.21,0-3.69c0-.73-.33-1.24-1-1.24a1.14,1.14,0,0,0-1.18,1.1c0,.46,0,3.69-.06,3.75a10.71,10.71,0,0,1-2-.06s-.08-3.57,0-6.42A5.08,5.08,0,0,1,219.05,124.7Z" fill="#99999c"/>
      <path id="Trazado_120" data-name="Trazado 120" d="M227.22,124.54a2.75,2.75,0,0,1,3,2.95c0,1.44-.07,3.68-.11,3.76a12.63,12.63,0,0,1-1.74,0l-.12-.58a2.28,2.28,0,0,1-1.72.74,1.86,1.86,0,0,1-2.09-2,2.15,2.15,0,0,1,2.41-2,2,2,0,0,1,1.26.36c0-.58,0-1.37-1.18-1.37a2.21,2.21,0,0,0-1.34.6,3.37,3.37,0,0,1-1-.95,2.86,2.86,0,0,1,2.63-1.51Zm-.14,5.55c.59,0,.89-.35.89-.75a.89.89,0,0,0-1.76,0,.79.79,0,0,0,.87.75Z" fill="#99999c"/>
      <path id="Trazado_121" data-name="Trazado 121" d="M231.18,130.81a3.38,3.38,0,0,1,.62-1.55,4.19,4.19,0,0,0,1.91.71c.54,0,.81-.19.81-.48s-.22-.46-1.09-.62c-1.51-.26-2.21-.89-2.21-2,0-1.44,1-2.28,2.64-2.28a5,5,0,0,1,2.5.59,3.94,3.94,0,0,1-.59,1.55,4.78,4.78,0,0,0-1.71-.52c-.53,0-.75.25-.75.52s.22.43,1,.54c1.6.23,2.31.78,2.31,2s-.81,2.27-2.69,2.27A5.19,5.19,0,0,1,231.18,130.81Z" fill="#99999c"/>
      <path id="Trazado_122" data-name="Trazado 122" d="M157.54,136.3c-3,7.72-5.77,15.53-8.73,23.27-2.87,7.52-5.76,15.17-10,22-1.94,3.1-4.14,6.37-7.37,8.26a5.87,5.87,0,0,1-4.05,1,7,7,0,0,1-3.73-2.49,82.55,82.55,0,0,1-6.88-10.21A123.4,123.4,0,0,1,110.83,167a117.3,117.3,0,0,1-5-12.51c-1.13-3.4-2.78-7.05-6.78-7.69a2.62,2.62,0,0,0-2.83,1.15,2.51,2.51,0,0,0,.4,3h0l-.64-1.1h0l1.75-3.07c.15-.06,1.13-.1.15-.08a4.9,4.9,0,0,0-.54,0,6.93,6.93,0,0,0-1.43.26,5.79,5.79,0,0,0-2.21,1.35,10.25,10.25,0,0,0-2,4.06c-1.23,3.56-2.39,7.15-3.63,10.7-2.45,7-5.28,14-9.81,19.89a36.76,36.76,0,0,1-3.52,4c-.93.9-2.17,2.07-3.56,1.59-1.57-.55-2.86-2.12-3.92-3.32A32.3,32.3,0,0,1,64,180.78c-4.15-6.7-6.63-14.35-9.51-21.64-3.15-8-6.34-16-9.47-24a2.57,2.57,0,0,0-3.07-1.75,2.53,2.53,0,0,0-1.75,3.08c2.89,7.38,5.82,14.74,8.73,22.12,3.06,7.73,5.7,15.85,9.81,23.11a34.2,34.2,0,0,0,7.4,9.49,8.88,8.88,0,0,0,5.9,2.47A9,9,0,0,0,77.68,191c5.89-5.23,9.68-12.61,12.63-19.79,1.69-4.11,3.1-8.32,4.51-12.54.67-2,1.31-4,2-5.94.06-.16.11-.32.18-.48-.11.25,0,0,.06-.08a4.231,4.231,0,0,1,.25-.42c-.2.28.23-.07.06,0-.32.13.23,0,.33-.05a6.19,6.19,0,0,0,1.36-.11,2.6,2.6,0,0,0,1.74-3.07,2.34,2.34,0,0,0-.67-1.15l-2.43,4.18c2.74.44,3.15,3.85,3.94,6.08a134.508,134.508,0,0,0,5.14,12.44A121.161,121.161,0,0,0,113,181.65q1.69,2.79,3.55,5.47a45.121,45.121,0,0,0,3.89,5.2,10.35,10.35,0,0,0,10.81,3.08c4-1.35,6.93-4.38,9.37-7.67,5.11-6.88,8.34-14.92,11.45-22.84,3.55-9,6.74-18.21,10.28-27.26a2.51,2.51,0,0,0-1.75-3.07,2.55,2.55,0,0,0-3.07,1.74Z" fill="#43b9c1"/>
      <path id="Trazado_123" data-name="Trazado 123" d="M172.23,94.06a61.31,61.31,0,0,0,4.29-26.39,46,46,0,0,0-2.26-12.85,37.5,37.5,0,0,0-6.52-11.42,34.89,34.89,0,0,0-22.83-12.65,37.54,37.54,0,0,0-15.65,2c-1.54.51-3,1.25-4.58,1.7-.73.2-1.47.37-2.2.58-7,2-15,5-19.3,11.21a2.52,2.52,0,0,0,.9,3.42,2.55,2.55,0,0,0,3.42-.89c1.49-2.13,4.19-3.89,6.82-5.25a48.11,48.11,0,0,1,8.12-3.25c1.34-.42,2.73-.7,4-1.16,2.4-.84,4.71-1.81,7.19-2.44a32.71,32.71,0,0,1,7.49-1.08c8-.18,15.54,3.46,21.08,9.16a33.36,33.36,0,0,1,9.12,20.63,58.05,58.05,0,0,1-4,27.35,2.52,2.52,0,0,0,1.75,3.08,2.56,2.56,0,0,0,3.07-1.75Z" fill="#43b9c1"/>
      <path id="Trazado_124" data-name="Trazado 124" d="M124.86,52.5c-4.53,1.4-8.91.34-13-1.93-2.5-1.39-4.88-3-7.36-4.44A154.82,154.82,0,0,0,82.85,35.51a46.86,46.86,0,0,0-22-2.42A25.39,25.39,0,0,0,41.1,45.5a35.58,35.58,0,0,0-4.68,25.33,2.52,2.52,0,0,0,3.07,1.74,2.55,2.55,0,0,0,1.75-3.07,30.46,30.46,0,0,1,3.33-20,22.77,22.77,0,0,1,6.34-7.54,21.87,21.87,0,0,1,10.35-3.88,42.9,42.9,0,0,1,20.55,2.39,149.549,149.549,0,0,1,20.33,10.08c2.79,1.62,5.47,3.51,8.34,5,4.93,2.49,10.35,3.49,15.71,1.83,3.07-.94,1.76-5.77-1.33-4.82Z" fill="#43b9c1"/>
      <path id="Trazado_125" data-name="Trazado 125" d="M114.37,1.18l46,34.08,40.2,28.21s23.58,15.78,34.49,22.15a6.38,6.38,0,0,1,1.07,10.29l-.69.57s-1.29,1.81-6.16-.94a4,4,0,0,1-.44-.27L167.35,54.15,146.83,39.44a6.4,6.4,0,0,0-9.33,2.1l-3.16,5.69s-.76,3-5.94.5a6.78,6.78,0,0,1-.86-.52L99.12,26.91a6.09,6.09,0,0,1-2.35-3.17,4.92,4.92,0,0,1,1.63-5.25l4-4s1.25-.62.59-5.89a2.49,2.49,0,0,1,.09-1,7.88,7.88,0,0,1,1.44-2.64c1.6-1.86,2.45-2.64,2.85-3.19A3.88,3.88,0,0,1,108.91.45a5.29,5.29,0,0,1,5.46.73Z" fill="#43b9c1"/>
      <path id="Trazado_126" data-name="Trazado 126" d="M110.91,12.9l27.46,19.88a.8.8,0,0,1,.32.51,4.08,4.08,0,0,1-.63,2.76c-1,1.77-5.14,9.31-5.55,10.06a.54.54,0,0,1-.09.12c-.3.33-1.88,1.82-4.74-.33-3.19-2.39-3.46-4.52-1.59-6.65a8.64,8.64,0,0,0,2.13-4l-3.38,4.67a.82.82,0,0,1-.27.22c-.82.43-1.57,2.15-5.54-.24l-2.42-1.84a.82.82,0,0,1-.12-.92l2.94-5.89-4.1,4.59a.82.82,0,0,1-1,.18c-1.91-1-7.91-4.22-7.69-5.57s1.81-6.65,2.09-7.57h0c-.38.69-2.26,3.9-3.92,4.13a3.23,3.23,0,0,1-3.46-.8c-2.29-2-2.4-3.72.27-6.92,2.35-2.82,4.29-5.23,4.7-5.75a.91.91,0,0,1,.21-.18C107.08,13,109.51,11.73,110.91,12.9Z" fill="#fff"/>
      <path id="Trazado_127" data-name="Trazado 127" d="M175.33,49.23,203.28,67.6l17.65,11.2a2.54,2.54,0,0,1,.71,3.72,3.36,3.36,0,0,1-3,.38,11.35,11.35,0,0,1-4-2.36.709.709,0,0,0-.09-.07l-21-14.2L172.21,51.86a1.42,1.42,0,0,1-.53-.68C171.37,50.28,172.14,47.5,175.33,49.23Z" fill="#fff"/>
      <path id="Trazado_128" data-name="Trazado 128" d="M71.33,78.82c2.75,0,4.68,2,4.68,5.25,0,2.33-1.93,4.13-4.68,4.13a4.11,4.11,0,0,1-4.48-4.45C66.85,80.89,67.66,78.82,71.33,78.82ZM75.4,92.18c.15.21-.25,25.66-.41,26s-7.48.21-7.58.05-.56-25.5-.25-26.08S75.2,92,75.4,92.18Z" fill="#f8cac5" stroke="#fff" stroke-width="1"/>
      <path id="Trazado_129" data-name="Trazado 129" d="M92.7,112.06a10.55,10.55,0,0,0,6-1.86,25.56,25.56,0,0,1,2.65,5.73,14.18,14.18,0,0,1-9,3c-9.22,0-12.93-6.41-12.93-13.2,0-7.16,4.27-13.84,12.27-13.84,6.76,0,10.89,5.31,10.89,11.24a15.34,15.34,0,0,1-.46,4.08,146.554,146.554,0,0,1-14.81.27C87.26,110.31,89.19,112.06,92.7,112.06Zm2.5-9.6c.1-2.59-1.17-4.61-3.62-4.61-2.64,0-4.37,2.07-4.37,4.77Z" fill="#f8cac5" stroke="#fff" stroke-width="1"/>
      <path id="Trazado_130" data-name="Trazado 130" d="M114.33,92.29c0,1.11-.1,2.86-.15,3.18,1.12-1.75,3.61-3.71,7.74-3.71,5.54,0,9,4.61,9,11.45,0,3.55-.2,12.51-.4,15.1-.05.53-7.69.43-7.84.32s0-12.61,0-14.52c0-2.87-1.22-4.88-3.87-4.88a4.41,4.41,0,0,0-4.48,4.35c0,1.8,0,14.52-.2,14.73s-7.58.11-7.74-.21-.3-14-.15-25.28C106.75,92.13,113.87,91.81,114.33,92.29Z" fill="#f8cac5" stroke="#fff" stroke-width="1"/>
      <path id="Trazado_131" data-name="Trazado 131" d="M145.53,108.61c0,1.7.86,2.81,2.49,2.87s3.06-1.28,3.72-1.17,1.73,5,1.78,6.1c0,0-2.14,2.65-7.43,2.59-5.85,0-8.71-3.28-8.71-8.48.06-2.49.36-11.61.36-11.66s-3.26,0-3.51-.27-.31-6.41,0-6.46,3.61.1,3.77-.06-.16-5.72.3-6.2,7.48-1,7.74-.69-.21,7.11-.1,7.11,5.7-.32,6.21.37.1,6.09.1,6.09c-.36.64-6.52.06-6.52.48C145.73,99.49,145.58,105.54,145.53,108.61Z" fill="#f8cac5" stroke="#fff" stroke-width="1"/>
      <path id="Trazado_132" data-name="Trazado 132" d="M160.64,78.82c2.75,0,4.68,2,4.68,5.25,0,2.33-1.93,4.13-4.68,4.13a4.12,4.12,0,0,1-4.48-4.45C156.16,80.89,157,78.82,160.64,78.82Zm4.07,13.36c.16.21-.25,25.66-.4,26s-7.48.21-7.59.05-.56-25.5-.25-26.08S164.51,92,164.71,92.18Z" fill="#43b9c1" stroke="#fff" stroke-width="1"/>
      <path id="Trazado_133" data-name="Trazado 133" d="M179.73,108.61c0,1.7.86,2.81,2.49,2.87,1.78,0,3.05-1.28,3.72-1.17s1.73,5,1.78,6.1c0,0-2.14,2.65-7.43,2.59-5.86,0-8.71-3.28-8.71-8.48,0-2.49.36-11.61.36-11.66s-3.26,0-3.51-.27-.31-6.41,0-6.46,3.61.1,3.76-.06-.15-5.72.31-6.2,7.48-1,7.74-.69-.21,7.11-.11,7.11,5.7-.32,6.21.37.1,6.09.1,6.09c-.35.64-6.51.06-6.51.48C179.93,99.49,179.78,105.54,179.73,108.61Z" fill="#43b9c1" stroke="#fff" stroke-width="1"/>
      <path id="Trazado_134" data-name="Trazado 134" d="M215.1,105.8c0,6.84-4.74,13-12.88,13.15-7.23,0-12.93-5.2-12.93-13.84,0-6.62,4.89-13.14,12.83-13.14C209.35,92,215.1,97.06,215.1,105.8ZM202.53,100c-3.62-.1-5.4,2.28-5.4,5.73,0,3.71,2.29,5.73,4.68,5.78,3.57.1,5.45-2.12,5.45-5.83C207.26,101.46,204.92,100.13,202.53,100Z" fill="#43b9c1" stroke="#fff" stroke-width="1"/>
      <path id="Trazado_135" data-name="Trazado 135" d="M217.84,116.3c-.4-.53,1.94-6.31,2.34-6.1.82.43,4,2.81,7.23,2.81,2,0,3.05-.74,3.05-1.91s-.81-1.8-4.12-2.43c-5.7-1-8.34-3.5-8.34-8,0-5.67,3.71-8.95,10-8.95,4.68,0,8.81,1.64,9.47,2.33.46.47-1.89,6-2.24,6.09s-3.51-2.06-6.47-2.06c-2,0-2.85,1-2.85,2.06s.87,1.7,3.82,2.12c6.06.91,8.76,3.08,8.76,8,0,4.66-3.06,8.91-10.18,8.91C223.19,119.22,218.56,117.09,217.84,116.3Z" fill="#43b9c1" stroke="#fff" stroke-width="1"/>
      <path id="Trazado_136" data-name="Trazado 136" d="M45.05,68.85C46.6,70,52.69,77.47,56.71,82.56c11.9,15.1,9.37,32.05-3.72,42.38C39.51,135.57,24.08,136,10.14,118.36,5.81,112.88.67,105.43,0,103.65,3.61,100.28,39.87,72.1,45.05,68.85ZM46.1,91.14c-1.17-1.48-2.1-2.53-2.82-3.32-7.37,5.92-17.2,13.36-24.71,19.08a32.559,32.559,0,0,0,3,4.33c4,5,10.93,10.53,21.44,2.24C50.67,107.41,51.65,98.17,46.1,91.14Z" fill="#f8cac5"/>
      <path id="Trazado_137" data-name="Trazado 137" d="M102.44,32.63l.61,1.25,1.38.2-1,.97.24,1.37-1.23-.65-1.24.65.24-1.37-1-.97,1.38-.2Z" fill="#fff" stroke="#4bbbc4" stroke-width="1.7"/>
      <path id="Trazado_138" data-name="Trazado 138" d="M93.1,22.97l.62,1.24,1.37.2-.99.98.23,1.37-1.23-.65-1.23.65.24-1.37-1-.98,1.37-.2Z" fill="#4bbbc4"/>
      <path id="Trazado_139" data-name="Trazado 139" d="M100.26,38.79l.61,1.25,1.38.2-1,.97.24,1.37-1.23-.65-1.23.65.23-1.37-.99-.97,1.37-.2Z" fill="#4bbbc4"/>
      <path id="Trazado_140" data-name="Trazado 140" d="M95.72,14.02l.62,1.25,1.37.2-.99.97.23,1.37-1.23-.65-1.23.65.23-1.37-.99-.97,1.38-.2Z" fill="#4bbbc4"/>
      <path id="Trazado_141" data-name="Trazado 141" d="M107.48,37.11l.62,1.25,1.38.2-1,.97.24,1.37-1.24-.65-1.23.65.24-1.37-1-.97,1.38-.2Z" fill="#4bbbc4"/>
    </g>
  </g>
</svg>
